<?xml version="1.0" encoding="UTF-8" standalone="no"?>
<svg
   xmlns:dc="http://purl.org/dc/elements/1.1/"
   xmlns:cc="http://creativecommons.org/ns#"
   xmlns:rdf="http://www.w3.org/1999/02/22-rdf-syntax-ns#"
   xmlns:svg="http://www.w3.org/2000/svg"
   xmlns="http://www.w3.org/2000/svg"
   version="1.1"
   id="svg1044"
   xml:space="preserve"
   width="200"
   height="200"
   viewBox="0 0 200 200"><metadata
     id="metadata1050"><rdf:RDF><cc:Work
         rdf:about=""><dc:format>image/svg+xml</dc:format><dc:type
           rdf:resource="http://purl.org/dc/dcmitype/StillImage" /><dc:title></dc:title></cc:Work></rdf:RDF></metadata><defs
     id="defs1048"><clipPath
       clipPathUnits="userSpaceOnUse"
       id="clipPath1060"><path
         d="M 0,150 H 150 V 0 H 0 Z"
         id="path1058" /></clipPath></defs><g
     id="g1052"
     transform="matrix(1.3333333,0,0,-1.3333333,0,200)"><g
       id="g1054"><g
         id="g1056"
         clip-path="url(#clipPath1060)"><g
           id="g1062"
           transform="translate(130.251,25.5166)"><path
             d="m 0,0 c 5.384,0 9.749,4.364 9.749,9.748 v 79.47 c 0,5.385 -4.365,9.75 -9.75,9.75 h -110.501 c -5.384,0 -9.749,-4.365 -9.749,-9.75 V 9.748 c 0,-5.384 4.364,-9.748 9.748,-9.748 z m 0.237,-10.001 h -110.976 c -10.776,0 -19.512,8.736 -19.512,19.512 v 79.945 c 0,10.775 8.736,19.511 19.512,19.511 H 0.237 c 10.777,0 19.512,-8.736 19.512,-19.511 V 9.511 c 0,-10.776 -8.735,-19.512 -19.512,-19.512"
             style="fill:#42538d;fill-opacity:1;fill-rule:nonzero;stroke:none"
             id="path1064" /></g><g
           id="g1066"
           transform="translate(148.9844,66.877)"><path
             d="m 0,0 -28.637,28.637 0.001,0.001 -7.071,7.071 -37.707,-37.707 -17.558,17.559 -7.071,-7.072 0.001,-0.001 -42.778,-42.777 7.071,-7.071 42.778,42.777 17.557,-17.557 0.041,0.041 v 0 L -35.708,21.566 -7.07,-7.071 Z"
             style="fill:#42538d;fill-opacity:1;fill-rule:nonzero;stroke:none"
             id="path1068" /></g><g
           id="g1070"
           transform="translate(35.1152,103.9795)"><path
             d="m 0,0 c 0,-2.761 -2.239,-5 -5,-5 -2.762,0 -5,2.239 -5,5 0,2.762 2.238,5 5,5 2.761,0 5,-2.238 5,-5"
             style="fill:#42538d;fill-opacity:1;fill-rule:nonzero;stroke:none"
             id="path1072" /></g></g></g></g></svg>
