<?xml version="1.0" encoding="UTF-8" standalone="no"?>
<svg
   xmlns:dc="http://purl.org/dc/elements/1.1/"
   xmlns:cc="http://creativecommons.org/ns#"
   xmlns:rdf="http://www.w3.org/1999/02/22-rdf-syntax-ns#"
   xmlns:svg="http://www.w3.org/2000/svg"
   xmlns="http://www.w3.org/2000/svg"
   version="1.1"
   id="svg28"
   xml:space="preserve"
   width="200"
   height="200"
   viewBox="0 0 200 200"><metadata
     id="metadata34"><rdf:RDF><cc:Work
         rdf:about=""><dc:format>image/svg+xml</dc:format><dc:type
           rdf:resource="http://purl.org/dc/dcmitype/StillImage" /><dc:title></dc:title></cc:Work></rdf:RDF></metadata><defs
     id="defs32"><clipPath
       clipPathUnits="userSpaceOnUse"
       id="clipPath44"><path
         d="M 0,150 H 150 V 0 H 0 Z"
         id="path42" /></clipPath></defs><g
     id="g36"
     transform="matrix(1.3333333,0,0,-1.3333333,0,200)"><g
       id="g38"><g
         id="g40"
         clip-path="url(#clipPath44)"><g
           id="g46"
           transform="translate(67.0889,15.8076)"><path
             d="m 0,0 c 0.872,0.651 1.74,1.301 2.602,1.946 3.67,2.75 7.466,5.593 11.326,8.325 l 0.237,0.164 c 1.191,0.794 1.875,2.173 1.784,3.602 l -0.02,0.318 v 0.32 c 0,3.262 0.018,6.523 0.037,9.785 0.036,6.299 0.073,12.811 -0.034,19.162 -0.2,6.957 2.6,13.634 7.694,18.367 6.453,6.372 12.978,12.914 19.289,19.243 6.379,6.395 12.975,13.01 19.523,19.475 l 0.164,0.157 c 2.369,2.235 3.676,5.386 3.588,8.643 l -0.003,0.136 v 11.732 c -0.011,1.345 -0.205,2.126 -0.33,2.45 -0.317,0.117 -1.078,0.296 -2.378,0.296 H 8.154 l -55.797,0.071 c -1.366,-0.004 -2.121,-0.171 -2.468,-0.28 -0.099,-0.331 -0.243,-1.027 -0.243,-2.26 0,-1.268 0.016,-2.542 0.032,-3.821 0.032,-2.734 0.066,-5.56 -0.04,-8.53 -0.133,-3.069 1.092,-6.019 3.36,-8.093 l 0.141,-0.128 0.135,-0.134 C -40.418,94.72 -34.071,88.353 -27.935,82.195 -21.522,75.762 -14.893,69.111 -8.324,62.638 -2.842,57.492 0.185,50.26 0,42.743 Z m 8.167,134.121 h 55.312 c 8.369,0 12.636,-4.268 12.708,-12.66 V 109.779 C 76.353,103.671 73.907,97.783 69.464,93.59 56.422,80.716 43.571,67.626 30.53,54.752 27.479,51.967 25.797,47.986 25.929,43.856 c 0.167,-9.727 0,-19.454 0,-29.181 C 26.248,9.676 23.876,4.886 19.706,2.11 12.029,-3.326 4.638,-9.19 -3.015,-14.579 c -1.447,-0.98 -3.202,-1.395 -4.935,-1.168 -2.384,0.381 -2.05,2.718 -2.05,4.554 v 54.072 c 0.147,4.742 -1.766,9.316 -5.246,12.541 -12.921,12.731 -25.606,25.677 -38.504,38.409 -4.444,4.063 -6.862,9.885 -6.604,15.902 0.143,3.981 0,7.987 0,11.921 0,8.416 4.149,12.516 12.684,12.54 z"
             style="fill:#42538d;fill-opacity:1;fill-rule:nonzero;stroke:none"
             id="path48" /></g></g></g></g></svg>
