<?xml version="1.0" encoding="UTF-8" standalone="no"?>
<svg
   xmlns:dc="http://purl.org/dc/elements/1.1/"
   xmlns:cc="http://creativecommons.org/ns#"
   xmlns:rdf="http://www.w3.org/1999/02/22-rdf-syntax-ns#"
   xmlns:svg="http://www.w3.org/2000/svg"
   xmlns="http://www.w3.org/2000/svg"
   version="1.1"
   id="svg3452"
   xml:space="preserve"
   width="200"
   height="200"
   viewBox="0 0 200 200"><metadata
     id="metadata3458"><rdf:RDF><cc:Work
         rdf:about=""><dc:format>image/svg+xml</dc:format><dc:type
           rdf:resource="http://purl.org/dc/dcmitype/StillImage" /><dc:title></dc:title></cc:Work></rdf:RDF></metadata><defs
     id="defs3456"><clipPath
       clipPathUnits="userSpaceOnUse"
       id="clipPath3468"><path
         d="M 0,150 H 150 V 0 H 0 Z"
         id="path3466" /></clipPath></defs><g
     id="g3460"
     transform="matrix(1.3333333,0,0,-1.3333333,0,200)"><g
       id="g3462"><g
         id="g3464"
         clip-path="url(#clipPath3468)"><g
           id="g3470"
           transform="translate(7.9019,70.1104)"><path
             d="m 0,0 v 9.713 c 0,1.006 0.819,1.825 1.825,1.825 1.008,0 1.828,-0.819 1.828,-1.825 V 0 c 0,-1.007 -0.82,-1.827 -1.828,-1.827 C 0.819,-1.827 0,-1.007 0,0 m 13.666,32.092 c 0,1.434 1.167,2.602 2.601,2.602 1.435,0 2.602,-1.168 2.602,-2.602 v -54.051 c 0,-1.433 -1.167,-2.599 -2.602,-2.599 -1.434,0 -2.601,1.166 -2.601,2.599 z m 17.32,-61.38 v 68.357 c 0,1.434 1.168,2.601 2.603,2.601 1.434,0 2.6,-1.167 2.6,-2.601 v -68.357 c 0,-1.435 -1.166,-2.602 -2.6,-2.602 -1.435,0 -2.603,1.167 -2.603,2.602 M 87.992,8.588 V 1.753 c 0,-1.047 -0.852,-1.898 -1.899,-1.898 H 48.102 c -1.047,0 -1.899,0.851 -1.899,1.898 v 6.835 c 0,1.047 0.852,1.899 1.899,1.899 h 37.991 c 1.047,0 1.899,-0.852 1.899,-1.899 m 10.014,30.481 c 0,1.434 1.167,2.601 2.601,2.601 1.435,0 2.601,-1.167 2.601,-2.601 v -68.357 c 0,-1.435 -1.166,-2.602 -2.601,-2.602 -1.434,0 -2.601,1.167 -2.601,2.602 z m 17.32,-6.977 c 0,1.434 1.168,2.602 2.602,2.602 1.435,0 2.602,-1.168 2.602,-2.602 v -54.051 c 0,-1.433 -1.167,-2.599 -2.602,-2.599 -1.434,0 -2.602,1.166 -2.602,2.599 z M 130.542,9.713 c 0,1.006 0.82,1.825 1.828,1.825 1.006,0 1.825,-0.819 1.825,-1.825 V 0 c 0,-1.007 -0.819,-1.827 -1.825,-1.827 -1.008,0 -1.828,0.82 -1.828,1.827 z m 1.482,12.541 c -0.858,0.175 -1.482,0.979 -1.482,1.912 v 7.926 c 0,6.957 -5.659,12.616 -12.614,12.616 -1.312,0 -2.608,-0.203 -3.851,-0.605 -0.204,-0.066 -0.414,-0.101 -0.626,-0.101 -0.73,0 -1.399,0.4 -1.744,1.043 -2.206,4.095 -6.458,6.639 -11.098,6.639 -0.323,0 -0.648,-0.011 -0.979,-0.036 C 93.104,51.152 87.992,45.474 87.992,38.72 V 20.396 H 46.203 V 38.72 c 0,6.755 -5.113,12.433 -11.64,12.928 -0.329,0.025 -0.653,0.036 -0.976,0.036 -4.639,0 -8.892,-2.545 -11.099,-6.641 -0.345,-0.642 -1.013,-1.041 -1.743,-1.041 -0.213,0 -0.421,0.034 -0.621,0.099 -1.247,0.403 -2.544,0.607 -3.857,0.607 -6.955,0 -12.614,-5.659 -12.614,-12.616 V 24.166 C 3.653,23.232 3.029,22.428 2.169,22.254 -3.667,21.058 -7.902,15.86 -7.902,9.895 V -0.738 c 0,-5.9 4.178,-11.084 9.935,-12.328 0.939,-0.205 1.62,-1.078 1.62,-2.075 v -6.818 c 0,-6.956 5.659,-12.614 12.614,-12.614 1.196,0 2.384,0.171 3.533,0.508 0.221,0.065 0.447,0.098 0.67,0.098 0.821,0 1.567,-0.451 1.947,-1.178 2.189,-4.169 6.471,-6.759 11.173,-6.759 0.277,0 0.555,0.008 0.846,0.026 6.598,0.436 11.767,6.123 11.767,12.948 v 18.667 H 87.992 V -28.93 c 0,-6.825 5.173,-12.512 11.775,-12.948 0.282,-0.018 0.562,-0.026 0.838,-0.026 4.702,0 8.984,2.591 11.175,6.762 0.379,0.725 1.125,1.175 1.946,1.175 0.223,0 0.446,-0.033 0.667,-0.097 1.15,-0.337 2.341,-0.509 3.535,-0.509 6.955,0 12.614,5.658 12.614,12.614 v 6.818 c 0,0.997 0.681,1.87 1.62,2.075 5.757,1.244 9.936,6.428 9.936,12.328 V 9.895 c 0,5.965 -4.236,11.163 -10.074,12.359"
             style="fill:#42538d;fill-opacity:1;fill-rule:nonzero;stroke:none"
             id="path3472" /></g></g></g></g></svg>
