<?xml version="1.0" encoding="UTF-8" standalone="no"?>
<svg
   xmlns:dc="http://purl.org/dc/elements/1.1/"
   xmlns:cc="http://creativecommons.org/ns#"
   xmlns:rdf="http://www.w3.org/1999/02/22-rdf-syntax-ns#"
   xmlns:svg="http://www.w3.org/2000/svg"
   xmlns="http://www.w3.org/2000/svg"
   version="1.1"
   id="svg2784"
   xml:space="preserve"
   width="200"
   height="200"
   viewBox="0 0 200 200"><metadata
     id="metadata2790"><rdf:RDF><cc:Work
         rdf:about=""><dc:format>image/svg+xml</dc:format><dc:type
           rdf:resource="http://purl.org/dc/dcmitype/StillImage" /><dc:title></dc:title></cc:Work></rdf:RDF></metadata><defs
     id="defs2788"><clipPath
       clipPathUnits="userSpaceOnUse"
       id="clipPath2800"><path
         d="M 0,150 H 150 V 0 H 0 Z"
         id="path2798" /></clipPath></defs><g
     id="g2792"
     transform="matrix(1.3333333,0,0,-1.3333333,0,200)"><g
       id="g2794"><g
         id="g2796"
         clip-path="url(#clipPath2800)"><g
           id="g2802"
           transform="translate(88.1357,69.1055)"><path
             d="m 0,0 c 1.851,0 3.356,-1.506 3.356,-3.356 v -52.833 h 25.461 c 5.172,0 9.38,4.209 9.38,9.38 V 26.046 L -2.627,60.702 c -2.213,1.878 -5.031,2.912 -7.934,2.912 -2.796,0 -5.533,-0.967 -7.708,-2.726 L -64.215,23.744 v -70.553 c 0,-5.171 4.208,-9.38 9.38,-9.38 h 27.877 v 52.833 c 0,1.85 1.506,3.356 3.357,3.356 z m -63.246,-68.435 c -8.457,0 -14.595,5.561 -14.595,13.223 V 9.523 l 0.107,2.735 -1.972,-0.482 c -0.53,-0.13 -1.077,-0.195 -1.624,-0.195 -2.069,0 -3.999,0.919 -5.295,2.524 -2.361,2.922 -1.904,7.221 1.019,9.581 l 65.19,52.982 c 2.834,2.291 6.406,3.555 10.055,3.555 3.792,0 7.472,-1.353 10.362,-3.808 l 27,-22.948 v 11.395 c 0,2.059 1.675,3.734 3.733,3.734 H 48.09 c 2.058,0 3.733,-1.675 3.733,-3.734 V 32.356 l 7.679,-6.369 c 1.364,-1.168 2.202,-2.819 2.342,-4.633 0.14,-1.815 -0.435,-3.576 -1.618,-4.958 -1.296,-1.512 -3.183,-2.379 -5.177,-2.379 -0.465,0 -0.932,0.048 -1.385,0.142 l -1.841,0.38 v -69.751 c 0,-7.662 -6.143,-13.223 -14.608,-13.223 z"
             style="fill:#42538d;fill-opacity:1;fill-rule:nonzero;stroke:none"
             id="path2804" /></g></g></g></g></svg>
