<?xml version="1.0" encoding="UTF-8" standalone="no"?>
<svg
   xmlns:dc="http://purl.org/dc/elements/1.1/"
   xmlns:cc="http://creativecommons.org/ns#"
   xmlns:rdf="http://www.w3.org/1999/02/22-rdf-syntax-ns#"
   xmlns:svg="http://www.w3.org/2000/svg"
   xmlns="http://www.w3.org/2000/svg"
   version="1.1"
   id="svg2722"
   xml:space="preserve"
   width="200"
   height="200"
   viewBox="0 0 200 200"><metadata
     id="metadata2728"><rdf:RDF><cc:Work
         rdf:about=""><dc:format>image/svg+xml</dc:format><dc:type
           rdf:resource="http://purl.org/dc/dcmitype/StillImage" /><dc:title></dc:title></cc:Work></rdf:RDF></metadata><defs
     id="defs2726"><clipPath
       clipPathUnits="userSpaceOnUse"
       id="clipPath2738"><path
         d="M 0,150 H 150 V 0 H 0 Z"
         id="path2736" /></clipPath></defs><g
     id="g2730"
     transform="matrix(1.3333333,0,0,-1.3333333,0,200)"><g
       id="g2732"><g
         id="g2734"
         clip-path="url(#clipPath2738)"><g
           id="g2740"
           transform="translate(39.7544,66.4619)"><path
             d="m 0,0 10.263,29.334 17.86,-51.974 c 0.106,-0.262 0.239,-0.513 0.397,-0.749 l 0.11,-0.132 c 0.16,-0.185 0.336,-0.355 0.528,-0.506 h 0.111 c 0.193,-0.132 0.399,-0.243 0.616,-0.33 0.332,-0.122 0.682,-0.188 1.035,-0.199 0.324,0.001 0.644,0.061 0.947,0.176 0.231,0.088 0.452,0.198 0.661,0.331 h 0.132 c 0.196,0.13 0.374,0.285 0.528,0.462 0.169,0.217 0.309,0.453 0.419,0.705 l 14.314,36.602 6.41,-14.116 c 0.506,-1.101 1.607,-1.806 2.819,-1.806 h 17.001 c 1.709,0.143 2.977,1.646 2.833,3.355 -0.127,1.508 -1.324,2.705 -2.833,2.832 h -14.69 l -8.61,18.94 c -0.671,1.553 -2.473,2.267 -4.024,1.596 -0.769,-0.332 -1.369,-0.964 -1.658,-1.75 L 31.25,-12.663 13.214,39.773 v 0.154 c -0.043,0.107 -0.094,0.21 -0.154,0.308 l -0.132,0.243 -0.199,0.242 c -0.047,0.089 -0.115,0.164 -0.198,0.22 -0.062,0.084 -0.136,0.159 -0.22,0.22 l -0.242,0.176 -0.243,0.155 -0.286,0.132 h -0.154 -0.33 -0.287 -0.705 -0.286 -0.33 c -0.051,0.012 -0.104,0.012 -0.154,0 L 8.985,41.491 C 8.897,41.453 8.815,41.4 8.743,41.336 L 8.501,41.16 8.281,40.962 8.061,40.742 7.884,40.5 7.73,40.257 7.598,39.949 V 39.795 L -4.889,4.118 H -36.91 c -1.709,-0.144 -2.978,-1.646 -2.833,-3.355 0.127,-1.509 1.324,-2.706 2.833,-2.833 H -2.929 C -1.612,-2.071 -0.439,-1.241 0,0"
             style="fill:#42538d;fill-opacity:1;fill-rule:nonzero;stroke:none"
             id="path2742" /></g><g
           id="g2744"
           transform="translate(149.7412,97.1328)"><path
             d="m 0,0 c -2.16,21.727 -16.083,36.081 -28.959,40.683 -16.142,5.713 -30.458,-1.851 -40.33,-11.269 -4.808,4.921 -11.917,9.751 -22.3,12.35 l -0.765,0.167 c -7.889,1.494 -15.923,0.525 -23.231,-2.801 l -0.683,-0.334 c -13.899,-7.299 -22.201,-19.039 -24.016,-34.025 -0.477,-4.126 -0.459,-8.249 0.05,-12.325 0.505,-4.045 4.553,-6.659 8.48,-5.564 3.208,0.895 5.273,3.998 4.868,7.304 -0.366,2.995 -0.378,6.03 -0.03,9.041 1.269,10.481 6.942,18.424 16.904,23.655 4.742,2.158 10.036,2.796 15.155,1.827 17.905,-4.481 21.79,-17.674 21.943,-18.231 0.454,-1.428 1.979,-2.216 3.406,-1.763 0.591,0.188 1.099,0.573 1.441,1.09 0.154,0.25 15.385,25.001 34.617,18.193 8.558,-3.058 18.481,-13.462 20.058,-29.329 1.385,-14.039 -3.422,-41.848 -51.348,-70.638 -3,-1.807 -6.71,-1.981 -9.866,-0.462 -10.336,4.797 -23.847,15.672 -32.27,24.249 -2.482,2.527 -6.52,2.637 -9.185,0.304 -2.927,-2.564 -3.051,-7.049 -0.318,-9.82 9.522,-9.656 24.374,-21.482 36.038,-26.906 3.262,-1.551 6.763,-2.322 10.252,-2.322 4.26,0 8.503,1.148 12.278,3.421 C -3.561,-50.914 1.695,-17.204 0,0"
             style="fill:#42538d;fill-opacity:1;fill-rule:nonzero;stroke:none"
             id="path2746" /></g></g></g></g></svg>
