<?xml version="1.0" encoding="UTF-8" standalone="no"?>
<svg
   xmlns:dc="http://purl.org/dc/elements/1.1/"
   xmlns:cc="http://creativecommons.org/ns#"
   xmlns:rdf="http://www.w3.org/1999/02/22-rdf-syntax-ns#"
   xmlns:svg="http://www.w3.org/2000/svg"
   xmlns="http://www.w3.org/2000/svg"
   version="1.1"
   id="svg3540"
   xml:space="preserve"
   width="200"
   height="200"
   viewBox="0 0 200 200"><metadata
     id="metadata3546"><rdf:RDF><cc:Work
         rdf:about=""><dc:format>image/svg+xml</dc:format><dc:type
           rdf:resource="http://purl.org/dc/dcmitype/StillImage" /><dc:title></dc:title></cc:Work></rdf:RDF></metadata><defs
     id="defs3544"><clipPath
       clipPathUnits="userSpaceOnUse"
       id="clipPath3556"><path
         d="M 0,150 H 150 V 0 H 0 Z"
         id="path3554" /></clipPath></defs><g
     id="g3548"
     transform="matrix(1.3333333,0,0,-1.3333333,0,200)"><g
       id="g3550"><g
         id="g3552"
         clip-path="url(#clipPath3556)"><g
           id="g3558"
           transform="translate(59.2881,30.5508)"><path
             d="m 0,0 h 81.218 c 1.023,-3.893 -0.702,-10.768 -3.032,-11.991 -1.689,-0.742 -3.394,-0.804 -5.138,-0.804 l -78.31,-0.037 C -1.251,-9.543 0.27,-4.127 0,0 m -21.256,-4.047 c -3.009,6.34 -3.208,13.966 -3.401,21.342 -0.051,1.929 -0.098,3.749 -0.196,5.572 -0.411,7.659 -0.304,15.467 -0.2,23.033 0.038,2.778 0.076,5.557 0.091,8.334 0.067,13.461 -0.149,19.288 -1.705,31.951 -0.458,3.722 -1.302,10.588 -3.328,15.544 l 77.997,0.005 c 0.028,0.003 0.124,0.011 0.276,0.011 0.839,0 3.017,-0.232 5.093,-2.377 2.254,-2.325 4.861,-7.506 4.494,-18.996 0.093,-1.594 0.106,-8.371 0.121,-16.948 V 63.273 C 58.061,22.475 58.458,12.335 59.166,9.176 L -6.729,9.178 c -1.135,0 -1.941,-0.289 -2.463,-0.885 -0.563,-0.64 -0.743,-1.564 -0.567,-2.908 0.264,-1.783 0.353,-3.618 0.265,-5.471 0.065,-2.051 -0.826,-4.816 -2.369,-5.703 -1.798,-0.906 -3.416,-1.366 -4.811,-1.366 -2.062,0 -3.604,1.046 -4.582,3.108 m -19.803,99.489 h -10.467 c -0.128,0 -0.211,0.008 -0.263,0.016 -10e-4,0.029 0,0.066 0.003,0.115 -0.004,1.566 0.112,3.135 0.343,4.651 0.465,2.062 2.293,3.602 4.471,3.749 0.32,0.064 0.647,0.097 0.972,0.097 1.87,0 3.563,-1.041 4.421,-2.723 1.02,-1.855 1.782,-3.837 2.265,-5.894 z M 90.336,5.14 c -0.44,2.319 -1.344,3.064 -3.718,3.064 H 68.882 c -0.136,2.377 -0.295,4.351 -0.451,6.287 -0.247,3.05 -0.481,5.931 -0.541,9.814 -0.078,6.307 -0.052,12.633 -0.026,18.751 0.013,3.129 0.026,6.259 0.026,9.391 v 10.775 c 0,1.342 0.042,2.965 0.09,4.86 0.297,11.481 0.794,30.696 -7.238,38.939 -2.562,2.629 -5.826,3.962 -9.699,3.962 -0.3,0 -0.605,-0.007 -0.878,-0.023 h -94.594 c -1.037,0 -2.017,0 -3.026,-0.119 -5.634,-0.168 -10.414,-4.316 -11.364,-9.856 -0.625,-3.096 -0.625,-6.233 -0.003,-9.318 0.413,-2.296 1.347,-3.071 3.699,-3.071 h 17.574 c 0.777,0 0.778,-0.012 0.819,-0.606 0.016,-0.244 1.555,-24.736 1.638,-34.519 0.006,-4.305 -0.011,-8.611 -0.028,-12.915 l -0.001,-0.258 c -0.015,-3.76 -0.029,-7.52 -0.029,-11.277 l 0.004,-4.471 c -0.035,-0.328 -0.036,-0.666 -0.004,-0.929 0.021,-5.204 0.314,-15.301 0.873,-20.443 0.792,-7.25 3.584,-13.478 8.3,-18.508 3.429,-3.656 7.868,-5.773 12.839,-6.12 5.779,-0.404 10.154,-0.584 14.184,-0.584 h 0.207 c 4.869,0.008 9.739,0.011 14.609,0.011 9.575,-0.001 19.152,-0.015 28.726,-0.03 l 9.183,-0.013 c 7.28,-0.011 14.558,-0.019 21.835,-0.019 h 2.676 c 6.072,0.05 10.72,9.658 11.748,14.541 0.764,3.068 0.915,9.35 0.306,12.684"
             style="fill:#42538d;fill-opacity:1;fill-rule:nonzero;stroke:none"
             id="path3560" /></g><g
           id="g3562"
           transform="translate(75.7324,109.0293)"><path
             d="m 0,0 h -29.209 c -1.413,0 -2.558,1.145 -2.558,2.558 0,1.412 1.145,2.557 2.558,2.557 H 0 C 1.412,5.115 2.558,3.97 2.558,2.558 2.558,1.145 1.412,0 0,0"
             style="fill:#42538d;fill-opacity:1;fill-rule:nonzero;stroke:none"
             id="path3564" /></g><g
           id="g3566"
           transform="translate(75.7324,84.7686)"><path
             d="m 0,0 h -29.209 c -1.413,0 -2.558,1.145 -2.558,2.558 0,1.412 1.145,2.557 2.558,2.557 H 0 C 1.412,5.115 2.558,3.97 2.558,2.558 2.558,1.145 1.412,0 0,0"
             style="fill:#42538d;fill-opacity:1;fill-rule:nonzero;stroke:none"
             id="path3568" /></g><g
           id="g3570"
           transform="translate(75.7324,60.5078)"><path
             d="m 0,0 h -29.209 c -1.413,0 -2.558,1.145 -2.558,2.558 0,1.412 1.145,2.557 2.558,2.557 H 0 C 1.412,5.115 2.558,3.97 2.558,2.558 2.558,1.145 1.412,0 0,0"
             style="fill:#42538d;fill-opacity:1;fill-rule:nonzero;stroke:none"
             id="path3572" /></g><g
           id="g3574"
           transform="translate(96.377,118.1772)"><path
             d="m 0,0 c -3.823,0 -6.934,-3.11 -6.934,-6.934 0,-3.823 3.111,-6.933 6.934,-6.933 3.823,0 6.935,3.11 6.935,6.933 C 6.935,-3.11 3.823,0 0,0 m 0,-16.012 c -5.005,0 -9.077,4.073 -9.077,9.078 0,5.006 4.072,9.079 9.077,9.079 5.006,0 9.078,-4.073 9.078,-9.079 0,-5.005 -4.072,-9.078 -9.078,-9.078"
             style="fill:#42538d;fill-opacity:1;fill-rule:nonzero;stroke:none"
             id="path3576" /></g><g
           id="g3578"
           transform="translate(95.0771,107.5415)"><path
             d="m 0,0 c -0.288,0 -0.559,0.112 -0.763,0.316 l -0.34,0.34 -1.699,1.645 c -0.401,0.402 -0.407,1.061 -0.005,1.463 0.195,0.194 0.453,0.301 0.729,0.301 0.274,0 0.533,-0.107 0.727,-0.301 L -0.005,2.462 3.95,6.417 C 4.146,6.611 4.403,6.719 4.679,6.719 4.954,6.719 5.213,6.611 5.407,6.417 5.81,6.016 5.81,5.361 5.407,4.96 L 0.764,0.316 C 0.56,0.112 0.289,0 0,0"
             style="fill:#42538d;fill-opacity:1;fill-rule:nonzero;stroke:none"
             id="path3580" /></g><g
           id="g3582"
           transform="translate(96.377,69.4521)"><path
             d="m 0,0 c -3.823,0 -6.934,-3.111 -6.934,-6.935 0,-3.823 3.111,-6.933 6.934,-6.933 3.823,0 6.935,3.11 6.935,6.933 C 6.935,-3.111 3.823,0 0,0 m 0,-16.012 c -5.005,0 -9.077,4.073 -9.077,9.077 0,5.006 4.072,9.079 9.077,9.079 5.006,0 9.078,-4.073 9.078,-9.079 0,-5.004 -4.072,-9.077 -9.078,-9.077"
             style="fill:#42538d;fill-opacity:1;fill-rule:nonzero;stroke:none"
             id="path3584" /></g><g
           id="g3586"
           transform="translate(95.0771,58.8154)"><path
             d="m 0,0 c -0.288,0 -0.559,0.112 -0.763,0.316 l -0.34,0.34 -1.699,1.645 c -0.401,0.402 -0.407,1.061 -0.005,1.463 0.195,0.194 0.453,0.301 0.729,0.301 0.274,0 0.533,-0.107 0.727,-0.301 L -0.005,2.462 3.95,6.417 C 4.146,6.611 4.403,6.719 4.679,6.719 4.954,6.719 5.213,6.611 5.407,6.417 5.81,6.016 5.81,5.361 5.407,4.96 L 0.764,0.316 C 0.56,0.112 0.289,0 0,0"
             style="fill:#42538d;fill-opacity:1;fill-rule:nonzero;stroke:none"
             id="path3588" /></g><g
           id="g3590"
           transform="translate(96.377,118.0269)"><path
             d="m 0,0 c 3.741,0 6.784,-3.043 6.784,-6.783 0,-3.74 -3.043,-6.783 -6.784,-6.783 -3.74,0 -6.783,3.043 -6.783,6.783 C -6.783,-3.043 -3.74,0 0,0 m 0,-16.012 c 5.089,0 9.229,4.14 9.229,9.229 0,5.089 -4.14,9.228 -9.229,9.228 -5.088,0 -9.228,-4.139 -9.228,-9.228 0,-5.089 4.14,-9.229 9.228,-9.229"
             style="fill:#42538d;fill-opacity:1;fill-rule:nonzero;stroke:none"
             id="path3592" /></g><g
           id="g3594"
           transform="translate(93.8682,108.0913)"><path
             d="M 0,0 0.341,-0.339 C 0.572,-0.572 0.881,-0.7 1.209,-0.7 c 0.329,0 0.638,0.128 0.87,0.36 L 6.723,4.304 C 6.945,4.526 7.067,4.823 7.067,5.139 7.067,5.454 6.945,5.751 6.723,5.974 6.499,6.196 6.203,6.319 5.888,6.319 5.573,6.319 5.277,6.196 5.054,5.974 L 1.202,2.122 -0.035,3.32 C -0.259,3.543 -0.555,3.666 -0.869,3.666 -1.185,3.666 -1.48,3.543 -1.704,3.32 -1.927,3.098 -2.048,2.8 -2.047,2.482 -2.045,2.165 -1.922,1.868 -1.697,1.644 Z"
             style="fill:#42538d;fill-opacity:1;fill-rule:nonzero;stroke:none"
             id="path3596" /></g><g
           id="g3598"
           transform="translate(96.377,55.7344)"><path
             d="m 0,0 c -3.74,0 -6.783,3.043 -6.783,6.783 0,3.741 3.043,6.784 6.783,6.784 3.741,0 6.784,-3.043 6.784,-6.784 C 6.784,3.043 3.741,0 0,0 m 0,16.012 c -5.088,0 -9.228,-4.14 -9.228,-9.229 0,-5.088 4.14,-9.227 9.228,-9.227 5.089,0 9.229,4.139 9.229,9.227 0,5.089 -4.14,9.229 -9.229,9.229"
             style="fill:#42538d;fill-opacity:1;fill-rule:nonzero;stroke:none"
             id="path3600" /></g><g
           id="g3602"
           transform="translate(99.7559,65.6846)"><path
             d="m 0,0 c -0.314,0 -0.61,-0.123 -0.834,-0.346 l -3.852,-3.851 -1.237,1.198 c -0.223,0.223 -0.519,0.346 -0.834,0.346 -0.315,0 -0.611,-0.123 -0.835,-0.346 -0.222,-0.223 -0.344,-0.521 -0.343,-0.838 0.002,-0.317 0.125,-0.614 0.35,-0.839 l 1.697,-1.643 0.341,-0.339 c 0.232,-0.234 0.54,-0.362 0.868,-0.362 0.329,0 0.638,0.128 0.87,0.361 l 4.644,4.643 c 0.223,0.223 0.345,0.52 0.345,0.835 0,0.316 -0.122,0.613 -0.345,0.835 C 0.611,-0.123 0.315,0 0,0"
             style="fill:#42538d;fill-opacity:1;fill-rule:nonzero;stroke:none"
             id="path3604" /></g><g
           id="g3606"
           transform="translate(96.377,80.0972)"><path
             d="m 0,0 c -3.74,0 -6.783,3.043 -6.783,6.783 0,3.741 3.043,6.784 6.783,6.784 3.741,0 6.784,-3.043 6.784,-6.784 C 6.784,3.043 3.741,0 0,0 m 0,16.012 c -5.088,0 -9.228,-4.14 -9.228,-9.229 0,-5.088 4.14,-9.227 9.228,-9.227 5.089,0 9.229,4.139 9.229,9.227 0,5.089 -4.14,9.229 -9.229,9.229"
             style="fill:#42538d;fill-opacity:1;fill-rule:nonzero;stroke:none"
             id="path3608" /></g><g
           id="g3610"
           transform="translate(99.7559,90.0474)"><path
             d="m 0,0 c -0.314,0 -0.61,-0.123 -0.834,-0.346 l -3.852,-3.851 -1.237,1.198 c -0.223,0.223 -0.519,0.346 -0.834,0.346 -0.315,0 -0.611,-0.123 -0.835,-0.346 -0.222,-0.223 -0.344,-0.521 -0.343,-0.838 0.002,-0.317 0.125,-0.614 0.35,-0.839 l 1.697,-1.643 0.341,-0.339 c 0.232,-0.234 0.54,-0.362 0.868,-0.362 0.329,0 0.638,0.128 0.87,0.361 l 4.644,4.643 c 0.223,0.223 0.345,0.52 0.345,0.835 0,0.316 -0.122,0.613 -0.345,0.835 C 0.611,-0.123 0.315,0 0,0"
             style="fill:#42538d;fill-opacity:1;fill-rule:nonzero;stroke:none"
             id="path3612" /></g></g></g></g></svg>
