<?xml version="1.0" encoding="UTF-8" standalone="no"?>
<svg
   xmlns:dc="http://purl.org/dc/elements/1.1/"
   xmlns:cc="http://creativecommons.org/ns#"
   xmlns:rdf="http://www.w3.org/1999/02/22-rdf-syntax-ns#"
   xmlns:svg="http://www.w3.org/2000/svg"
   xmlns="http://www.w3.org/2000/svg"
   version="1.1"
   id="svg3752"
   xml:space="preserve"
   width="200"
   height="200"
   viewBox="0 0 200 200"><metadata
     id="metadata3758"><rdf:RDF><cc:Work
         rdf:about=""><dc:format>image/svg+xml</dc:format><dc:type
           rdf:resource="http://purl.org/dc/dcmitype/StillImage" /><dc:title></dc:title></cc:Work></rdf:RDF></metadata><defs
     id="defs3756"><clipPath
       clipPathUnits="userSpaceOnUse"
       id="clipPath3768"><path
         d="M 0,150 H 150 V 0 H 0 Z"
         id="path3766" /></clipPath></defs><g
     id="g3760"
     transform="matrix(1.3333333,0,0,-1.3333333,0,200)"><g
       id="g3762"><g
         id="g3764"
         clip-path="url(#clipPath3768)"><g
           id="g3770"
           transform="translate(78.2197,14.2422)"><path
             d="m 0,0 c -11.614,-0.396 -22.598,2.257 -32.128,7.204 -2.442,1.268 -5.289,1.548 -7.9,0.662 L -59.235,1.349 c -1.041,-0.353 -2.237,-0.111 -3.072,0.739 -0.74,0.753 -0.945,1.876 -0.639,2.879 l 5.832,19.138 c 0.785,2.576 0.525,5.374 -0.825,7.712 -5.382,9.325 -8.389,19.9 -8.389,31.126 0,34.757 28.721,62.982 64.054,62.982 35.573,0 64.42,-28.588 64.05,-63.649 C 61.424,28.821 34.005,1.16 0,0 m 1.756,135.652 c -42.655,2.235 -78.084,-31.246 -78.084,-72.709 0,-10.674 2.39,-21.156 6.976,-30.804 0.959,-2.02 1.141,-4.312 0.491,-6.447 l -3.742,-12.278 -5.402,-19.998 c -1.26,-4.665 3.24,-8.848 7.906,-7.349 l 16.765,5.388 c 1.089,0.154 2.163,0.399 3.209,0.754 l 11.972,4.062 c 2.183,0.742 4.563,0.632 6.686,-0.263 9.168,-3.866 19.091,-5.879 29.193,-5.879 42.168,0 76.217,34.833 73.947,76.773 -1.998,36.916 -32.373,66.784 -69.917,68.75"
             style="fill:#42538d;fill-opacity:1;fill-rule:evenodd;stroke:none"
             id="path3772" /></g></g></g></g></svg>
