<?xml version="1.0" encoding="UTF-8" standalone="no"?>
<svg
   xmlns:dc="http://purl.org/dc/elements/1.1/"
   xmlns:cc="http://creativecommons.org/ns#"
   xmlns:rdf="http://www.w3.org/1999/02/22-rdf-syntax-ns#"
   xmlns:svg="http://www.w3.org/2000/svg"
   xmlns="http://www.w3.org/2000/svg"
   version="1.1"
   id="svg130"
   xml:space="preserve"
   width="200"
   height="200"
   viewBox="0 0 200 200"><metadata
     id="metadata136"><rdf:RDF><cc:Work
         rdf:about=""><dc:format>image/svg+xml</dc:format><dc:type
           rdf:resource="http://purl.org/dc/dcmitype/StillImage" /><dc:title></dc:title></cc:Work></rdf:RDF></metadata><defs
     id="defs134"><clipPath
       clipPathUnits="userSpaceOnUse"
       id="clipPath146"><path
         d="M 0,150 H 150 V 0 H 0 Z"
         id="path144" /></clipPath></defs><g
     id="g138"
     transform="matrix(1.3333333,0,0,-1.3333333,0,200)"><g
       id="g140"><g
         id="g142"
         clip-path="url(#clipPath146)"><g
           id="g148"
           transform="translate(130.1738,108.7866)"><path
             d="m 0,0 v -89.243 c 0,-5.262 -4.281,-9.544 -9.544,-9.544 h -100.912 c -5.262,0 -9.544,4.282 -9.544,9.544 V 11.669 c 0,5.263 4.282,9.544 9.544,9.544 h 89.243 l 10,10 h -99.243 C -121.25,31.213 -130,22.463 -130,11.669 V -89.243 c 0,-10.794 8.75,-19.544 19.544,-19.544 H -9.544 c 10.794,0 19.544,8.75 19.544,19.544 L 10,10 Z"
             style="fill:#42538d;fill-opacity:1;fill-rule:nonzero;stroke:none"
             id="path150" /></g><g
           id="g152"
           transform="translate(131.8379,138.7344)"><path
             d="m 0,0 -67.538,-67.538 c -0.137,-0.137 -0.248,-0.298 -0.326,-0.476 l -4.788,-10.825 c -0.294,-0.664 0.392,-1.339 1.051,-1.033 l 10.673,4.938 c 0.168,0.078 0.321,0.185 0.451,0.316 L 7.071,-7.071 c 0.699,0.699 0.699,1.832 0,2.53 L 2.53,0 C 1.831,0.699 0.698,0.699 0,0"
             style="fill:#42538d;fill-opacity:1;fill-rule:nonzero;stroke:none"
             id="path154" /></g><g
           id="g156"
           transform="translate(139.2539,144.3467)"><path
             d="m 0,0 c -0.562,0.563 -0.564,1.475 -0.003,2.04 l 2.154,2.168 c 1.927,1.927 5.05,1.927 6.976,0 1.934,-1.933 1.926,-5.071 -0.02,-6.994 L 6.96,-4.923 C 6.396,-5.484 5.483,-5.483 4.92,-4.92 Z"
             style="fill:#42538d;fill-opacity:1;fill-rule:nonzero;stroke:none"
             id="path158" /></g></g></g></g></svg>
