<?xml version="1.0" encoding="UTF-8" standalone="no"?>
<svg
   xmlns:dc="http://purl.org/dc/elements/1.1/"
   xmlns:cc="http://creativecommons.org/ns#"
   xmlns:rdf="http://www.w3.org/1999/02/22-rdf-syntax-ns#"
   xmlns:svg="http://www.w3.org/2000/svg"
   xmlns="http://www.w3.org/2000/svg"
   version="1.1"
   id="svg116"
   xml:space="preserve"
   width="200"
   height="200"
   viewBox="0 0 200 200"><metadata
     id="metadata122"><rdf:RDF><cc:Work
         rdf:about=""><dc:format>image/svg+xml</dc:format><dc:type
           rdf:resource="http://purl.org/dc/dcmitype/StillImage" /><dc:title></dc:title></cc:Work></rdf:RDF></metadata><defs
     id="defs120"><clipPath
       clipPathUnits="userSpaceOnUse"
       id="clipPath132"><path
         d="M 0,150 H 150 V 0 H 0 Z"
         id="path130" /></clipPath></defs><g
     id="g124"
     transform="matrix(1.3333333,0,0,-1.3333333,0,200)"><g
       id="g126"><g
         id="g128"
         clip-path="url(#clipPath132)"><g
           id="g134"
           transform="translate(124.9609,71.2109)"><path
             d="m 0,0 c 0,-1.169 -0.947,-2.117 -2.116,-2.117 -1.169,0 -2.117,0.948 -2.117,2.117 v 7.119 c 0,1.169 0.948,2.117 2.117,2.117 C -0.947,9.236 0,8.288 0,7.119 Z m -10.018,-16.096 c 0,-1.479 -1.205,-2.684 -2.684,-2.684 -1.481,0 -2.685,1.205 -2.685,2.684 v 39.619 c 0,1.481 1.204,2.685 2.685,2.685 1.479,0 2.684,-1.204 2.684,-2.685 z m -12.695,-5.373 c 0,-1.48 -1.205,-2.684 -2.684,-2.684 -1.481,0 -2.686,1.204 -2.686,2.684 v 50.106 c 0,1.48 1.205,2.684 2.686,2.684 1.479,0 2.684,-1.204 2.684,-2.684 z m -13.323,20.584 h -27.613 c -1.198,0 -2.169,0.972 -2.169,2.17 v 5.009 c 0,1.199 0.971,2.17 2.169,2.17 h 27.613 c 1.198,0 2.169,-0.971 2.169,-2.17 V 1.285 c 0,-1.198 -0.971,-2.17 -2.169,-2.17 m -35.803,-20.174 c 0,-1.48 -1.205,-2.684 -2.685,-2.684 -1.48,0 -2.684,1.204 -2.684,2.684 v 50.106 c 0,1.48 1.204,2.684 2.684,2.684 1.48,0 2.685,-1.204 2.685,-2.684 z m -12.696,5.373 c 0,-1.479 -1.205,-2.684 -2.685,-2.684 -1.48,0 -2.684,1.205 -2.684,2.684 v 39.62 c 0,1.48 1.204,2.684 2.684,2.684 1.48,0 2.685,-1.204 2.685,-2.684 z M -95.689,0.41 c 0,-1.169 -0.948,-2.117 -2.117,-2.117 -1.169,0 -2.116,0.948 -2.116,2.117 v 7.119 c 0,1.169 0.947,2.117 2.116,2.117 1.169,0 2.117,-0.948 2.117,-2.117 z m 94.953,15.583 c -1.046,0.215 -1.772,1.178 -1.772,2.246 v 6.03 c 0,4.853 -3.934,8.788 -8.788,8.788 -0.936,0 -1.838,-0.148 -2.683,-0.422 -1.071,-0.346 -2.226,0.111 -2.76,1.102 -1.582,2.939 -4.783,4.875 -8.415,4.6 -4.624,-0.349 -8.106,-4.39 -8.106,-9.027 V 14.564 h -33.402 v 15.172 c 0,4.637 -3.482,8.678 -8.106,9.027 -3.631,0.275 -6.833,-1.661 -8.415,-4.6 -0.533,-0.992 -1.69,-1.449 -2.761,-1.102 -0.845,0.273 -1.745,0.422 -2.681,0.422 -4.854,0 -8.79,-3.935 -8.79,-8.789 v -6.029 c 0,-1.069 -0.724,-2.032 -1.771,-2.246 -4.004,-0.82 -7.017,-4.363 -7.017,-8.61 v -8.088 c 0,-4.213 2.964,-7.734 6.92,-8.59 1.101,-0.238 1.868,-1.239 1.868,-2.365 v -5.186 c 0,-4.854 3.936,-8.789 8.79,-8.789 0.855,0 1.681,0.124 2.461,0.355 1.156,0.34 2.371,-0.153 2.931,-1.219 1.553,-2.963 4.744,-4.93 8.373,-4.693 4.664,0.305 8.198,4.37 8.198,9.044 v 14.578 h 33.402 v -15.003 c 0,-4.674 3.534,-8.74 8.198,-9.044 3.628,-0.238 6.82,1.729 8.374,4.692 0.559,1.067 1.774,1.56 2.93,1.219 0.78,-0.23 1.606,-0.355 2.462,-0.355 4.854,0 8.788,3.936 8.788,8.789 v 5.186 c 0,1.126 0.769,2.127 1.869,2.365 3.956,0.857 6.92,4.377 6.92,8.59 v 8.088 c 0,4.247 -3.012,7.791 -7.017,8.61"
             style="fill:#42538d;fill-opacity:1;fill-rule:nonzero;stroke:none"
             id="path136" /></g></g></g></g></svg>
