<svg xmlns="http://www.w3.org/2000/svg" xmlns:xlink="http://www.w3.org/1999/xlink" width="400" height="400" viewBox="0 0 400 400">
  <defs>
    <clipPath id="clip-path">
      <path id="path188" d="M0-200H400V200H0Z" transform="translate(0 199.999)"/>
    </clipPath>
  </defs>
  <g id="g182" transform="translate(0 200)">
    <g id="g184" transform="translate(0 -200)">
      <g id="g186" clip-path="url(#clip-path)">
        <g id="g192" transform="translate(106.667 106.666)">
          <path id="path194" d="M82.07,21.318c-2.869-4.435-9-8.091-13.725-10.171.232.1.507,1.115.595,1.328a36.3,36.3,0,0,1,1.283,3.675,35.551,35.551,0,0,1,1.419,12.189A28.361,28.361,0,0,1,66.2,43.323a36.544,36.544,0,0,1-6.931,6.992c-2.36,1.843-5.323,4.36-8.528,3.973-2.5-.3.723-3.877,1.376-4.549,2.547-2.627,5.464-4.789,7.736-7.677a31.448,31.448,0,0,0,5.08-9.117A24.854,24.854,0,0,0,65.79,19.71C64.476,13.467,61.452,7.15,56,3.609A40.829,40.829,0,0,0,45.753-1.207C33.724-4.885,21.937-1,13.316,8a15.192,15.192,0,0,0-3.528,5.443c.109-.283,0,0,.243.011.915.037,1.827.128,2.739.216,1.691.165,3.384.437,5.08.539a47.466,47.466,0,0,0,10.829-.835c2.9-.5,5.837-2.488,8.875-1.8.08.021.163.04.243.064.539.155,1.68.467,1.547,1.237-.112.627-1.048,1.08-1.533,1.347a31.293,31.293,0,0,1-9.773,3.413,50.622,50.622,0,0,1-8.776.627c-9.8-.067-19.467-2.032-28.936-4.408-8.139-2.043-15.915-4.509-24.395-4.309-8.605.2-18.653,3.384-23.205,11.141-3.885,6.619-5.837,14.539-3.184,21.976,1.872,5.245,5.968,9.1,9.835,12.907,3.443,3.387,6.789,6.877,10.173,10.325,3.24,3.3,8.093,6.507,11.331,9.808.328.333,3.875,4.493,4.264,4.344a92.861,92.861,0,0,1,9.7-2.859,21.1,21.1,0,0,0-1.3-2.379c-2.245-3.443-4.789-6.848-7.32-10.147A44.732,44.732,0,0,1-30.036,54.8c-.9-2.165-3.259-8.051-1.592-10.24a1.213,1.213,0,0,1,1.747-.235,4.819,4.819,0,0,1,2.008,3.013c3.8,11.112,14.395,24.008,18.363,28.592,14.736-2.917,38.059-4.912,60.885,4.011-.515-.2,2.7-7.04,2.893-7.413,5.36-10.093,16.56-15.552,23.195-24.661C82.886,40.422,87.686,30,82.07,21.318M-25.818,94.846v32.221c13.147-7.341,28.24-8.347,40.075-8.4h.184a91.661,91.661,0,0,1,37.445,8.187v-26.7c0-8.875,0-8.875-8.544-11.672a14.448,14.448,0,0,0-1.528-.4,121.178,121.178,0,0,0-27.557-3.117A148.246,148.246,0,0,0-7.175,86.6a83.346,83.346,0,0,0-13.147,3.515l-3.525,1.136c-.971.317-1.971.872-1.944,3.592ZM12.11,128.283a60.231,60.231,0,0,0-7.072.336l-2.467.291a43.259,43.259,0,0,0-11.7,2.477,22.586,22.586,0,0,0-9.139,4.467,3.559,3.559,0,0,0-1.712,2.635,4.061,4.061,0,0,0,2.224,2.928,22.478,22.478,0,0,0,5.936,2.768,84.45,84.45,0,0,0,41.445,1.944,56.37,56.37,0,0,0,13.941-4.755,3.7,3.7,0,0,0,2.221-2.683,4.19,4.19,0,0,0-1.909-3.437c-2.024-1.611-11.475-4.467-14.453-5.027l-1.445-.269a71.15,71.15,0,0,0-7.16-1.093l-1.645-.2a59.654,59.654,0,0,0-7.069-.381m.472,37.067a125.57,125.57,0,0,1-34.435-4.861,50.593,50.593,0,0,1-7.752-3.016A15.37,15.37,0,0,1-38.98,141.99c.181-4.859.152-9.837,0-14.637V112.745c0-7.035,0-14.245-.211-21.307A11.768,11.768,0,0,0-42.4,84.889c-2.856-3.019-6.011-6.037-9.016-8.725s-6.16-5.792-9.013-8.781l-1.8-1.9a116.573,116.573,0,0,1-14-16.509,32.933,32.933,0,0,1-2.7-32.717A38.841,38.841,0,0,1-49.738-6.167,86.387,86.387,0,0,1-16.279-4.378l8.653,2.2L1.838.209c1.2.333,1.293.363,1.955-.784C16.532-22.6,43.974-26.282,65.342-15.418A38.608,38.608,0,0,1,75.892-6.951a5.408,5.408,0,0,0,2.765,1.477,31.477,31.477,0,0,1,22.685,16.9,29.969,29.969,0,0,1,0,27.163A81.866,81.866,0,0,1,90.556,53.681c-1.384,1.629-2.7,3.168-3.968,4.768-2.344,3.019-4.779,5.795-7.149,8.6q-4.508,5.34-9.016,11.016a25.407,25.407,0,0,0-4.867,16.267c.211,17.9.269,36.216.3,50.011a12.527,12.527,0,0,1-8.413,12.072,132.116,132.116,0,0,1-22.717,6.941,124.568,124.568,0,0,1-22.144,1.992" transform="translate(82.07 21.318)" fill="#42538d"/>
        </g>
      </g>
    </g>
  </g>
</svg>
