<svg xmlns="http://www.w3.org/2000/svg" xmlns:xlink="http://www.w3.org/1999/xlink" width="200" height="200" viewBox="0 0 200 200">
  <defs>
    <clipPath id="clip-path">
      <path id="path42" d="M0-200H200V0H0Z"/>
    </clipPath>
  </defs>
  <g id="g36" transform="translate(0 200)">
    <g id="g38">
      <g id="g40" clip-path="url(#clip-path)">
        <g id="g46" transform="translate(100.032 -111.137)">
          <path id="path48" d="M0,0C-4.969,0-9.168-5.331-9.168-11.641S-4.969-23.283,0-23.283s9.168,5.332,9.168,11.641S4.969,0,0,0M0,12.247c11.8,0,21.416-10.715,21.416-23.888S11.8-35.529,0-35.529-21.415-24.815-21.415-11.641-11.8,12.247,0,12.247"/>
        </g>
        <g id="g50" transform="translate(144.347 -106.897)">
          <path id="path52" d="M0,0C-3.079,0-5.679-3.3-5.679-7.209s2.6-7.209,5.679-7.209,5.677,3.3,5.677,7.209S3.077,0,0,0M0,7.584c7.308,0,13.261-6.635,13.261-14.793S7.308-22,0-22-13.263-15.368-13.263-7.209-7.309,7.584,0,7.584"/>
        </g>
        <g id="g54" transform="translate(163.259 -78.682)">
          <path id="path56" d="M0,0H-25.9a45.928,45.928,0,0,0-6.849-6.352A27.034,27.034,0,0,1-29.1-8.483a23.128,23.128,0,0,1,10.055-2.263A23.246,23.246,0,0,1-.964-2.481,19.838,19.838,0,0,1,.336-.587.389.389,0,0,1,0,0M-32.692,13.1H-93.933a.628.628,0,0,1-.543-.944,29.217,29.217,0,0,1,3.481-4.6A36.782,36.782,0,0,1-79.866-.495c.065-.033.124-.068.191-.1A37.4,37.4,0,0,1-63.441-4.247,39.51,39.51,0,0,1-46.7-.545,35.4,35.4,0,0,1-35.543,7.584q.67.738,1.3,1.511a32.865,32.865,0,0,1,2.1,3.06.63.63,0,0,1-.545.947M-100.665-.031h-25.959a.39.39,0,0,1-.336-.585,20.831,20.831,0,0,1,9.167-7.9,23.168,23.168,0,0,1,10.055-2.26A24.026,24.026,0,0,1-93.768-6.348a44.016,44.016,0,0,0-6.9,6.317M9.443,1.143A28.158,28.158,0,0,0,4.988-7.184c-8.612-10.749-24.695-14.288-37.4-8.121a32.41,32.41,0,0,0-7.147,4.645,51.094,51.094,0,0,0-45.468-.949c-.66.32-1.3.652-1.937.988a31.561,31.561,0,0,0-34.143-4.715C-128.329-11.827-133.1-6.8-135.652.019c-.737,1.953-1.336,4.144-.3,5.767s3,1.759,4.611,1.768h25.4a44.61,44.61,0,0,0-2.563,5.629c-1.191,3.156-2.159,6.691-.491,9.309s4.839,2.841,7.445,2.857h77.366c2.353,0,5.257-.316,6.747-2.6s.819-5.381,0-7.8a46.049,46.049,0,0,0-3.227-7.365H5.265c1.457,0,3.256-.195,4.177-1.612s.508-3.333,0-4.829"/>
        </g>
        <g id="g58" transform="translate(55.653 -106.927)">
          <path id="path60" d="M0,0C-3.077,0-5.679-3.3-5.679-7.211S-3.077-14.42,0-14.42s5.679,3.3,5.679,7.209S3.077,0,0,0M0,7.584c7.309,0,13.263-6.636,13.263-14.795S7.309-22,0-22-13.263-15.369-13.263-7.211-7.309,7.584,0,7.584"/>
        </g>
      </g>
    </g>
  </g>
</svg>
