<?xml version="1.0" encoding="UTF-8" standalone="no"?>
<svg
   xmlns:dc="http://purl.org/dc/elements/1.1/"
   xmlns:cc="http://creativecommons.org/ns#"
   xmlns:rdf="http://www.w3.org/1999/02/22-rdf-syntax-ns#"
   xmlns:svg="http://www.w3.org/2000/svg"
   xmlns="http://www.w3.org/2000/svg"
   version="1.1"
   id="svg232"
   xml:space="preserve"
   width="200"
   height="200"
   viewBox="0 0 200 200"><metadata
     id="metadata238"><rdf:RDF><cc:Work
         rdf:about=""><dc:format>image/svg+xml</dc:format><dc:type
           rdf:resource="http://purl.org/dc/dcmitype/StillImage" /><dc:title></dc:title></cc:Work></rdf:RDF></metadata><defs
     id="defs236"><clipPath
       clipPathUnits="userSpaceOnUse"
       id="clipPath248"><path
         d="M 0,150 H 150 V 0 H 0 Z"
         id="path246" /></clipPath></defs><g
     id="g240"
     transform="matrix(1.3333333,0,0,-1.3333333,0,200)"><g
       id="g242"><g
         id="g244"
         clip-path="url(#clipPath248)"><g
           id="g250"
           transform="translate(86.8877,54.1367)"><path
             d="m 0,0 -1.638,1.088 c -1.841,1.224 -3.744,2.487 -5.601,3.744 -1.354,1.017 -2.998,1.569 -4.708,1.569 -1.701,0 -3.34,-0.547 -4.69,-1.556 l -11.02,-7.394 v 51.41 c 3.343,-10e-4 6.686,-0.007 10.029,-0.012 3.791,-0.007 7.582,-0.013 11.373,-0.013 3.385,0 6.772,0.005 10.156,0.019 C 3.854,42.382 3.873,35.843 3.892,29.505 3.902,26.074 3.912,22.643 3.912,19.21 V -2.583 Z m 10.912,50.135 c -0.102,3.15 -2.655,5.667 -5.806,5.726 -11.361,-0.056 -22.722,0 -34.083,0 -0.1,0.003 -0.2,0.003 -0.299,0 -3.055,-0.082 -5.464,-2.626 -5.382,-5.68 V 34.65 -11.931 c -0.107,-0.593 0.081,-1.203 0.506,-1.632 0.719,-0.727 1.892,-0.734 2.619,-0.015 l 19.018,12.759 c 0.322,0.295 0.815,0.295 1.137,0 2.499,-1.693 5.01,-3.352 7.521,-5.022 l 12.008,-7.93 c 0.007,-0.005 0.014,-0.011 0.022,-0.017 0.518,-0.413 1.216,-0.452 1.764,-0.153 0.374,0.203 0.614,0.579 0.763,0.977 0.141,0.376 0.213,0.776 0.212,1.182 V 19.21 c 0,10.316 -0.091,20.621 0,30.925"
             style="fill:#42538d;fill-opacity:1;fill-rule:nonzero;stroke:none"
             id="path252" /></g></g></g></g></svg>
