<?xml version="1.0" encoding="UTF-8" standalone="no"?>
<svg
   xmlns:dc="http://purl.org/dc/elements/1.1/"
   xmlns:cc="http://creativecommons.org/ns#"
   xmlns:rdf="http://www.w3.org/1999/02/22-rdf-syntax-ns#"
   xmlns:svg="http://www.w3.org/2000/svg"
   xmlns="http://www.w3.org/2000/svg"
   version="1.1"
   id="svg174"
   xml:space="preserve"
   width="200"
   height="200"
   viewBox="0 0 200 200"><metadata
     id="metadata180"><rdf:RDF><cc:Work
         rdf:about=""><dc:format>image/svg+xml</dc:format><dc:type
           rdf:resource="http://purl.org/dc/dcmitype/StillImage" /><dc:title></dc:title></cc:Work></rdf:RDF></metadata><defs
     id="defs178"><clipPath
       clipPathUnits="userSpaceOnUse"
       id="clipPath190"><path
         d="M 0,150 H 150 V 0 H 0 Z"
         id="path188" /></clipPath></defs><g
     id="g182"
     transform="matrix(1.3333333,0,0,-1.3333333,0,200)"><g
       id="g184"><g
         id="g186"
         clip-path="url(#clipPath190)"><g
           id="g192"
           transform="translate(101.5527,94.0117)"><path
             d="m 0,0 c -1.076,1.663 -3.375,3.034 -5.147,3.814 0.087,-0.039 0.19,-0.418 0.223,-0.498 0.186,-0.449 0.344,-0.911 0.481,-1.378 0.429,-1.478 0.633,-3.032 0.532,-4.571 -0.134,-2.031 -0.833,-3.982 -2.04,-5.619 -0.735,-0.995 -1.628,-1.862 -2.599,-2.622 -0.885,-0.691 -1.996,-1.635 -3.198,-1.49 -0.937,0.113 0.271,1.454 0.516,1.706 0.955,0.985 2.049,1.796 2.901,2.879 0.809,1.029 1.477,2.178 1.905,3.419 0.552,1.595 0.668,3.309 0.321,4.963 -0.493,2.341 -1.627,4.71 -3.67,6.038 -1.19,0.773 -2.488,1.391 -3.844,1.806 -4.511,1.379 -8.931,-0.079 -12.164,-3.452 -0.624,-0.651 -1.019,-1.24 -1.323,-2.041 0.041,0.106 0,0 0.091,-0.004 0.343,-0.014 0.685,-0.048 1.027,-0.081 0.634,-0.062 1.269,-0.164 1.905,-0.202 1.358,-0.081 2.724,0.083 4.061,0.313 1.089,0.188 2.189,0.933 3.328,0.676 0.03,-0.008 0.061,-0.015 0.091,-0.024 0.202,-0.058 0.63,-0.175 0.58,-0.464 -0.042,-0.235 -0.393,-0.405 -0.575,-0.505 -1.138,-0.623 -2.385,-1.064 -3.665,-1.28 -1.086,-0.184 -2.191,-0.242 -3.291,-0.235 -3.674,0.025 -7.3,0.762 -10.851,1.653 -3.052,0.766 -5.968,1.691 -9.148,1.616 -3.227,-0.076 -6.995,-1.269 -8.702,-4.178 -1.457,-2.482 -2.189,-5.452 -1.194,-8.241 0.702,-1.967 2.238,-3.414 3.688,-4.84 1.291,-1.27 2.546,-2.579 3.815,-3.872 1.215,-1.238 3.035,-2.44 4.249,-3.678 0.123,-0.125 1.453,-1.685 1.599,-1.629 0,0 1.358,0.513 3.637,1.072 -0.117,0.269 -0.367,0.71 -0.486,0.892 -0.842,1.291 -1.796,2.568 -2.745,3.805 -0.891,1.163 -1.782,2.331 -2.348,3.696 -0.336,0.812 -1.222,3.019 -0.597,3.84 0.178,0.233 0.425,0.231 0.655,0.088 0.416,-0.258 0.626,-0.669 0.753,-1.13 1.426,-4.167 5.398,-9.003 6.886,-10.722 5.526,1.094 14.272,1.842 22.832,-1.504 -0.193,0.076 1.011,2.64 1.085,2.78 2.01,3.785 6.21,5.832 8.698,9.248 C 0.306,-7.164 2.106,-3.257 0,0 m -40.458,-27.573 v -8.379 -3.575 -0.129 c 4.93,2.753 10.59,3.13 15.028,3.149 h 0.069 c 4.843,-0.022 9.628,-1.068 14.042,-3.07 v 10.014 c 0,3.328 0,3.328 -3.204,4.377 -0.189,0.06 -0.379,0.11 -0.573,0.149 -3.389,0.784 -6.856,1.176 -10.334,1.169 -2.69,-0.01 -5.376,-0.215 -8.037,-0.614 -1.676,-0.304 -3.325,-0.745 -4.93,-1.318 l -1.322,-0.426 c -0.364,-0.119 -0.739,-0.327 -0.729,-1.347 z m 14.223,-12.539 c -0.886,0.01 -1.771,-0.032 -2.652,-0.126 l -0.925,-0.109 c -1.498,-0.105 -2.974,-0.418 -4.386,-0.929 -1.254,-0.29 -2.426,-0.863 -3.427,-1.675 -0.355,-0.211 -0.593,-0.577 -0.642,-0.988 0.088,-0.479 0.397,-0.887 0.834,-1.098 0.688,-0.453 1.438,-0.803 2.226,-1.038 5.041,-1.532 10.382,-1.782 15.542,-0.729 1.812,0.363 3.57,0.962 5.228,1.783 0.427,0.175 0.74,0.552 0.833,1.006 -0.01,0.523 -0.279,1.006 -0.716,1.289 -0.759,0.604 -4.303,1.675 -5.42,1.885 l -0.542,0.101 c -0.887,0.182 -1.783,0.319 -2.685,0.41 l -0.617,0.075 c -0.88,0.1 -1.766,0.148 -2.651,0.143 m 0.177,-13.9 c -4.368,0.006 -8.713,0.619 -12.913,1.823 -0.998,0.296 -1.97,0.675 -2.907,1.131 -2.305,0.961 -3.726,3.309 -3.516,5.806 0.068,1.822 0.057,3.689 0,5.489 v 1.867 0.544 2.965 0.102 c 0,2.638 0,5.342 -0.079,7.99 -0.132,0.927 -0.554,1.787 -1.205,2.456 -1.071,1.132 -2.254,2.264 -3.381,3.272 -1.127,1.006 -2.31,2.172 -3.38,3.293 l -0.676,0.712 c -1.938,1.896 -3.696,3.968 -5.251,6.191 -2.497,3.614 -2.884,8.291 -1.014,12.269 2.014,4.472 6.128,7.63 10.952,8.409 4.215,0.577 8.58,0.381 12.547,-0.671 l 3.245,-0.826 3.549,-0.894 c 0.451,-0.125 0.485,-0.136 0.733,0.294 4.777,8.258 15.068,9.64 23.081,5.566 1.513,-0.77 2.8,-1.926 3.956,-3.175 0.284,-0.283 0.644,-0.476 1.037,-0.554 3.674,-0.644 6.828,-2.994 8.507,-6.338 1.627,-3.199 1.627,-6.988 0,-10.186 -1.13,-2.035 -2.488,-3.933 -4.045,-5.659 -0.519,-0.611 -1.014,-1.188 -1.488,-1.788 -0.879,-1.132 -1.792,-2.173 -2.681,-3.226 -1.127,-1.335 -2.254,-2.716 -3.381,-4.131 -1.289,-1.762 -1.934,-3.916 -1.825,-6.1 0.079,-6.712 0.101,-13.581 0.113,-18.754 0.036,-2.036 -1.237,-3.864 -3.155,-4.527 -2.756,-1.122 -5.608,-1.993 -8.519,-2.603 -2.74,-0.496 -5.519,-0.746 -8.304,-0.747"
             style="fill:#42538d;fill-opacity:1;fill-rule:nonzero;stroke:none"
             id="path194" /></g></g></g></g></svg>
