<?xml version="1.0" encoding="UTF-8" standalone="no"?>
<svg
   xmlns:dc="http://purl.org/dc/elements/1.1/"
   xmlns:cc="http://creativecommons.org/ns#"
   xmlns:rdf="http://www.w3.org/1999/02/22-rdf-syntax-ns#"
   xmlns:svg="http://www.w3.org/2000/svg"
   xmlns="http://www.w3.org/2000/svg"
   version="1.1"
   id="svg2348"
   xml:space="preserve"
   width="200"
   height="200"
   viewBox="0 0 200 200"><metadata
     id="metadata2354"><rdf:RDF><cc:Work
         rdf:about=""><dc:format>image/svg+xml</dc:format><dc:type
           rdf:resource="http://purl.org/dc/dcmitype/StillImage" /><dc:title></dc:title></cc:Work></rdf:RDF></metadata><defs
     id="defs2352"><clipPath
       clipPathUnits="userSpaceOnUse"
       id="clipPath2364"><path
         d="M 0,150 H 150 V 0 H 0 Z"
         id="path2362" /></clipPath></defs><g
     id="g2356"
     transform="matrix(1.3333333,0,0,-1.3333333,0,200)"><g
       id="g2358"><g
         id="g2360"
         clip-path="url(#clipPath2364)"><g
           id="g2366"
           transform="translate(140,75.0005)"><path
             d="m 0,0 c 0,35.841 -29.159,65 -65,65 -35.841,0 -65,-29.159 -65,-65 0,-35.841 29.159,-65 65,-65 35.841,0 65,29.159 65,65 m 10,0 c 0,-41.421 -33.579,-75 -75,-75 -41.421,0 -75,33.579 -75,75 0,41.421 33.579,75 75,75 41.421,0 75,-33.579 75,-75"
             style="fill:#42538d;fill-opacity:1;fill-rule:nonzero;stroke:none"
             id="path2368" /></g><g
           id="g2370"
           transform="translate(101.2646,95.6421)"><path
             d="m 0,0 -37.629,-37.629 -14.901,14.433 c -1.81,1.811 -4.745,1.811 -6.555,0 -1.811,-1.81 -1.811,-4.745 0,-6.555 l 14.9,-14.434 2.974,-2.973 c 1.978,-1.979 5.186,-1.979 7.165,0 l 2.973,2.973 37.629,37.629 c 1.81,1.811 1.81,4.746 0,6.556 C 4.746,1.811 1.811,1.811 0,0"
             style="fill:#42538d;fill-opacity:1;fill-rule:nonzero;stroke:none"
             id="path2372" /></g></g></g></g></svg>
