<?xml version="1.0" encoding="UTF-8" standalone="no"?>
<svg
   xmlns:dc="http://purl.org/dc/elements/1.1/"
   xmlns:cc="http://creativecommons.org/ns#"
   xmlns:rdf="http://www.w3.org/1999/02/22-rdf-syntax-ns#"
   xmlns:svg="http://www.w3.org/2000/svg"
   xmlns="http://www.w3.org/2000/svg"
   version="1.1"
   id="svg2290"
   xml:space="preserve"
   width="200"
   height="200"
   viewBox="0 0 200 200"><metadata
     id="metadata2296"><rdf:RDF><cc:Work
         rdf:about=""><dc:format>image/svg+xml</dc:format><dc:type
           rdf:resource="http://purl.org/dc/dcmitype/StillImage" /><dc:title></dc:title></cc:Work></rdf:RDF></metadata><defs
     id="defs2294"><clipPath
       clipPathUnits="userSpaceOnUse"
       id="clipPath2306"><path
         d="M 0,150 H 150 V 0 H 0 Z"
         id="path2304" /></clipPath></defs><g
     id="g2298"
     transform="matrix(1.3333333,0,0,-1.3333333,0,200)"><g
       id="g2300"><g
         id="g2302"
         clip-path="url(#clipPath2306)"><g
           id="g2308"
           transform="translate(140,74.9995)"><path
             d="m 0,0 c 0,35.841 -29.159,65 -65,65 -35.841,0 -65,-29.159 -65,-65 0,-35.84 29.159,-65 65,-65 35.841,0 65,29.16 65,65 m 10,0 c 0,-41.42 -33.579,-75 -75,-75 -41.421,0 -75,33.58 -75,75 0,41.422 33.579,75 75,75 41.421,0 75,-33.578 75,-75"
             style="fill:#42538d;fill-opacity:1;fill-rule:nonzero;stroke:none"
             id="path2310" /></g></g></g></g></svg>
