<?xml version="1.0" encoding="UTF-8" standalone="no"?>
<svg
   xmlns:dc="http://purl.org/dc/elements/1.1/"
   xmlns:cc="http://creativecommons.org/ns#"
   xmlns:rdf="http://www.w3.org/1999/02/22-rdf-syntax-ns#"
   xmlns:svg="http://www.w3.org/2000/svg"
   xmlns="http://www.w3.org/2000/svg"
   version="1.1"
   id="svg1286"
   xml:space="preserve"
   width="200"
   height="200"
   viewBox="0 0 200 200"><metadata
     id="metadata1292"><rdf:RDF><cc:Work
         rdf:about=""><dc:format>image/svg+xml</dc:format><dc:type
           rdf:resource="http://purl.org/dc/dcmitype/StillImage" /><dc:title></dc:title></cc:Work></rdf:RDF></metadata><defs
     id="defs1290"><clipPath
       clipPathUnits="userSpaceOnUse"
       id="clipPath1302"><path
         d="M 0,150 H 150 V 0 H 0 Z"
         id="path1300" /></clipPath></defs><g
     id="g1294"
     transform="matrix(1.3333333,0,0,-1.3333333,0,200)"><g
       id="g1296"><g
         id="g1298"
         clip-path="url(#clipPath1302)"><g
           id="g1304"
           transform="translate(140,74.9995)"><path
             d="m 0,0 c 0,35.841 -29.159,65 -65,65 -35.841,0 -65,-29.159 -65,-65 0,-35.84 29.159,-65 65,-65 35.841,0 65,29.16 65,65 m 10,0 c 0,-41.42 -33.579,-75 -75,-75 -41.421,0 -75,33.58 -75,75 0,41.422 33.579,75 75,75 41.421,0 75,-33.578 75,-75"
             style="fill:#42538d;fill-opacity:1;fill-rule:nonzero;stroke:none"
             id="path1306" /></g><g
           id="g1308"
           transform="translate(102.29,83.8452)"><path
             d="m 0,0 c -0.618,0.618 -1.236,1.236 -1.854,1.854 -1.533,1.533 -3.065,3.065 -4.597,4.598 -1.968,1.967 -3.936,3.935 -5.903,5.902 -1.923,1.924 -3.847,3.847 -5.77,5.77 -1.164,1.165 -2.321,2.337 -3.493,3.493 -1.075,1.059 -2.166,2.458 -3.589,3.048 -0.166,0.069 -0.339,0.109 -0.511,0.159 -0.141,0.041 -0.276,0.096 -0.423,0.125 -0.646,0.129 -1.312,0.129 -1.958,0 -0.146,-0.029 -0.281,-0.083 -0.422,-0.125 -0.171,-0.05 -0.345,-0.09 -0.512,-0.159 -1.033,-0.428 -1.9,-1.199 -2.666,-1.998 -0.81,-0.845 -1.57,-1.711 -2.399,-2.541 l -4.896,-4.895 c -1.907,-1.908 -3.815,-3.815 -5.722,-5.723 -1.77,-1.769 -3.539,-3.538 -5.308,-5.307 -1.217,-1.218 -2.435,-2.434 -3.651,-3.652 -0.302,-0.301 -0.604,-0.603 -0.906,-0.905 -1.953,-1.953 -1.953,-5.119 0,-7.071 1.953,-1.953 5.119,-1.953 7.071,0 l 15.39,15.39 v -45.699 c 0,-2.762 2.239,-5 5,-5 2.762,0 5,2.238 5,5 V 7.977 L -7.071,-7.071 c 1.953,-1.952 5.119,-1.952 7.071,0 1.953,1.953 1.953,5.118 0,7.071"
             style="fill:#42538d;fill-opacity:1;fill-rule:nonzero;stroke:none"
             id="path1310" /></g></g></g></g></svg>
