<?xml version="1.0" encoding="UTF-8" standalone="no"?>
<svg
   xmlns:dc="http://purl.org/dc/elements/1.1/"
   xmlns:cc="http://creativecommons.org/ns#"
   xmlns:rdf="http://www.w3.org/1999/02/22-rdf-syntax-ns#"
   xmlns:svg="http://www.w3.org/2000/svg"
   xmlns="http://www.w3.org/2000/svg"
   version="1.1"
   id="svg196"
   xml:space="preserve"
   width="200"
   height="200"
   viewBox="0 0 200 200"><metadata
     id="metadata202"><rdf:RDF><cc:Work
         rdf:about=""><dc:format>image/svg+xml</dc:format><dc:type
           rdf:resource="http://purl.org/dc/dcmitype/StillImage" /><dc:title></dc:title></cc:Work></rdf:RDF></metadata><defs
     id="defs200"><clipPath
       clipPathUnits="userSpaceOnUse"
       id="clipPath212"><path
         d="M 0,150 H 150 V 0 H 0 Z"
         id="path210" /></clipPath></defs><g
     id="g204"
     transform="matrix(1.3333333,0,0,-1.3333333,0,200)"><g
       id="g206"><g
         id="g208"
         clip-path="url(#clipPath212)"><g
           id="g214"
           transform="translate(140,75)"><path
             d="m 0,0 c 0,35.841 -29.159,65 -65,65 -35.841,0 -65,-29.159 -65,-65 0,-35.841 29.159,-65 65,-65 35.841,0 65,29.159 65,65 m 10,0 c 0,-41.421 -33.579,-75 -75,-75 -41.421,0 -75,33.579 -75,75 0,41.421 33.579,75 75,75 41.421,0 75,-33.579 75,-75"
             style="fill:#42538d;fill-opacity:1;fill-rule:nonzero;stroke:none"
             id="path216" /></g><g
           id="g218"
           transform="translate(104.8789,54.3643)"><path
             d="M 0,0 H -0.044 V 39.085 C 7.491,31.225 8.989,10.966 0,0 m -5.245,36.932 h -0.059 v -51.551 c 0.007,-0.875 -0.046,-1.75 -0.156,-2.618 -0.142,-1.758 -1.597,-3.12 -3.36,-3.145 -1.835,0.007 -3.377,1.381 -3.594,3.203 -0.059,0.578 -0.059,1.161 0,1.74 0.664,8.933 1.315,17.86 1.953,26.781 0,0.664 0.117,1.308 0.137,1.953 0,1.798 -0.723,2.716 -2.598,2.618 h -3.809 c 0,6.465 -0.332,12.736 0,18.948 0.488,7.618 1.562,15.178 2.421,22.757 0.157,1.968 1.573,3.606 3.497,4.044 1.584,0.567 3.351,-0.022 4.279,-1.426 0.705,-1.255 1.095,-2.663 1.133,-4.102 0.214,-6.388 0.156,-12.795 0.156,-19.202 M -17.371,-2.427 c -0.144,-2.135 -0.251,-4.288 -0.538,-6.405 -0.141,-0.653 -0.57,-1.207 -1.167,-1.507 -4.975,-1.907 -10.391,-2.349 -15.61,-1.274 -0.161,3.589 -0.323,6.962 -0.448,10.371 -0.341,8.289 -0.628,16.578 -1.023,24.867 -0.175,2.317 0.865,4.558 2.745,5.921 2.787,2.393 4.327,5.929 4.181,9.6 0,2.673 -0.046,12.835 -0.046,15.85 l 7.985,-1.041 c -0.306,-4.826 -0.673,-16.783 -0.78,-21.323 -0.161,-6.477 0,-12.972 -0.161,-19.467 0,-1.92 0.879,-2.655 2.691,-2.565 h 3.14 z m -35.466,-2.211 c 0,-0.136 -0.117,-0.254 -0.195,-0.371 -12.561,8.733 -16.468,30.181 -6.056,43.132 1.954,-2.148 3.907,-4.258 5.607,-6.583 0.929,-1.182 1.475,-2.62 1.563,-4.122 -0.157,-10.685 -0.567,-21.37 -0.919,-32.056 m 36.232,-14.695 c 0.204,-4.201 3.523,-7.655 7.81,-7.875 4.564,-0.234 8.452,3.275 8.687,7.838 v 10.098 c 0.026,1.016 0.376,1.998 0.999,2.801 12.797,15.064 12.797,37.18 0,52.244 -0.592,0.816 -0.918,1.794 -0.935,2.801 v 10.705 c 0.1,4.766 -3.504,8.797 -8.251,9.229 -4.717,0.413 -8.99,-2.785 -9.923,-7.426 -0.37,-1.477 -0.63,-0.782 -0.912,-2.172 l -10.792,1.259 v 10.358 h -4.082 V 46.642 c 0.305,-3.944 -1.402,-7.774 -4.538,-10.184 -2.47,-1.941 -3.872,-4.938 -3.779,-8.078 0,-2.172 0,-4.343 0.196,-6.514 0.542,-13.832 1.129,-27.664 1.65,-41.496 0.068,-1.124 -0.157,-2.246 -0.651,-3.257 -0.863,-1.675 -2.869,-2.403 -4.604,-1.672 -2.323,0.803 -2.714,2.736 -2.649,4.886 0.499,15.069 0.934,30.117 1.498,45.165 0.174,4.517 -0.586,8.49 -4.343,11.53 -2.901,2.453 -4.431,6.161 -4.104,9.945 v 21.128 2.432 H -59.67 V 48.965 c -0.122,-1.232 -0.539,-2.416 -1.217,-3.452 -1.759,-2.997 -3.93,-5.755 -5.45,-8.86 -7.296,-14.918 -4.19,-34.113 7.731,-45.013 4.06,-3.713 7.165,-7.122 5.84,-13.029 -0.032,-0.165 -0.032,-0.335 0,-0.499 0.465,-4.57 4.546,-7.897 9.116,-7.433 4.289,0.436 7.534,4.078 7.474,8.388 l 19.543,1.607 c 0,0 0.026,0.026 0.028,-0.007"
             style="fill:#42538d;fill-opacity:1;fill-rule:nonzero;stroke:none"
             id="path220" /></g><path
           d="m 66.401,124.979 h -3.909 v -23.104 h 3.909 z"
           style="fill:#42538d;fill-opacity:1;fill-rule:nonzero;stroke:none"
           id="path222" /><path
           d="m 57.846,125 h -3.909 v -23.147 h 3.909 z"
           style="fill:#42538d;fill-opacity:1;fill-rule:nonzero;stroke:none"
           id="path224" /></g></g></g></svg>
