<?xml version="1.0" encoding="UTF-8" standalone="no"?>
<svg
   xmlns:dc="http://purl.org/dc/elements/1.1/"
   xmlns:cc="http://creativecommons.org/ns#"
   xmlns:rdf="http://www.w3.org/1999/02/22-rdf-syntax-ns#"
   xmlns:svg="http://www.w3.org/2000/svg"
   xmlns="http://www.w3.org/2000/svg"
   version="1.1"
   id="svg3274"
   xml:space="preserve"
   width="200"
   height="200"
   viewBox="0 0 200 200"><metadata
     id="metadata3280"><rdf:RDF><cc:Work
         rdf:about=""><dc:format>image/svg+xml</dc:format><dc:type
           rdf:resource="http://purl.org/dc/dcmitype/StillImage" /><dc:title></dc:title></cc:Work></rdf:RDF></metadata><defs
     id="defs3278"><clipPath
       clipPathUnits="userSpaceOnUse"
       id="clipPath3290"><path
         d="M 0,150 H 150 V 0 H 0 Z"
         id="path3288" /></clipPath></defs><g
     id="g3282"
     transform="matrix(1.3333333,0,0,-1.3333333,0,200)"><g
       id="g3284"><g
         id="g3286"
         clip-path="url(#clipPath3290)"><g
           id="g3292"
           transform="translate(140,74.9995)"><path
             d="m 0,0 c 0,35.841 -29.158,65 -65,65 -35.841,0 -65,-29.159 -65,-65 0,-35.84 29.159,-65 65,-65 35.842,0 65,29.16 65,65 m 10,0 c 0,-41.42 -33.579,-75 -75,-75 -41.421,0 -75,33.58 -75,75 0,41.422 33.579,75 75,75 41.421,0 75,-33.578 75,-75"
             style="fill:#42538d;fill-opacity:1;fill-rule:nonzero;stroke:none"
             id="path3294" /></g><g
           id="g3296"
           transform="translate(105.1074,74.9995)"><path
             d="m 0,0 h -25.215 v 39.215 c 0,2.762 -2.238,5 -5,5 -2.761,0 -5,-2.238 -5,-5 V -3.616 c 0,-3.525 2.859,-6.384 6.385,-6.384 H 0 c 2.762,0 5,2.239 5,5 0,2.761 -2.238,5 -5,5"
             style="fill:#42538d;fill-opacity:1;fill-rule:nonzero;stroke:none"
             id="path3298" /></g></g></g></g></svg>
