<?xml version="1.0" encoding="UTF-8" standalone="no"?>
<svg
   xmlns:dc="http://purl.org/dc/elements/1.1/"
   xmlns:cc="http://creativecommons.org/ns#"
   xmlns:rdf="http://www.w3.org/1999/02/22-rdf-syntax-ns#"
   xmlns:svg="http://www.w3.org/2000/svg"
   xmlns="http://www.w3.org/2000/svg"
   version="1.1"
   id="svg1624"
   xml:space="preserve"
   width="200"
   height="200"
   viewBox="0 0 200 200"><metadata
     id="metadata1630"><rdf:RDF><cc:Work
         rdf:about=""><dc:format>image/svg+xml</dc:format><dc:type
           rdf:resource="http://purl.org/dc/dcmitype/StillImage" /><dc:title></dc:title></cc:Work></rdf:RDF></metadata><defs
     id="defs1628"><clipPath
       clipPathUnits="userSpaceOnUse"
       id="clipPath1640"><path
         d="M 0,150 H 150 V 0 H 0 Z"
         id="path1638" /></clipPath></defs><g
     id="g1632"
     transform="matrix(1.3333333,0,0,-1.3333333,0,200)"><g
       id="g1634"><g
         id="g1636"
         clip-path="url(#clipPath1640)"><g
           id="g1642"
           transform="translate(25.4341,15.8428)"><path
             d="M 0,0 -0.479,5.81 C -0.355,3.88 -0.208,1.946 0,0"
             style="fill:#231f20;fill-opacity:1;fill-rule:nonzero;stroke:none"
             id="path1644" /></g><g
           id="g1646"
           transform="translate(116.3145,16.7227)"><path
             d="M 0,0 C -0.284,-3.77 -3.469,-6.723 -7.249,-6.723 H -75.38 c -3.78,0 -6.965,2.953 -7.249,6.722 l -4.154,103.278 h 93.59 z m -55.612,123.277 h 28.595 c 1.192,0 2.158,-0.966 2.159,-2.158 v -7.842 H -57.77 v 7.842 c 0,1.192 0.966,2.158 2.158,2.158 m 84.083,-10 h -43.33 v 8.556 c 0,6.32 -5.124,11.444 -11.446,11.444 h -30.02 c -6.321,0 -11.446,-5.124 -11.446,-11.445 l 0.001,-8.555 h -43.33 c -2.611,0 -4.943,-1.909 -5.191,-4.509 -0.284,-2.982 2.053,-5.491 4.977,-5.491 h 13.376 l 5.337,-104.03 c 0.68,-9.008 8.187,-15.97 17.221,-15.97 h 68.131 c 9.034,0 16.541,6.962 17.221,15.97 l 7.46,104.03 h 11.254 c 2.923,0 5.26,2.509 4.976,5.491 -0.248,2.6 -2.58,4.509 -5.191,4.509"
             style="fill:#42538d;fill-opacity:1;fill-rule:nonzero;stroke:none"
             id="path1648" /></g><g
           id="g1650"
           transform="translate(55.7144,31.6494)"><path
             d="m 0,0 v 0 c -2.761,0 -5,2.239 -5,5 v 56.046 c 0,2.762 2.239,5 5,5 2.762,0 5,-2.238 5,-5 V 5 C 5,2.239 2.762,0 0,0"
             style="fill:#42538d;fill-opacity:1;fill-rule:nonzero;stroke:none"
             id="path1652" /></g><g
           id="g1654"
           transform="translate(94.2852,31.6494)"><path
             d="m 0,0 v 0 c 2.762,0 5,2.239 5,5 v 56.046 c 0,2.762 -2.238,5 -5,5 -2.761,0 -5,-2.238 -5,-5 V 5 C -5,2.239 -2.761,0 0,0"
             style="fill:#42538d;fill-opacity:1;fill-rule:nonzero;stroke:none"
             id="path1656" /></g><g
           id="g1658"
           transform="translate(75,31.7559)"><path
             d="m 0,0 v 0 c -2.761,0 -5,2.239 -5,5 v 56.046 c 0,2.762 2.239,5 5,5 2.762,0 5,-2.238 5,-5 V 5 C 5,2.239 2.762,0 0,0"
             style="fill:#42538d;fill-opacity:1;fill-rule:nonzero;stroke:none"
             id="path1660" /></g></g></g></g></svg>
