<?xml version="1.0" encoding="UTF-8" standalone="no"?>
<svg
   xmlns:dc="http://purl.org/dc/elements/1.1/"
   xmlns:cc="http://creativecommons.org/ns#"
   xmlns:rdf="http://www.w3.org/1999/02/22-rdf-syntax-ns#"
   xmlns:svg="http://www.w3.org/2000/svg"
   xmlns="http://www.w3.org/2000/svg"
   version="1.1"
   id="svg302"
   xml:space="preserve"
   width="200"
   height="200"
   viewBox="0 0 200 200"><metadata
     id="metadata308"><rdf:RDF><cc:Work
         rdf:about=""><dc:format>image/svg+xml</dc:format><dc:type
           rdf:resource="http://purl.org/dc/dcmitype/StillImage" /><dc:title></dc:title></cc:Work></rdf:RDF></metadata><defs
     id="defs306"><clipPath
       clipPathUnits="userSpaceOnUse"
       id="clipPath318"><path
         d="M 0,150 H 150 V 0 H 0 Z"
         id="path316" /></clipPath></defs><g
     id="g310"
     transform="matrix(1.3333333,0,0,-1.3333333,0,200)"><g
       id="g312"><g
         id="g314"
         clip-path="url(#clipPath318)"><g
           id="g320"
           transform="translate(140,75)"><path
             d="m 0,0 c 0,35.841 -29.159,65 -65,65 -35.841,0 -65,-29.159 -65,-65 0,-35.841 29.159,-65 65,-65 35.841,0 65,29.159 65,65 m 10,0 c 0,-41.421 -33.579,-75 -75,-75 -41.421,0 -75,33.579 -75,75 0,41.421 33.579,75 75,75 41.421,0 75,-33.579 75,-75"
             style="fill:#42538d;fill-opacity:1;fill-rule:nonzero;stroke:none"
             id="path322" /></g><g
           id="g324"
           transform="translate(74.9995,37.7012)"><path
             d="m 0,0 c -2.049,0 -3.622,0.614 -4.713,1.844 -1.094,1.23 -1.64,2.936 -1.64,5.124 v 37.606 c 0,4.645 2.117,6.968 6.353,6.968 4.304,0 6.457,-2.323 6.457,-6.968 V 6.968 C 6.457,4.78 5.909,3.074 4.817,1.844 3.723,0.614 2.117,0 0,0 m 0,61.072 c -2.392,0 -4.252,0.597 -5.584,1.793 -1.333,1.194 -1.998,2.851 -1.998,4.97 0,2.186 0.665,3.859 1.998,5.021 1.332,1.161 3.192,1.742 5.584,1.742 5.055,0 7.583,-2.255 7.583,-6.763 0,-4.509 -2.528,-6.763 -7.583,-6.763"
             style="fill:#42538d;fill-opacity:1;fill-rule:nonzero;stroke:none"
             id="path326" /></g></g></g></g></svg>
