<?xml version="1.0" encoding="UTF-8" standalone="no"?>
<svg
   xmlns:dc="http://purl.org/dc/elements/1.1/"
   xmlns:cc="http://creativecommons.org/ns#"
   xmlns:rdf="http://www.w3.org/1999/02/22-rdf-syntax-ns#"
   xmlns:svg="http://www.w3.org/2000/svg"
   xmlns="http://www.w3.org/2000/svg"
   version="1.1"
   id="svg28"
   xml:space="preserve"
   width="200"
   height="200"
   viewBox="0 0 200 200"><metadata
     id="metadata34"><rdf:RDF><cc:Work
         rdf:about=""><dc:format>image/svg+xml</dc:format><dc:type
           rdf:resource="http://purl.org/dc/dcmitype/StillImage" /><dc:title></dc:title></cc:Work></rdf:RDF></metadata><defs
     id="defs32"><clipPath
       clipPathUnits="userSpaceOnUse"
       id="clipPath44"><path
         d="M 0,150 H 150 V 0 H 0 Z"
         id="path42" /></clipPath></defs><g
     id="g36"
     transform="matrix(1.3333333,0,0,-1.3333333,0,200)"><g
       id="g38"><g
         id="g40"
         clip-path="url(#clipPath44)"><g
           id="g46"
           transform="translate(131.4561,29.6543)"><path
             d="m 0,0 c -0.021,-0.011 -0.045,-0.017 -0.068,-0.018 -1.095,-0.028 -27.221,-0.689 -46.198,-0.306 l -25.39,-0.119 -0.011,0.043 c -18.264,-0.199 -40.201,0.357 -41.178,0.382 -0.024,10e-4 -0.047,0.007 -0.068,0.018 -5.843,2.885 5.517,13.646 5.517,13.646 13.783,12.23 15.975,31.986 16.299,36.439 0.003,0.057 0.007,0.114 0.01,0.172 -0.003,-0.055 -0.007,-0.112 -0.01,-0.172 0.043,0.59 0.054,0.915 0.054,0.915 0.48,8.203 1.037,14.549 1.562,19.346 1.084,9.904 8.539,17.948 18.345,19.715 1.934,0.348 3.822,0.611 5.548,0.81 0,0 9.471,1.651 18.267,0 v 0 c 1.724,-0.199 3.611,-0.462 5.545,-0.81 9.805,-1.767 17.261,-9.811 18.344,-19.715 0.526,-4.797 1.082,-11.143 1.563,-19.346 0,0 0.011,-0.325 0.054,-0.914 -0.003,0.057 -0.007,0.114 -0.01,0.171 0.003,-0.055 0.007,-0.112 0.01,-0.172 v 10e-4 -10e-4 C -21.491,45.632 -19.299,25.876 -5.517,13.646 -5.517,13.646 5.844,2.885 0,0 m -57.582,-18.806 c -3.559,0.043 -6.768,2.09 -8.326,5.256 -0.049,0.098 0.026,0.217 0.135,0.217 l 16.419,0.077 c 0.109,0 0.184,-0.117 0.137,-0.216 -1.544,-3.211 -4.776,-5.291 -8.365,-5.334 m 1.092,126.986 c 0.108,0.002 0.215,-0.001 0.323,-0.009 1.937,-0.131 3.421,-1.686 3.541,-3.572 0.006,-0.087 -0.069,-0.162 -0.157,-0.158 -1.044,0.049 -2.102,0.081 -3.183,0.081 -1.48,0 -2.88,-0.046 -4.17,-0.116 -0.078,-0.005 -0.149,0.054 -0.157,0.133 -0.196,1.904 1.983,3.641 3.803,3.641 M 3.366,23.024 3.214,23.168 3.057,23.308 c -10.233,9.08 -11.815,25.435 -11.983,27.638 0,0 -0.032,0.467 -0.032,0.471 l -0.016,0.337 c -0.436,7.454 -0.98,14.183 -1.617,19.996 -1.696,15.507 -13.579,28.264 -28.89,31.022 -0.557,0.101 -1.142,0.189 -1.717,0.282 l 0.011,0.17 0.016,0.226 c 0.278,4.089 -0.852,8.221 -3.476,11.369 -2.71,3.252 -6.544,5.206 -10.746,5.492 -0.349,0.023 -0.699,0.035 -1.05,0.035 l -0.151,-0.001 c -4.797,-0.037 -9.383,-2.387 -12.287,-6.3 -2.37,-3.193 -3.332,-7.048 -2.773,-10.838 0.011,-0.079 -0.04,-0.15 -0.118,-0.163 -0.557,-0.088 -1.119,-0.174 -1.654,-0.271 -15.317,-2.759 -27.199,-15.516 -28.896,-31.023 -0.636,-5.825 -1.18,-12.553 -1.617,-19.996 l -0.012,-0.263 c -0.003,-0.066 -0.035,-0.547 -0.035,-0.547 -0.17,-2.215 -1.755,-18.56 -11.983,-27.636 l -0.156,-0.14 -0.153,-0.144 c -5.803,-5.496 -12.428,-13.935 -11.031,-22.921 0.8,-5.149 4.011,-9.432 8.811,-11.75 l 2.476,-1.196 c 0.018,-0.01 0.039,-0.014 0.059,-0.014 l 2.748,-0.073 c 0.16,-0.004 15.706,-0.404 31.571,-0.429 l 0.012,-0.048 3.507,0.016 c 0.066,0 0.124,-0.044 0.141,-0.107 2.564,-9.36 6.281,-16.003 21.211,-16.156 16.221,0 19.298,13.678 19.727,16.191 0.012,0.07 0.069,0.113 0.141,0.112 1.318,-0.005 2.672,-0.008 4.065,-0.008 h 0.003 c 16.394,0 32.975,0.425 33.14,0.429 l 2.748,0.073 c 0.02,0 0.041,0.004 0.059,0.014 l 2.475,1.196 c 4.801,2.318 8.012,6.601 8.812,11.75 1.396,8.986 -5.228,17.425 -11.031,22.921"
             style="fill:#42538d;fill-opacity:1;fill-rule:nonzero;stroke:none"
             id="path48" /></g></g></g></g></svg>
