<?xml version="1.0" encoding="UTF-8" standalone="no"?>
<svg
   xmlns:dc="http://purl.org/dc/elements/1.1/"
   xmlns:cc="http://creativecommons.org/ns#"
   xmlns:rdf="http://www.w3.org/1999/02/22-rdf-syntax-ns#"
   xmlns:svg="http://www.w3.org/2000/svg"
   xmlns="http://www.w3.org/2000/svg"
   version="1.1"
   id="svg3336"
   xml:space="preserve"
   width="200"
   height="200"
   viewBox="0 0 200 200"><metadata
     id="metadata3342"><rdf:RDF><cc:Work
         rdf:about=""><dc:format>image/svg+xml</dc:format><dc:type
           rdf:resource="http://purl.org/dc/dcmitype/StillImage" /><dc:title></dc:title></cc:Work></rdf:RDF></metadata><defs
     id="defs3340"><clipPath
       clipPathUnits="userSpaceOnUse"
       id="clipPath3352"><path
         d="M 0,150 H 150 V 0 H 0 Z"
         id="path3350" /></clipPath></defs><g
     id="g3344"
     transform="matrix(1.3333333,0,0,-1.3333333,0,200)"><g
       id="g3346"><g
         id="g3348"
         clip-path="url(#clipPath3352)"><g
           id="g3354"
           transform="translate(70,145)"><path
             d="m 0,0 v -65 h -65 c -2.761,0 -5,-2.239 -5,-5 0,-2.762 2.239,-5 5,-5 H 0 v -65 c 0,-2.762 2.239,-5 5,-5 2.762,0 5,2.238 5,5 v 65 h 65 c 2.762,0 5,2.238 5,5 0,2.761 -2.238,5 -5,5 H 10 V 0 C 10,2.761 7.762,5 5,5 2.239,5 0,2.761 0,0"
             style="fill:#42538d;fill-opacity:1;fill-rule:nonzero;stroke:none"
             id="path3356" /></g></g></g></g></svg>
