<?xml version="1.0" encoding="UTF-8" standalone="no"?>
<svg
   xmlns:dc="http://purl.org/dc/elements/1.1/"
   xmlns:cc="http://creativecommons.org/ns#"
   xmlns:rdf="http://www.w3.org/1999/02/22-rdf-syntax-ns#"
   xmlns:svg="http://www.w3.org/2000/svg"
   xmlns="http://www.w3.org/2000/svg"
   version="1.1"
   id="svg206"
   xml:space="preserve"
   width="200"
   height="200"
   viewBox="0 0 200 200"><metadata
     id="metadata212"><rdf:RDF><cc:Work
         rdf:about=""><dc:format>image/svg+xml</dc:format><dc:type
           rdf:resource="http://purl.org/dc/dcmitype/StillImage" /><dc:title></dc:title></cc:Work></rdf:RDF></metadata><defs
     id="defs210"><clipPath
       clipPathUnits="userSpaceOnUse"
       id="clipPath222"><path
         d="M 0,150 H 150 V 0 H 0 Z"
         id="path220" /></clipPath></defs><g
     id="g214"
     transform="matrix(1.3333333,0,0,-1.3333333,0,200)"><g
       id="g216"><g
         id="g218"
         clip-path="url(#clipPath222)"><g
           id="g224"
           transform="translate(66.4531,14.1787)"><path
             d="m 0,0 c 0.003,-0.921 1.175,-1.311 1.728,-0.573 l 9.533,12.708 36.529,51.877 c 0.15,0.213 0.283,0.455 0.126,0.867 -0.047,0.123 -0.23,0.529 -0.63,0.622 0,0 -0.11,0.02 -0.151,0.023 l -0.353,0.029 -25.438,3.878 c -3.283,0.501 -5.675,3.376 -5.569,6.696 l 1.475,46.116 c 0.031,0.96 -1.21,1.365 -1.752,0.573 l -44.941,-65.72 c -0.391,-0.572 -0.067,-1.357 0.613,-1.486 l 23.348,-4.421 c 3.09,-0.585 5.33,-3.28 5.34,-6.425 z M 55.967,58.255 19.35,6.254 6.858,-10.398 c -5.688,-7.584 -17.753,-2.91 -16.846,6.527 l -0.144,45.764 -23.081,4.37 c -0.027,0.004 -0.052,0.01 -0.079,0.014 l -0.552,0.105 -10e-4,0.023 c -6.031,1.384 -9.161,8.573 -5.443,14.011 l 48.714,71.237 c 5.907,8.25 18.926,3.341 17.914,-6.756 l -1.473,-46.04 22.072,-3.365 c 0.533,-0.043 1.049,-0.123 1.55,-0.236 l 0.057,-0.009 v -0.005 c 7.267,-1.685 11.029,-10.443 6.421,-16.987"
             style="fill:#42538d;fill-opacity:1;fill-rule:nonzero;stroke:none"
             id="path226" /></g><g
           id="g228"
           transform="translate(121.6572,44.7705)"><path
             d="m 0,0 c 0,-11.452 -9.284,-20.735 -20.736,-20.735 -11.452,0 -20.736,9.283 -20.736,20.735 0,11.452 9.284,20.735 20.736,20.735 C -9.284,20.735 0,11.452 0,0"
             style="fill:#42538d;fill-opacity:1;fill-rule:nonzero;stroke:none"
             id="path230" /></g><g
           id="g232"
           transform="translate(100.8721,48.71)"><path
             d="M 0,0 -2.356,-5.621 H 2.405 L 0.049,0 Z m -6.947,-12.813 c -0.77,0 -1.334,0.261 -1.694,0.785 -0.36,0.524 -0.36,1.178 0,1.964 l 6.113,13.158 c 0.294,0.637 0.654,1.104 1.08,1.398 0.425,0.295 0.924,0.443 1.497,0.443 0.556,0 1.047,-0.148 1.472,-0.443 C 1.947,4.198 2.308,3.731 2.602,3.094 l 6.112,-13.158 c 0.377,-0.802 0.393,-1.46 0.05,-1.976 -0.344,-0.516 -0.884,-0.773 -1.62,-0.773 -0.656,0 -1.159,0.147 -1.51,0.441 -0.353,0.295 -0.667,0.769 -0.946,1.424 l -0.785,1.866 h -7.732 l -0.786,-1.866 c -0.295,-0.655 -0.598,-1.129 -0.908,-1.424 -0.312,-0.294 -0.786,-0.441 -1.424,-0.441"
             style="fill:#ffffff;fill-opacity:1;fill-rule:nonzero;stroke:none"
             id="path234" /></g></g></g></g></svg>
