<?xml version="1.0" encoding="UTF-8" standalone="no"?>
<svg
   xmlns:dc="http://purl.org/dc/elements/1.1/"
   xmlns:cc="http://creativecommons.org/ns#"
   xmlns:rdf="http://www.w3.org/1999/02/22-rdf-syntax-ns#"
   xmlns:svg="http://www.w3.org/2000/svg"
   xmlns="http://www.w3.org/2000/svg"
   version="1.1"
   id="svg948"
   xml:space="preserve"
   width="200"
   height="200"
   viewBox="0 0 200 200"><metadata
     id="metadata954"><rdf:RDF><cc:Work
         rdf:about=""><dc:format>image/svg+xml</dc:format><dc:type
           rdf:resource="http://purl.org/dc/dcmitype/StillImage" /><dc:title></dc:title></cc:Work></rdf:RDF></metadata><defs
     id="defs952"><clipPath
       clipPathUnits="userSpaceOnUse"
       id="clipPath964"><path
         d="M 0,150 H 150 V 0 H 0 Z"
         id="path962" /></clipPath></defs><g
     id="g956"
     transform="matrix(1.3333333,0,0,-1.3333333,0,200)"><g
       id="g958"><g
         id="g960"
         clip-path="url(#clipPath964)"><g
           id="g966"
           transform="translate(91.6963,26.3896)"><path
             d="m 0,0 h -73.569 c -5.817,0 -7.888,2.07 -7.888,7.888 v 67.957 c 0,5.817 2.071,7.887 7.871,7.887 h 23.953 c 6.382,0 9.102,2.704 9.136,9.017 v 0.735 c -0.03,0.57 -0.03,1.141 0,1.711 0.188,1.882 1.146,2.156 2.139,2.156 H 5.048 c 1.095,0 1.864,-0.171 2.035,-2.122 v -1.881 -0.839 c 0,-5.851 2.875,-8.691 8.657,-8.708 h 24.877 c 5.406,0 7.511,-2.088 7.529,-7.374 V 7.99 c 0,-5.646 -2.259,-7.853 -7.991,-7.853 z m 58.304,75.333 v 0 c 0,11.755 -8.316,20.022 -20.153,20.12 H 25.108 19.06 c -1.843,8.282 -7.582,12.815 -16.305,12.848 h -4.892 c -11.201,0 -22.825,0 -34.238,-0.098 -3,-0.062 -5.949,-0.78 -8.642,-2.103 -4.153,-2.091 -7.034,-6.066 -7.728,-10.663 h -4.158 -14.674 C -83.544,95.338 -91.696,87.154 -91.696,75.072 V 9.284 c 0,-12.212 8.152,-20.364 20.201,-20.364 h 54.179 55.304 c 12.163,0 20.316,8.152 20.316,20.315 z"
             style="fill:#42538d;fill-opacity:1;fill-rule:nonzero;stroke:none"
             id="path968" /></g><g
           id="g970"
           transform="translate(74.96,47.3203)"><path
             d="m 0,0 c -5.641,0 -10.954,2.188 -14.961,6.159 -8.32,8.249 -8.379,21.732 -0.13,30.053 4.021,4.056 9.381,6.289 15.093,6.289 5.641,0 10.953,-2.188 14.959,-6.159 L 16.1,35.214 C 19.448,31.383 21.294,26.532 21.329,21.395 21.409,9.678 11.94,0.08 0.224,0 Z M 22.002,43.443 C 9.745,55.595 -10.041,55.509 -22.192,43.252 -34.343,30.996 -34.257,11.209 -22,-0.942 -16.13,-6.763 -8.192,-10.02 0.074,-10 h 0.218 c 17.259,0.118 31.154,14.204 31.037,31.463 -0.057,8.261 -3.382,16.164 -9.249,21.98 z"
             style="fill:#42538d;fill-opacity:1;fill-rule:nonzero;stroke:none"
             id="path972" /></g><g
           id="g974"
           transform="translate(119.2725,97.4482)"><path
             d="m 0,0 v 0 c -2.719,0.062 -4.973,-2.083 -5.034,-4.79 -0.001,-0.044 -0.002,-0.089 -0.002,-0.133 -0.039,-2.764 2.178,-5.036 4.953,-5.076 0.004,0 0.008,0 0.011,0 2.756,0.033 4.986,2.24 5.036,4.984 0.01,1.318 -0.507,2.586 -1.438,3.523 C 2.595,-0.551 1.327,-0.014 0,0"
             style="fill:#42538d;fill-opacity:1;fill-rule:nonzero;stroke:none"
             id="path976" /></g></g></g></g></svg>
