<?xml version="1.0" encoding="UTF-8" standalone="no"?>
<svg
   xmlns:dc="http://purl.org/dc/elements/1.1/"
   xmlns:cc="http://creativecommons.org/ns#"
   xmlns:rdf="http://www.w3.org/1999/02/22-rdf-syntax-ns#"
   xmlns:svg="http://www.w3.org/2000/svg"
   xmlns="http://www.w3.org/2000/svg"
   version="1.1"
   id="svg1486"
   xml:space="preserve"
   width="200"
   height="200"
   viewBox="0 0 200 200"><metadata
     id="metadata1492"><rdf:RDF><cc:Work
         rdf:about=""><dc:format>image/svg+xml</dc:format><dc:type
           rdf:resource="http://purl.org/dc/dcmitype/StillImage" /><dc:title></dc:title></cc:Work></rdf:RDF></metadata><defs
     id="defs1490"><clipPath
       clipPathUnits="userSpaceOnUse"
       id="clipPath1502"><path
         d="M 0,150 H 150 V 0 H 0 Z"
         id="path1500" /></clipPath></defs><g
     id="g1494"
     transform="matrix(1.3333333,0,0,-1.3333333,0,200)"><g
       id="g1496"><g
         id="g1498"
         clip-path="url(#clipPath1502)"><g
           id="g1504"
           transform="translate(140,75)"><path
             d="m 0,0 c 0,35.841 -29.159,65 -65,65 -35.84,0 -65,-29.159 -65,-65 0,-35.841 29.16,-65 65,-65 35.841,0 65,29.159 65,65 m 10,0 c 0,-41.421 -33.579,-75 -75,-75 -41.421,0 -75,33.579 -75,75 0,41.421 33.579,75 75,75 41.421,0 75,-33.579 75,-75"
             style="fill:#42538d;fill-opacity:1;fill-rule:nonzero;stroke:none"
             id="path1506" /></g><g
           id="g1508"
           transform="translate(81.9131,75)"><path
             d="m 0,0 16.655,16.656 c 1.909,1.908 1.909,5.004 0,6.912 -1.909,1.909 -5.004,1.909 -6.913,0 L -6.913,6.913 -23.569,23.568 c -1.909,1.909 -5.004,1.909 -6.912,0 -1.91,-1.908 -1.91,-5.004 0,-6.912 L -13.826,0 -30.481,-16.655 c -1.91,-1.909 -1.91,-5.004 0,-6.913 1.908,-1.91 5.003,-1.91 6.912,0 L -6.913,-6.913 9.742,-23.568 c 1.909,-1.91 5.004,-1.91 6.913,0 1.909,1.909 1.909,5.004 0,6.913 z"
             style="fill:#42538d;fill-opacity:1;fill-rule:nonzero;stroke:none"
             id="path1510" /></g></g></g></g></svg>
