<?xml version="1.0" encoding="UTF-8" standalone="no"?>
<svg
   xmlns:dc="http://purl.org/dc/elements/1.1/"
   xmlns:cc="http://creativecommons.org/ns#"
   xmlns:rdf="http://www.w3.org/1999/02/22-rdf-syntax-ns#"
   xmlns:svg="http://www.w3.org/2000/svg"
   xmlns="http://www.w3.org/2000/svg"
   version="1.1"
   id="svg1186"
   xml:space="preserve"
   width="200"
   height="200"
   viewBox="0 0 200 200"><metadata
     id="metadata1192"><rdf:RDF><cc:Work
         rdf:about=""><dc:format>image/svg+xml</dc:format><dc:type
           rdf:resource="http://purl.org/dc/dcmitype/StillImage" /><dc:title></dc:title></cc:Work></rdf:RDF></metadata><defs
     id="defs1190"><clipPath
       clipPathUnits="userSpaceOnUse"
       id="clipPath1202"><path
         d="M 0,150 H 150 V 0 H 0 Z"
         id="path1200" /></clipPath></defs><g
     id="g1194"
     transform="matrix(1.3333333,0,0,-1.3333333,0,200)"><g
       id="g1196"><g
         id="g1198"
         clip-path="url(#clipPath1202)"><g
           id="g1204"
           transform="translate(60.0322,26.2695)"><path
             d="m 0,0 c 4.004,3.002 8.014,6.005 12.029,9.008 2.058,1.579 4.502,2.591 7.076,2.93 l 0.346,0.046 0.348,0.022 c 6.273,0.386 12.531,1.411 18.601,3.05 15.158,4.327 26.237,11.36 33.871,21.501 7.991,10.614 9.73,21.568 5.317,33.492 -3.331,9.01 -9.729,16.242 -20.066,22.718 -10.791,6.637 -23.18,10.517 -35.83,11.218 l -0.242,0.017 c -2.253,0.18 -4.541,0.271 -6.802,0.271 -8.61,0 -17.145,-1.295 -25.3,-3.831 -13.58,-4.326 -23.758,-10.903 -31.116,-20.108 l -0.189,-0.23 c -5.949,-7.004 -8.829,-16.265 -7.904,-25.383 0.995,-9.561 5.618,-17.883 14.132,-25.439 7.632,-6.568 16.81,-11.405 26.543,-13.988 L -9.08,15.266 C -3.395,13.69 0,9.224 0,3.316 Z m -10,-5.017 v 8.333 c 0,1.396 -0.396,1.937 -1.75,2.312 -11.275,2.993 -21.725,8.506 -30.56,16.123 -9.644,8.541 -16.144,18.915 -17.498,31.935 -1.207,11.898 2.486,23.775 10.228,32.892 9.374,11.727 21.769,18.893 35.892,23.393 11.614,3.61 23.811,4.967 35.934,3.999 14.35,-0.796 28.275,-5.156 40.516,-12.686 C 73.636,94.472 82.447,85.744 86.968,73.517 92.696,58.039 90.092,43.604 80.26,30.542 70.428,17.481 56.658,9.857 41.077,5.42 34.321,3.592 27.397,2.454 20.413,2.024 19.562,1.912 18.756,1.574 18.079,1.046 10.65,-4.51 3.241,-10.064 -4.147,-15.619 c -1.073,-1.124 -2.715,-1.493 -4.166,-0.938 -1.625,0.73 -1.729,2.25 -1.708,3.833 0.021,2.583 0.021,5.146 0.021,7.707"
             style="fill:#42538d;fill-opacity:1;fill-rule:nonzero;stroke:none"
             id="path1206" /></g></g></g></g></svg>
