<?xml version="1.0" encoding="UTF-8" standalone="no"?>
<svg
   xmlns:dc="http://purl.org/dc/elements/1.1/"
   xmlns:cc="http://creativecommons.org/ns#"
   xmlns:rdf="http://www.w3.org/1999/02/22-rdf-syntax-ns#"
   xmlns:svg="http://www.w3.org/2000/svg"
   xmlns="http://www.w3.org/2000/svg"
   version="1.1"
   id="svg2904"
   xml:space="preserve"
   width="200"
   height="200"
   viewBox="0 0 200 200"><metadata
     id="metadata2910"><rdf:RDF><cc:Work
         rdf:about=""><dc:format>image/svg+xml</dc:format><dc:type
           rdf:resource="http://purl.org/dc/dcmitype/StillImage" /><dc:title></dc:title></cc:Work></rdf:RDF></metadata><defs
     id="defs2908"><clipPath
       clipPathUnits="userSpaceOnUse"
       id="clipPath2920"><path
         d="M 0,150 H 150 V 0 H 0 Z"
         id="path2918" /></clipPath></defs><g
     id="g2912"
     transform="matrix(1.3333333,0,0,-1.3333333,0,200)"><g
       id="g2914"><g
         id="g2916"
         clip-path="url(#clipPath2920)"><g
           id="g2922"
           transform="translate(32.8828,124.7544)"><path
             d="m 0,0 c -1.419,0 -2.882,-0.05 -4.349,-0.15 -3.745,-0.257 -10.014,-0.685 -12.442,-4.719 -3.446,-5.726 -3.877,-13.36 -1.154,-20.421 1.402,-3.634 4.888,-6.764 7.964,-9.526 l 1.062,-0.957 c 2.013,-1.832 4.02,-3.737 5.961,-5.58 0.772,-0.733 1.544,-1.466 2.319,-2.196 1.339,-1.264 3.026,-2.519 4.657,-3.733 1.609,-1.197 3.273,-2.434 4.57,-3.658 0.052,-0.049 0.205,-0.211 0.42,-0.435 2.579,-2.7 3.011,-2.982 3.38,-2.982 h 0.086 l 0.1,0.031 c 0.029,0.01 2.984,1.038 7.84,2.14 l 0.609,0.138 -0.264,0.565 c -0.265,0.569 -0.819,1.474 -1.098,1.872 -1.889,2.678 -3.993,5.273 -5.986,7.677 -1.875,2.264 -3.814,4.603 -5.027,7.314 -2.233,4.989 -1.815,6.646 -1.368,7.191 0.142,0.172 0.277,0.192 0.366,0.192 0.125,0 0.268,-0.045 0.418,-0.132 0.678,-0.389 1.11,-1 1.405,-1.979 3.111,-8.418 11.573,-18.012 15.068,-21.748 l 0.187,-0.201 0.271,0.049 c 6.472,1.187 13.328,1.813 19.823,1.813 10.77,0 20.792,-1.649 29.787,-4.903 l 0.342,0.946 c 0.21,-0.075 0.29,-0.274 0.286,-0.362 0.026,0.613 2.027,4.691 2.334,5.227 2.414,4.206 6.324,7.439 10.106,10.564 2.981,2.464 6.063,5.011 8.455,8.051 4.58,5.821 7.185,12.742 6.968,18.514 -0.084,2.219 -0.73,4.216 -1.921,5.938 -0.697,1.011 -1.605,1.957 -2.697,2.814 -2.235,1.752 -4.907,3.34 -8.41,4.998 -0.854,0.403 -1.627,0.745 -2.362,1.045 L 87.325,2.465 c -0.001,-0.03 0.083,-0.314 0.123,-0.449 0.037,-0.126 0.073,-0.24 0.107,-0.321 0.294,-0.708 0.544,-1.4 0.765,-2.115 0.477,-1.546 0.881,-3.141 1.202,-4.739 0.71,-3.529 1.357,-7.637 0.779,-11.341 -0.53,-3.399 -1.961,-6.637 -4.134,-9.363 -1.453,-1.822 -3.318,-3.562 -5.545,-5.174 l -0.351,-0.255 c -1.636,-1.193 -3.673,-2.675 -5.758,-2.676 -0.161,0 -0.324,0.009 -0.487,0.027 -0.251,0.027 -0.307,0.092 -0.307,0.093 -0.13,0.252 0.608,1.41 1.719,2.471 0.776,0.739 1.612,1.445 2.42,2.127 1.349,1.138 2.742,2.315 3.917,3.698 1.9,2.236 3.323,4.598 4.228,7.02 1.237,3.319 1.484,6.866 0.713,10.261 -1.33,5.863 -3.179,11.751 -7.662,15.103 -3.928,2.937 -9.348,4.689 -14.501,4.689 -1.666,0 -3.269,-0.183 -4.761,-0.542 C 56.039,10.073 52.245,8.21 48.516,5.442 45.673,3.332 41.779,0.441 40.178,-3.408 l 0.928,-0.391 -0.439,-0.265 -0.441,0.266 c 0.157,-0.319 0.453,-0.364 0.573,-0.369 0.735,-0.028 1.469,-0.095 2.202,-0.162 0.522,-0.046 1.044,-0.106 1.566,-0.164 0.847,-0.095 1.722,-0.194 2.59,-0.241 0.531,-0.03 1.063,-0.044 1.595,-0.044 2.136,0 4.397,0.209 7.331,0.676 0.874,0.14 1.748,0.425 2.592,0.7 1.149,0.374 2.337,0.76 3.488,0.76 0.337,0 0.653,-0.031 0.964,-0.096 0.058,-0.012 0.115,-0.025 0.169,-0.04 0.676,-0.178 0.86,-0.303 0.901,-0.378 -0.029,-0.101 -0.324,-0.305 -0.881,-0.583 L 63.212,-3.791 C 60.74,-5.042 58.114,-5.893 55.403,-6.316 53.397,-6.63 51.213,-6.782 48.724,-6.782 l -0.388,0.001 c -8.338,0.052 -16.535,1.702 -23.454,3.31 -1.017,0.236 -2.028,0.479 -3.034,0.722 -5.425,1.31 -10.549,2.547 -16.154,2.547 -0.267,0 -0.534,-0.003 -0.802,-0.009 C 3.353,-0.072 1.689,0 0,0 m 15.318,-71.296 v -25.412 l 0.76,0.452 c 9.329,5.529 20.122,6.283 28.482,6.322 h 0.129 c 9.244,-0.046 18.205,-2.126 26.633,-6.182 l 0.722,-0.348 v 21.127 c 0,6.98 -0.121,7.155 -6.467,9.362 -0.377,0.128 -0.764,0.234 -1.153,0.317 -6.436,1.581 -13.065,2.385 -19.685,2.385 h -0.182 c -5.152,-0.019 -10.349,-0.441 -15.446,-1.253 -3.237,-0.621 -6.438,-1.529 -9.528,-2.7 l -2.51,-0.86 c -0.843,-0.291 -1.624,-0.831 -1.725,-2.707 h -0.011 z m 29.238,-32.733 c -6.547,-0.03 -14.884,-0.553 -21.291,-4.352 l -1.826,-1.083 1.273,-0.262 c 6.771,-1.401 13.686,-2.116 20.549,-2.126 6.018,0.002 12.077,0.547 18.005,1.619 0.949,0.198 1.876,0.424 2.803,0.65 l 1.823,0.441 -1.306,0.606 c -6.364,2.957 -13.083,4.474 -19.969,4.507 z m -1.371,-20.725 c -9.379,0.012 -18.705,1.328 -27.72,3.911 -2.111,0.629 -4.196,1.44 -6.19,2.409 -4.816,2.01 -7.739,6.84 -7.302,12.03 0.134,3.626 0.134,7.621 0.002,11.901 v 11.8 c 0,5.67 0,11.533 -0.17,17.252 -0.308,2.174 -1.256,4.103 -2.744,5.634 -2.159,2.282 -4.69,4.733 -7.317,7.081 -2.251,2.011 -4.763,4.458 -7.265,7.077 l -1.456,1.536 c -4.161,4.069 -7.951,8.539 -11.28,13.297 -5.267,7.621 -6.09,17.571 -2.145,25.964 4.291,9.526 12.982,16.198 23.252,17.858 3.299,0.451 6.66,0.681 9.977,0.681 5.901,0 11.58,-0.713 16.88,-2.118 L 26.712,9.775 34.37,7.846 c 0.386,-0.107 0.642,-0.178 0.888,-0.178 0.646,0 0.927,0.486 1.25,1.048 6.076,10.505 16.918,16.53 29.74,16.53 6.611,0 13.315,-1.632 19.386,-4.718 2.774,-1.411 5.442,-3.553 8.395,-6.742 0.699,-0.7 1.561,-1.161 2.507,-1.348 7.742,-1.357 14.467,-6.367 18.001,-13.405 3.428,-6.74 3.428,-14.783 0.002,-21.52 -2.409,-4.333 -5.323,-8.409 -8.652,-12.098 l -0.449,-0.528 c -0.971,-1.144 -1.889,-2.224 -2.781,-3.355 -1.468,-1.89 -2.999,-3.685 -4.478,-5.421 l -1.297,-1.524 c -2.346,-2.781 -4.734,-5.699 -7.302,-8.922 -2.853,-3.9 -4.286,-8.688 -4.046,-13.499 0.168,-14.348 0.218,-29.146 0.242,-40.432 0.077,-4.197 -2.522,-7.928 -6.466,-9.289 -5.924,-2.412 -12.078,-4.293 -18.316,-5.599 -5.855,-1.059 -11.853,-1.599 -17.809,-1.6"
             style="fill:#42538d;fill-opacity:1;fill-rule:nonzero;stroke:none"
             id="path2924" /></g></g></g></g></svg>
