<?xml version="1.0" encoding="UTF-8" standalone="no"?>
<svg
   xmlns:dc="http://purl.org/dc/elements/1.1/"
   xmlns:cc="http://creativecommons.org/ns#"
   xmlns:rdf="http://www.w3.org/1999/02/22-rdf-syntax-ns#"
   xmlns:svg="http://www.w3.org/2000/svg"
   xmlns="http://www.w3.org/2000/svg"
   version="1.1"
   id="svg1220"
   xml:space="preserve"
   width="200"
   height="200"
   viewBox="0 0 200 200"><metadata
     id="metadata1226"><rdf:RDF><cc:Work
         rdf:about=""><dc:format>image/svg+xml</dc:format><dc:type
           rdf:resource="http://purl.org/dc/dcmitype/StillImage" /><dc:title></dc:title></cc:Work></rdf:RDF></metadata><defs
     id="defs1224"><clipPath
       clipPathUnits="userSpaceOnUse"
       id="clipPath1236"><path
         d="M 0,150 H 150 V 0 H 0 Z"
         id="path1234" /></clipPath></defs><g
     id="g1228"
     transform="matrix(1.3333333,0,0,-1.3333333,0,200)"><g
       id="g1230"><g
         id="g1232"
         clip-path="url(#clipPath1236)"><g
           id="g1238"
           transform="translate(136.3926,75)"><path
             d="m 0,0 c 0,-33.906 -27.486,-61.393 -61.393,-61.393 -33.906,0 -61.393,27.487 -61.393,61.393 0,33.906 27.487,61.393 61.393,61.393 C -27.486,61.393 0,33.906 0,0"
             style="fill:#ffffff;fill-opacity:1;fill-rule:nonzero;stroke:none"
             id="path1240" /></g><g
           id="g1242"
           transform="translate(75,28.6074)"><path
             d="m 0,0 c -25.581,0 -46.393,20.812 -46.393,46.393 0,25.581 20.812,46.393 46.393,46.393 25.581,0 46.393,-20.812 46.393,-46.393 C 46.393,20.812 25.581,0 0,0"
             style="fill:#42538d;fill-opacity:1;fill-rule:nonzero;stroke:none"
             id="path1244" /></g><g
           id="g1246"
           transform="translate(98.8105,77.6455)"><path
             d="m 0,0 h -21.165 v 21.165 c 0,1.461 -1.185,2.646 -2.646,2.646 -1.46,0 -2.645,-1.185 -2.645,-2.646 V 0 h -21.165 c -1.461,0 -2.646,-1.185 -2.646,-2.646 0,-1.46 1.185,-2.645 2.646,-2.645 h 21.165 v -21.165 c 0,-1.461 1.185,-2.646 2.645,-2.646 1.461,0 2.646,1.185 2.646,2.646 V -5.291 H 0 c 1.461,0 2.646,1.185 2.646,2.645 C 2.646,-1.185 1.461,0 0,0"
             style="fill:#ffffff;fill-opacity:1;fill-rule:nonzero;stroke:none"
             id="path1248" /></g></g></g></g></svg>
