<?xml version="1.0" encoding="UTF-8" standalone="no"?>
<svg
   xmlns:dc="http://purl.org/dc/elements/1.1/"
   xmlns:cc="http://creativecommons.org/ns#"
   xmlns:rdf="http://www.w3.org/1999/02/22-rdf-syntax-ns#"
   xmlns:svg="http://www.w3.org/2000/svg"
   xmlns="http://www.w3.org/2000/svg"
   version="1.1"
   id="svg2156"
   xml:space="preserve"
   width="200"
   height="200"
   viewBox="0 0 200 200"><metadata
     id="metadata2162"><rdf:RDF><cc:Work
         rdf:about=""><dc:format>image/svg+xml</dc:format><dc:type
           rdf:resource="http://purl.org/dc/dcmitype/StillImage" /><dc:title></dc:title></cc:Work></rdf:RDF></metadata><defs
     id="defs2160"><clipPath
       clipPathUnits="userSpaceOnUse"
       id="clipPath2172"><path
         d="M 0,150 H 150 V 0 H 0 Z"
         id="path2170" /></clipPath></defs><g
     id="g2164"
     transform="matrix(1.3333333,0,0,-1.3333333,0,200)"><g
       id="g2166"><g
         id="g2168"
         clip-path="url(#clipPath2172)"><g
           id="g2174"
           transform="translate(11.9146,11.0439)"><path
             d="m 0,0 23.494,8.287 c 1.184,0.417 2.258,1.096 3.144,1.984 l 71.253,71.485 0.453,0.515 24.162,24.352 0.526,0.404 c 0.242,0.187 0.352,0.287 0.405,0.34 0.533,0.525 1.033,1.071 1.485,1.625 l 0.049,0.06 c 2.166,2.676 3.211,5.533 3.108,8.493 -0.081,2.342 -0.911,4.66 -2.391,6.698 -1.404,1.929 -3.167,3.226 -5.395,3.967 -1.485,0.495 -2.995,0.746 -4.485,0.746 -2.191,0 -4.31,-0.56 -6.135,-1.625 -0.279,-0.163 -0.609,-0.383 -1.016,-0.678 -0.64,-0.463 -1.204,-0.949 -1.688,-1.454 -0.321,-0.336 -0.604,-0.678 -0.865,-1.044 L 105.606,123.453 80.987,99.002 9.79,27.574 C 8.937,26.718 8.265,25.663 7.846,24.523 L -0.848,0.858 C -1.042,0.328 -0.532,-0.188 0,0 m 132.666,102.664 -0.002,-0.002 c -0.661,-0.809 -1.396,-1.619 -2.215,-2.425 -0.418,-0.41 -0.859,-0.78 -1.311,-1.129 L 105.636,75.422 c -0.187,-0.211 -0.365,-0.427 -0.566,-0.629 L 33.721,3.213 C 31.775,1.262 29.417,-0.228 26.822,-1.144 L 0.28,-10.506 c -7.298,-2.575 -14.287,4.542 -11.612,11.825 l 9.791,26.653 c 0.92,2.503 2.37,4.776 4.249,6.662 l 71.195,71.428 24.045,23.879 c 0.518,0.729 1.111,1.456 1.8,2.175 0.923,0.968 1.952,1.847 3.049,2.641 0.595,0.43 1.204,0.843 1.841,1.214 3.343,1.951 7.208,2.985 11.169,2.985 2.566,0 5.138,-0.423 7.647,-1.258 4.213,-1.403 7.683,-3.949 10.319,-7.57 2.663,-3.665 4.148,-7.893 4.3,-12.234 0.136,-3.92 -0.763,-9.543 -5.407,-15.23 z"
             style="fill:#42538d;fill-opacity:1;fill-rule:nonzero;stroke:none"
             id="path2176" /></g></g></g></g></svg>
