<?xml version="1.0" encoding="UTF-8" standalone="no"?>
<svg
   xmlns:dc="http://purl.org/dc/elements/1.1/"
   xmlns:cc="http://creativecommons.org/ns#"
   xmlns:rdf="http://www.w3.org/1999/02/22-rdf-syntax-ns#"
   xmlns:svg="http://www.w3.org/2000/svg"
   xmlns="http://www.w3.org/2000/svg"
   version="1.1"
   id="svg28"
   xml:space="preserve"
   width="200"
   height="200"
   viewBox="0 0 200 200"><metadata
     id="metadata34"><rdf:RDF><cc:Work
         rdf:about=""><dc:format>image/svg+xml</dc:format><dc:type
           rdf:resource="http://purl.org/dc/dcmitype/StillImage" /><dc:title></dc:title></cc:Work></rdf:RDF></metadata><defs
     id="defs32"><clipPath
       clipPathUnits="userSpaceOnUse"
       id="clipPath44"><path
         d="M 0,150 H 150 V 0 H 0 Z"
         id="path42" /></clipPath></defs><g
     id="g36"
     transform="matrix(1.3333333,0,0,-1.3333333,0,200)"><g
       id="g38"><g
         id="g40"
         clip-path="url(#clipPath44)"><g
           id="g46"
           transform="translate(13.3984,10)"><path
             d="m 0,0 c -1.804,0.011 -2.826,0.12 -3.403,0.235 0.043,0.817 0.342,2.5 1.584,5.787 5.689,15.197 16.4,26.435 32.752,34.381 9.222,4.476 19.711,6.842 30.325,6.842 21.51,0 41.883,-9.389 54.517,-25.12 4.308,-5.549 7.649,-11.805 9.928,-18.595 0.556,-1.64 0.776,-2.731 0.858,-3.413 C 126.068,0.053 125.357,0 124.342,0 Z m 135.183,6.713 c -2.639,7.86 -6.55,15.173 -11.559,21.608 C 101.273,56.22 59.539,65.4 26.562,49.397 7.825,40.292 -4.547,27.257 -11.175,9.554 -13.09,4.481 -14.645,-1.199 -11.965,-5.409 -9.285,-9.619 -4.187,-9.975 0,-10 h 79.593 44.749 c 3.781,0 8.447,0.507 10.841,4.185 2.392,3.677 1.316,8.648 0,12.528"
             style="fill:#42538d;fill-opacity:1;fill-rule:nonzero;stroke:none"
             id="path48" /></g><g
           id="g50"
           transform="translate(75,83.2168)"><path
             d="m 0,0 c -13.463,0 -24.417,12.736 -24.417,28.392 0,15.655 10.954,28.391 24.417,28.391 13.463,0 24.417,-12.736 24.417,-28.391 C 24.417,12.736 13.463,0 0,0 m 0,-10 c 18.968,0 34.417,17.22 34.417,38.392 0,21.171 -15.449,38.391 -34.417,38.391 -18.968,0 -34.417,-17.22 -34.417,-38.391 C -34.417,7.22 -18.968,-10 0,-10"
             style="fill:#42538d;fill-opacity:1;fill-rule:nonzero;stroke:none"
             id="path52" /></g></g></g></g></svg>
