<?xml version="1.0" encoding="UTF-8" standalone="no"?>
<svg
   xmlns:dc="http://purl.org/dc/elements/1.1/"
   xmlns:cc="http://creativecommons.org/ns#"
   xmlns:rdf="http://www.w3.org/1999/02/22-rdf-syntax-ns#"
   xmlns:svg="http://www.w3.org/2000/svg"
   xmlns="http://www.w3.org/2000/svg"
   version="1.1"
   id="svg86"
   xml:space="preserve"
   width="200"
   height="200"
   viewBox="0 0 200 200"><metadata
     id="metadata92"><rdf:RDF><cc:Work
         rdf:about=""><dc:format>image/svg+xml</dc:format><dc:type
           rdf:resource="http://purl.org/dc/dcmitype/StillImage" /><dc:title></dc:title></cc:Work></rdf:RDF></metadata><defs
     id="defs90"><clipPath
       clipPathUnits="userSpaceOnUse"
       id="clipPath102"><path
         d="M 0,150 H 150 V 0 H 0 Z"
         id="path100" /></clipPath></defs><g
     id="g94"
     transform="matrix(1.3333333,0,0,-1.3333333,0,200)"><g
       id="g96"><g
         id="g98"
         clip-path="url(#clipPath102)"><g
           id="g104"
           transform="translate(66.4561,13.1396)"><path
             d="m 0,0 c 0.002,-0.588 0.75,-0.835 1.102,-0.365 l 10.155,13.538 36.531,51.879 c 0.15,0.212 0.282,0.454 0.125,0.866 -0.047,0.123 -0.23,0.529 -0.629,0.622 l -0.049,0.01 c -0.032,0.006 -0.066,0.01 -0.103,0.013 l -0.353,0.028 -26.119,3.982 c -2.895,0.442 -5.004,2.977 -4.91,5.905 l 1.537,48.04 c 0.019,0.599 -0.756,0.852 -1.095,0.357 L -29.145,58.577 c -0.534,-0.78 -0.091,-1.851 0.838,-2.027 l 23.451,-4.441 c 2.725,-0.515 4.7,-2.892 4.709,-5.666 z M 55.964,59.294 19.347,7.293 6.855,-9.359 c -5.688,-7.584 -17.753,-2.91 -16.846,6.527 l -0.144,45.764 -23.081,4.37 c -0.027,0.004 -0.052,0.011 -0.079,0.014 l -0.552,0.105 -10e-4,0.023 c -6.031,1.384 -9.161,8.573 -5.443,14.011 l 48.714,71.237 c 5.907,8.25 18.926,3.341 17.914,-6.755 L 25.864,79.896 47.937,76.531 c 0.532,-0.043 1.048,-0.123 1.549,-0.236 l 0.057,-0.009 V 76.281 C 56.81,74.596 60.572,65.838 55.964,59.294"
             style="fill:#42538d;fill-opacity:1;fill-rule:nonzero;stroke:none"
             id="path106" /></g></g></g></g></svg>
