<?xml version="1.0" encoding="UTF-8" standalone="no"?>
<svg
   xmlns:dc="http://purl.org/dc/elements/1.1/"
   xmlns:cc="http://creativecommons.org/ns#"
   xmlns:rdf="http://www.w3.org/1999/02/22-rdf-syntax-ns#"
   xmlns:svg="http://www.w3.org/2000/svg"
   xmlns="http://www.w3.org/2000/svg"
   version="1.1"
   id="svg144"
   xml:space="preserve"
   width="200"
   height="200"
   viewBox="0 0 200 200"><metadata
     id="metadata150"><rdf:RDF><cc:Work
         rdf:about=""><dc:format>image/svg+xml</dc:format><dc:type
           rdf:resource="http://purl.org/dc/dcmitype/StillImage" /><dc:title></dc:title></cc:Work></rdf:RDF></metadata><defs
     id="defs148"><clipPath
       clipPathUnits="userSpaceOnUse"
       id="clipPath160"><path
         d="M 0,150 H 150 V 0 H 0 Z"
         id="path158" /></clipPath></defs><g
     id="g152"
     transform="matrix(1.3333333,0,0,-1.3333333,0,200)"><g
       id="g154"><g
         id="g156"
         clip-path="url(#clipPath160)"><g
           id="g162"
           transform="translate(75.2368,12.3711)"><path
             d="m 0,0 c -16.186,0 -31.492,6.211 -43.099,17.487 -11.577,11.249 -18.234,26.32 -18.742,42.437 l -0.039,1.25 -13.357,-0.002 18.966,15.207 18.012,-15.233 -13.571,0.032 0.052,-1.345 C -50.672,31.923 -27.929,10.06 0,10.06 c 12.585,0 24.729,4.585 34.196,12.908 0.903,0.796 2.069,1.233 3.281,1.233 1.472,0 2.871,-0.644 3.841,-1.769 1.797,-2.086 1.506,-5.313 -0.651,-7.195 C 29.403,5.412 14.961,0 0,0"
             style="fill:#42538d;fill-opacity:1;fill-rule:nonzero;stroke:none"
             id="path164" /></g><g
           id="g166"
           transform="translate(113.0234,76.4839)"><path
             d="m 0,0 13.569,-0.033 -0.051,1.345 c -1.105,27.911 -23.847,49.774 -51.777,49.774 -12.584,0 -24.728,-4.584 -34.196,-12.908 -0.905,-0.796 -2.07,-1.235 -3.281,-1.235 -1.472,0 -2.873,0.645 -3.842,1.77 -1.797,2.086 -1.505,5.314 0.652,7.195 11.263,9.826 25.706,15.237 40.667,15.237 16.186,0 31.491,-6.21 43.098,-17.486 C 16.416,32.41 23.072,17.338 23.581,1.222 l 0.039,-1.251 13.357,0.002 -18.965,-15.207 z"
             style="fill:#42538d;fill-opacity:1;fill-rule:nonzero;stroke:none"
             id="path168" /></g></g></g></g></svg>
