<?xml version="1.0" encoding="UTF-8" standalone="no"?>
<svg
   xmlns:dc="http://purl.org/dc/elements/1.1/"
   xmlns:cc="http://creativecommons.org/ns#"
   xmlns:rdf="http://www.w3.org/1999/02/22-rdf-syntax-ns#"
   xmlns:svg="http://www.w3.org/2000/svg"
   xmlns="http://www.w3.org/2000/svg"
   version="1.1"
   id="svg3828"
   xml:space="preserve"
   width="200"
   height="200"
   viewBox="0 0 200 200"><metadata
     id="metadata3834"><rdf:RDF><cc:Work
         rdf:about=""><dc:format>image/svg+xml</dc:format><dc:type
           rdf:resource="http://purl.org/dc/dcmitype/StillImage" /><dc:title></dc:title></cc:Work></rdf:RDF></metadata><defs
     id="defs3832"><clipPath
       clipPathUnits="userSpaceOnUse"
       id="clipPath3844"><path
         d="M 0,150 H 150 V 0 H 0 Z"
         id="path3842" /></clipPath></defs><g
     id="g3836"
     transform="matrix(1.3333333,0,0,-1.3333333,0,200)"><g
       id="g3838"><g
         id="g3840"
         clip-path="url(#clipPath3844)"><g
           id="g3846"
           transform="translate(103.79,48.6455)"><path
             d="m 0,0 v 52.543 c 0,1.392 -1.127,2.519 -2.518,2.519 h -52.544 c -1.391,0 -2.518,-1.127 -2.518,-2.519 V 0 c 0,-1.391 1.127,-2.519 2.518,-2.519 H -2.518 C -1.127,-2.519 0,-1.391 0,0 m 1.169,-12.519 h -59.918 c -4.877,0 -8.832,3.955 -8.832,8.832 v 59.918 c 0,4.877 3.955,8.831 8.832,8.831 H 1.169 C 6.046,65.062 10,61.108 10,56.231 V -3.687 c 0,-4.877 -3.954,-8.832 -8.831,-8.832"
             style="fill:#42538d;fill-opacity:1;fill-rule:nonzero;stroke:none"
             id="path3848" /></g><g
           id="g3850"
           transform="translate(10,105)"><path
             d="M 0,0 V 28.423 C 0,32.056 2.944,35 6.577,35 H 35 c 2.762,0 5,2.239 5,5 0,2.762 -2.238,5 -5,5 H 4.789 C -3.378,45 -10,38.378 -10,30.211 V 0 c 0,-2.762 2.238,-5 5,-5 2.761,0 5,2.238 5,5"
             style="fill:#42538d;fill-opacity:1;fill-rule:nonzero;stroke:none"
             id="path3852" /></g><g
           id="g3854"
           transform="translate(140,45)"><path
             d="M 0,0 V -28.423 C 0,-32.056 -2.944,-35 -6.577,-35 H -35 c -2.762,0 -5,-2.238 -5,-5 0,-2.762 2.238,-5 5,-5 H -4.789 C 3.379,-45 10,-38.379 10,-30.211 V 0 C 10,2.762 7.762,5 5,5 2.238,5 0,2.762 0,0"
             style="fill:#42538d;fill-opacity:1;fill-rule:nonzero;stroke:none"
             id="path3856" /></g><g
           id="g3858"
           transform="translate(45,10)"><path
             d="M 0,0 H -28.423 C -32.056,0 -35,2.945 -35,6.577 V 35 c 0,2.762 -2.239,5 -5,5 -2.762,0 -5,-2.238 -5,-5 V 4.789 C -45,-3.379 -38.378,-10 -30.21,-10 H 0 c 2.762,0 5,2.238 5,5 0,2.762 -2.238,5 -5,5"
             style="fill:#42538d;fill-opacity:1;fill-rule:nonzero;stroke:none"
             id="path3860" /></g><g
           id="g3862"
           transform="translate(105,140)"><path
             d="M 0,0 H 28.423 C 32.056,0 35,-2.945 35,-6.577 V -35 c 0,-2.762 2.238,-5 5,-5 2.762,0 5,2.238 5,5 V -4.79 C 45,3.378 38.379,10 30.211,10 H 0 C -2.762,10 -5,7.762 -5,5 V 5 C -5,2.238 -2.762,0 0,0"
             style="fill:#42538d;fill-opacity:1;fill-rule:nonzero;stroke:none"
             id="path3864" /></g></g></g></g></svg>
