<?xml version="1.0" encoding="UTF-8" standalone="no"?>
<svg
   xmlns:dc="http://purl.org/dc/elements/1.1/"
   xmlns:cc="http://creativecommons.org/ns#"
   xmlns:rdf="http://www.w3.org/1999/02/22-rdf-syntax-ns#"
   xmlns:svg="http://www.w3.org/2000/svg"
   xmlns="http://www.w3.org/2000/svg"
   version="1.1"
   id="svg330"
   xml:space="preserve"
   width="200"
   height="200"
   viewBox="0 0 200 200"><metadata
     id="metadata336"><rdf:RDF><cc:Work
         rdf:about=""><dc:format>image/svg+xml</dc:format><dc:type
           rdf:resource="http://purl.org/dc/dcmitype/StillImage" /><dc:title></dc:title></cc:Work></rdf:RDF></metadata><defs
     id="defs334"><clipPath
       clipPathUnits="userSpaceOnUse"
       id="clipPath346"><path
         d="M 0,150 H 150 V 0 H 0 Z"
         id="path344" /></clipPath></defs><g
     id="g338"
     transform="matrix(1.3333333,0,0,-1.3333333,0,200)"><g
       id="g340"><g
         id="g342"
         clip-path="url(#clipPath346)"><g
           id="g348"
           transform="translate(55.9966,41.8545)"><path
             d="m 0,0 c 5.656,-3.067 12.13,-4.811 19.003,-4.811 6.873,0 13.348,1.744 19.003,4.811 l 19.316,-19.314 c -10.753,-7.876 -23.999,-12.54 -38.319,-12.54 -14.319,0 -27.565,4.664 -38.317,12.54 z m -33.456,71.463 17.27,-17.271 c -3.067,-5.656 -4.811,-12.129 -4.811,-19.003 0,-7.938 2.334,-15.336 6.338,-21.564 L -33.457,-5.172 c -7.875,10.752 -12.54,23.997 -12.54,38.317 0,14.32 4.665,27.565 12.541,38.318 M 57.321,85.605 40.568,68.852 c -6.229,4.003 -13.627,6.337 -21.565,6.337 -7.938,0 -15.336,-2.334 -21.564,-6.337 l -16.753,16.753 c 10.753,7.875 23.998,12.54 38.317,12.54 14.32,0 27.565,-4.665 38.318,-12.54 M -10.997,35.189 c 0,16.542 13.458,30 30,30 16.542,0 30,-13.458 30,-30 0,-16.542 -13.458,-30 -30,-30 -16.542,0 -30,13.458 -30,30 M 52.666,13.625 c 4.003,6.228 6.337,13.626 6.337,21.564 0,6.874 -1.744,13.347 -4.81,19.003 l 17.27,17.271 c 7.876,-10.753 12.54,-23.998 12.54,-38.318 0,-14.32 -4.664,-27.565 -12.54,-38.318 z m -33.663,94.521 c -41.421,0 -75,-33.579 -75,-75 0,-41.422 33.579,-75 75,-75 41.421,0 75,33.578 75,75 0,41.421 -33.579,75 -75,75"
             style="fill:#42538d;fill-opacity:1;fill-rule:nonzero;stroke:none"
             id="path350" /></g></g></g></g></svg>
