<?xml version="1.0" encoding="UTF-8" standalone="no"?>
<svg
   xmlns:dc="http://purl.org/dc/elements/1.1/"
   xmlns:cc="http://creativecommons.org/ns#"
   xmlns:rdf="http://www.w3.org/1999/02/22-rdf-syntax-ns#"
   xmlns:svg="http://www.w3.org/2000/svg"
   xmlns="http://www.w3.org/2000/svg"
   version="1.1"
   id="svg388"
   xml:space="preserve"
   width="200"
   height="200"
   viewBox="0 0 200 200"><metadata
     id="metadata394"><rdf:RDF><cc:Work
         rdf:about=""><dc:format>image/svg+xml</dc:format><dc:type
           rdf:resource="http://purl.org/dc/dcmitype/StillImage" /><dc:title></dc:title></cc:Work></rdf:RDF></metadata><defs
     id="defs392"><clipPath
       clipPathUnits="userSpaceOnUse"
       id="clipPath404"><path
         d="M 0,150 H 150 V 0 H 0 Z"
         id="path402" /></clipPath></defs><g
     id="g396"
     transform="matrix(1.3333333,0,0,-1.3333333,0,200)"><g
       id="g398"><g
         id="g400"
         clip-path="url(#clipPath404)"><g
           id="g406"
           transform="translate(35.3608,22.0586)"><path
             d="m 0,0 c -0.367,0.002 -0.687,0.01 -0.966,0.02 0.18,0.684 0.472,1.612 0.943,2.858 4.69,12.524 13.166,21.405 26.686,27.976 7.521,3.649 16.08,5.58 24.746,5.58 17.563,0 34.189,-7.652 44.491,-20.471 3.5,-4.511 6.214,-9.598 8.068,-15.119 0.105,-0.31 0.194,-0.59 0.269,-0.844 z m 113.448,4.026 c -2.214,6.596 -5.496,12.733 -9.699,18.134 C 84.991,45.572 49.966,53.277 22.292,39.847 6.567,32.206 -3.816,21.266 -9.379,6.41 -10.985,2.153 -12.291,-2.615 -10.042,-6.147 -7.792,-9.681 -3.515,-9.979 0,-10 h 66.795 37.556 c 3.173,0 7.089,0.426 9.097,3.512 2.009,3.086 1.105,7.258 0,10.514"
             style="fill:#42538d;fill-opacity:1;fill-rule:nonzero;stroke:none"
             id="path408" /></g><g
           id="g410"
           transform="translate(87.0586,83.5039)"><path
             d="m 0,0 c -10.413,0 -18.884,9.968 -18.884,22.219 0,12.252 8.471,22.219 18.884,22.219 10.412,0 18.883,-9.967 18.883,-22.219 C 18.883,9.968 10.412,0 0,0 M 0,-10 C 15.918,-10 28.884,4.451 28.884,22.219 28.884,39.987 15.918,54.438 0,54.438 -15.918,54.438 -28.884,39.987 -28.884,22.219 -28.884,4.451 -15.918,-10 0,-10"
             style="fill:#42538d;fill-opacity:1;fill-rule:nonzero;stroke:none"
             id="path412" /></g><g
           id="g414"
           transform="translate(48.0396,80.9326)"><path
             d="m 0,0 h -16.52 v 16.52 c 0,2.761 -2.238,5 -5,5 -2.761,0 -5,-2.239 -5,-5 V 0 h -16.52 c -2.761,0 -5,-2.239 -5,-5 0,-2.762 2.239,-5 5,-5 h 16.52 v -16.52 c 0,-2.761 2.239,-5 5,-5 2.762,0 5,2.239 5,5 V -10 H 0 c 2.761,0 5,2.238 5,5 0,2.761 -2.239,5 -5,5"
             style="fill:#42538d;fill-opacity:1;fill-rule:nonzero;stroke:none"
             id="path416" /></g></g></g></g></svg>
