<?xml version="1.0" encoding="UTF-8" standalone="no"?>
<svg
   xmlns:dc="http://purl.org/dc/elements/1.1/"
   xmlns:cc="http://creativecommons.org/ns#"
   xmlns:rdf="http://www.w3.org/1999/02/22-rdf-syntax-ns#"
   xmlns:svg="http://www.w3.org/2000/svg"
   xmlns="http://www.w3.org/2000/svg"
   version="1.1"
   id="svg928"
   xml:space="preserve"
   width="200"
   height="200"
   viewBox="0 0 200 200"><metadata
     id="metadata934"><rdf:RDF><cc:Work
         rdf:about=""><dc:format>image/svg+xml</dc:format><dc:type
           rdf:resource="http://purl.org/dc/dcmitype/StillImage" /><dc:title></dc:title></cc:Work></rdf:RDF></metadata><defs
     id="defs932"><clipPath
       clipPathUnits="userSpaceOnUse"
       id="clipPath944"><path
         d="M 0,150 H 150 V 0 H 0 Z"
         id="path942" /></clipPath></defs><g
     id="g936"
     transform="matrix(1.3333333,0,0,-1.3333333,0,200)"><g
       id="g938"><g
         id="g940"
         clip-path="url(#clipPath944)"><g
           id="g946"
           transform="translate(0,101.0371)"><path
             d="m 0,0 c 0.392,2.096 0.703,4.211 1.187,6.286 4.019,17.239 18.721,30.68 36.302,32.871 14.01,1.746 26.19,-2.41 36.416,-12.184 0.315,-0.302 0.558,-0.679 0.945,-1.157 0.483,0.456 0.822,0.773 1.158,1.095 9.87,9.456 21.599,13.742 35.225,12.359 19.798,-2.009 35.763,-17.562 38.386,-37.196 1.339,-10.021 -0.953,-19.369 -5.317,-28.311 -5.019,-10.283 -12.017,-19.15 -19.878,-27.361 -13.746,-14.359 -29.386,-26.37 -46.15,-36.976 -2.184,-1.382 -4.192,-1.403 -6.398,-0.014 -19.431,12.23 -37.363,26.259 -52.378,43.756 -7.253,8.453 -13.441,17.61 -16.943,28.303 -1.054,3.216 -1.526,6.623 -2.271,9.941 C 0.21,-8.259 0.096,-7.939 0,-7.616 Z"
             style="fill:#42538d;fill-opacity:1;fill-rule:nonzero;stroke:none"
             id="path948" /></g><g
           id="g950"
           transform="translate(95.7168,93.6279)"><path
             d="m 0,0 c -0.84,1.297 -2.634,2.367 -4.016,2.976 0.069,-0.031 0.148,-0.327 0.174,-0.389 0.146,-0.351 0.269,-0.711 0.375,-1.075 0.336,-1.153 0.494,-2.366 0.415,-3.567 -0.104,-1.584 -0.649,-3.107 -1.592,-4.383 -0.572,-0.776 -1.269,-1.454 -2.027,-2.046 -0.69,-0.54 -1.557,-1.276 -2.495,-1.163 -0.73,0.088 0.212,1.134 0.402,1.331 0.745,0.769 1.599,1.401 2.264,2.247 0.631,0.802 1.152,1.698 1.486,2.667 0.431,1.245 0.522,2.582 0.25,3.872 -0.383,1.826 -1.268,3.675 -2.863,4.711 -0.928,0.603 -1.94,1.086 -2.999,1.409 -3.52,1.076 -6.968,-0.061 -9.49,-2.693 -0.487,-0.508 -0.796,-0.967 -1.032,-1.592 0.031,0.082 0,0 0.07,-0.003 0.268,-0.011 0.535,-0.038 0.802,-0.064 0.494,-0.049 0.99,-0.128 1.486,-0.157 1.06,-0.063 2.125,0.064 3.169,0.244 0.85,0.146 1.707,0.728 2.596,0.527 0.024,-0.005 0.047,-0.012 0.071,-0.019 0.158,-0.044 0.492,-0.136 0.452,-0.361 -0.033,-0.184 -0.306,-0.317 -0.448,-0.394 -0.889,-0.487 -1.862,-0.831 -2.86,-0.999 -0.846,-0.144 -1.71,-0.189 -2.567,-0.183 -2.867,0.019 -5.696,0.594 -8.467,1.29 -2.381,0.597 -4.656,1.318 -7.137,1.26 -2.518,-0.059 -5.457,-0.99 -6.79,-3.259 -1.136,-1.937 -1.708,-4.254 -0.931,-6.43 0.548,-1.535 1.746,-2.664 2.877,-3.777 1.008,-0.991 1.987,-2.012 2.977,-3.021 0.948,-0.966 2.368,-1.903 3.315,-2.869 0.096,-0.097 1.135,-1.315 1.248,-1.272 0,0 1.06,0.401 2.837,0.837 -0.091,0.21 -0.285,0.553 -0.379,0.696 -0.656,1.007 -1.401,2.003 -2.141,2.969 -0.696,0.907 -1.39,1.818 -1.832,2.884 -0.263,0.633 -0.954,2.355 -0.466,2.995 0.138,0.182 0.331,0.181 0.511,0.069 0.325,-0.201 0.488,-0.522 0.588,-0.881 1.112,-3.252 4.211,-7.025 5.372,-8.366 4.311,0.853 11.135,1.437 17.815,-1.174 -0.152,0.059 0.788,2.061 0.845,2.17 1.569,2.953 4.846,4.549 6.787,7.215 C 0.238,-5.589 1.644,-2.542 0,0 m -31.566,-21.514 v -6.537 -2.79 -0.1 c 3.847,2.148 8.263,2.442 11.725,2.458 h 0.054 c 3.779,-0.018 7.512,-0.834 10.956,-2.396 v 7.813 c 0,2.596 0,2.596 -2.501,3.416 -0.147,0.046 -0.295,0.085 -0.446,0.115 -2.644,0.612 -5.35,0.918 -8.063,0.912 -2.099,-0.007 -4.195,-0.168 -6.27,-0.479 -1.308,-0.237 -2.595,-0.581 -3.847,-1.028 l -1.031,-0.332 c -0.285,-0.093 -0.577,-0.255 -0.57,-1.052 z m 11.097,-9.783 c -0.691,0.009 -1.382,-0.024 -2.069,-0.098 l -0.722,-0.084 c -1.169,-0.083 -2.32,-0.327 -3.422,-0.726 -0.978,-0.226 -1.893,-0.673 -2.673,-1.307 -0.278,-0.165 -0.463,-0.45 -0.501,-0.771 0.068,-0.373 0.31,-0.692 0.65,-0.856 0.537,-0.353 1.122,-0.627 1.737,-0.81 3.933,-1.196 8.1,-1.391 12.126,-0.569 1.414,0.284 2.785,0.751 4.079,1.392 0.333,0.137 0.577,0.431 0.651,0.784 -0.009,0.408 -0.218,0.785 -0.56,1.006 -0.592,0.471 -3.356,1.308 -4.228,1.471 l -0.423,0.078 c -0.693,0.142 -1.392,0.25 -2.095,0.32 l -0.481,0.059 c -0.687,0.078 -1.378,0.115 -2.069,0.111 m 0.105,-8.537 c -3.119,0.005 -6.223,0.442 -9.223,1.302 -0.713,0.213 -1.408,0.482 -2.077,0.808 -1.646,0.687 -2.661,2.364 -2.511,4.148 0.049,1.301 0.04,2.635 0,3.921 v 1.333 0.388 2.119 0.072 c 0,1.884 0,3.815 -0.056,5.708 -0.095,0.661 -0.396,1.275 -0.861,1.754 -0.765,0.808 -1.61,1.616 -2.415,2.336 -0.805,0.719 -1.65,1.552 -2.414,2.352 l -0.483,0.51 c -1.385,1.354 -2.64,2.834 -3.751,4.422 -1.783,2.58 -2.06,5.922 -0.724,8.763 1.439,3.194 4.377,5.45 7.823,6.006 3.01,0.413 6.129,0.273 8.962,-0.479 l 2.318,-0.59 2.535,-0.639 c 0.322,-0.089 0.346,-0.097 0.523,0.21 3.412,5.899 10.763,6.886 16.486,3.976 1.082,-0.55 2.001,-1.376 2.827,-2.268 0.202,-0.202 0.46,-0.34 0.74,-0.396 2.624,-0.459 4.877,-2.138 6.076,-4.526 1.162,-2.286 1.162,-4.992 0,-7.276 -0.807,-1.453 -1.776,-2.809 -2.889,-4.042 -0.371,-0.437 -0.724,-0.849 -1.062,-1.278 -0.628,-0.808 -1.28,-1.552 -1.916,-2.304 -0.805,-0.954 -1.609,-1.94 -2.414,-2.951 -0.922,-1.258 -1.382,-2.797 -1.304,-4.357 0.056,-4.793 0.072,-9.701 0.08,-13.395 0.027,-1.455 -0.884,-2.761 -2.254,-3.233 -1.968,-0.802 -4.005,-1.425 -6.084,-1.86 -1.958,-0.354 -3.943,-0.533 -5.932,-0.534"
             style="fill:#ffffff;fill-opacity:1;fill-rule:nonzero;stroke:none"
             id="path952" /></g></g></g></g></svg>
