<?xml version="1.0" encoding="UTF-8" standalone="no"?>
<svg
   xmlns:dc="http://purl.org/dc/elements/1.1/"
   xmlns:cc="http://creativecommons.org/ns#"
   xmlns:rdf="http://www.w3.org/1999/02/22-rdf-syntax-ns#"
   xmlns:svg="http://www.w3.org/2000/svg"
   xmlns="http://www.w3.org/2000/svg"
   version="1.1"
   id="svg866"
   xml:space="preserve"
   width="200"
   height="200"
   viewBox="0 0 200 200"><metadata
     id="metadata872"><rdf:RDF><cc:Work
         rdf:about=""><dc:format>image/svg+xml</dc:format><dc:type
           rdf:resource="http://purl.org/dc/dcmitype/StillImage" /><dc:title></dc:title></cc:Work></rdf:RDF></metadata><defs
     id="defs870"><clipPath
       clipPathUnits="userSpaceOnUse"
       id="clipPath882"><path
         d="M 0,150 H 150 V 0 H 0 Z"
         id="path880" /></clipPath></defs><g
     id="g874"
     transform="matrix(1.3333333,0,0,-1.3333333,0,200)"><g
       id="g876"><g
         id="g878"
         clip-path="url(#clipPath882)"><g
           id="g884"
           transform="translate(135.3145,79.1855)"><path
             d="m 0,0 c -4.015,-8.226 -9.771,-16.116 -18.114,-24.83 -11.645,-12.165 -25.448,-23.33 -42.141,-34.082 -19.821,12.7 -35.531,25.946 -47.973,40.444 -7.583,8.836 -12.358,16.749 -15.027,24.902 -0.527,1.61 -0.905,3.531 -1.306,5.565 -0.227,1.155 -0.455,2.311 -0.712,3.455 -0.013,0.06 -0.028,0.119 -0.041,0.178 v 5.316 c 0.07,0.397 0.139,0.794 0.209,1.192 0.232,1.331 0.451,2.588 0.716,3.727 3.076,13.191 14.508,23.562 27.801,25.219 1.658,0.206 3.3,0.311 4.88,0.311 8.688,0 16.229,-3.098 23.038,-9.47 0.131,-0.17 0.272,-0.351 0.426,-0.542 l 6.786,-8.402 c 0,0 8.826,8.325 9.075,8.563 6.902,6.613 14.548,9.829 23.372,9.829 1.275,0 2.593,-0.068 3.919,-0.203 C -10.014,49.643 2.386,37.627 4.393,22.602 5.353,15.416 3.916,8.023 0,0 m 14.305,23.926 c -2.623,19.634 -18.588,35.186 -38.386,37.196 -13.626,1.383 -25.356,-2.903 -35.226,-12.359 -0.335,-0.322 -0.675,-0.639 -1.158,-1.095 -0.386,0.478 -0.629,0.854 -0.945,1.156 -10.225,9.774 -22.406,13.931 -36.415,12.185 -17.582,-2.191 -32.283,-15.632 -36.303,-32.872 -0.483,-2.075 -0.795,-4.189 -1.186,-6.285 v -7.617 c 0.095,-0.323 0.21,-0.643 0.284,-0.971 0.744,-3.318 1.217,-6.725 2.271,-9.942 3.502,-10.692 9.689,-19.849 16.943,-28.302 15.015,-17.498 32.947,-31.527 52.378,-43.756 2.206,-1.389 4.213,-1.368 6.398,0.013 16.764,10.607 32.403,22.618 46.149,36.977 7.862,8.211 14.86,17.078 19.878,27.36 4.365,8.943 6.657,18.291 5.318,28.312"
             style="fill:#42538d;fill-opacity:1;fill-rule:nonzero;stroke:none"
             id="path886" /></g><g
           id="g888"
           transform="translate(114.1523,75.4937)"><path
             d="m 0,0 c 0,-1.327 -1.079,-2.406 -2.405,-2.406 -1.327,0 -2.406,1.079 -2.406,2.406 v 5.475 c 0,1.326 1.079,2.405 2.406,2.405 C -1.079,7.88 0,6.801 0,5.475 Z m -7.702,-12.377 c 0,-1.568 -1.276,-2.842 -2.843,-2.842 -1.567,0 -2.843,1.274 -2.843,2.842 v 30.466 c 0,1.567 1.276,2.843 2.843,2.843 1.567,0 2.843,-1.276 2.843,-2.843 z m -9.764,-4.131 c 0,-1.568 -1.275,-2.843 -2.843,-2.843 -1.567,0 -2.841,1.275 -2.841,2.843 v 38.53 c 0,1.567 1.274,2.842 2.841,2.842 1.568,0 2.843,-1.275 2.843,-2.842 z m -8.577,17.496 c 0,-1.349 -1.097,-2.446 -2.446,-2.446 h -10.707 -10.707 c -1.349,0 -2.447,1.097 -2.447,2.446 V 4.84 c 0,1.35 1.098,2.447 2.447,2.447 h 10.707 10.707 c 1.349,0 2.446,-1.097 2.446,-2.447 z m -29.199,-17.496 c 0,-1.568 -1.275,-2.843 -2.842,-2.843 -1.567,0 -2.843,1.275 -2.843,2.843 v 38.53 c 0,1.567 1.276,2.842 2.843,2.842 1.567,0 2.842,-1.275 2.842,-2.842 z m -9.763,4.131 c 0,-1.568 -1.275,-2.842 -2.843,-2.842 -1.567,0 -2.842,1.274 -2.842,2.842 v 30.466 c 0,1.567 1.275,2.843 2.842,2.843 1.568,0 2.843,-1.276 2.843,-2.843 z M -73.582,0 c 0,-1.327 -1.079,-2.406 -2.406,-2.406 -1.326,0 -2.405,1.079 -2.405,2.406 v 5.475 c 0,1.326 1.079,2.405 2.405,2.405 1.327,0 2.406,-1.079 2.406,-2.405 z m 70.707,11.195 c -1.121,0.229 -1.936,1.249 -1.936,2.426 v 4.468 c 0,3.162 -2.572,5.735 -5.734,5.735 -0.596,0 -1.184,-0.092 -1.749,-0.275 -0.251,-0.081 -0.513,-0.123 -0.775,-0.123 -0.918,0 -1.759,0.503 -2.194,1.311 -1.004,1.862 -2.936,3.019 -5.045,3.019 -0.147,0 -0.296,-0.006 -0.447,-0.017 -2.966,-0.224 -5.288,-2.822 -5.288,-5.914 V 10.12 H -39.196 -52.35 v 11.705 c 0,3.092 -2.322,5.69 -5.287,5.914 -0.152,0.011 -0.3,0.017 -0.448,0.017 -2.108,0 -4.041,-1.157 -5.044,-3.019 -0.435,-0.808 -1.276,-1.311 -2.195,-1.311 -0.262,0 -0.524,0.042 -0.775,0.123 -0.565,0.183 -1.153,0.275 -1.749,0.275 -3.161,0 -5.734,-2.573 -5.734,-5.735 v -4.468 c 0,-1.177 -0.814,-2.197 -1.936,-2.426 -2.651,-0.543 -4.577,-2.906 -4.577,-5.618 v -5.994 c 0,-2.68 1.899,-5.038 4.515,-5.604 1.157,-0.25 1.998,-1.308 1.998,-2.514 v -3.842 c 0,-3.163 2.573,-5.735 5.734,-5.735 0.546,0 1.086,0.078 1.605,0.232 0.249,0.073 0.507,0.11 0.764,0.11 0.977,0 1.864,-0.536 2.316,-1.4 0.995,-1.896 2.941,-3.074 5.08,-3.074 0.127,0 0.256,0.004 0.386,0.012 2.998,0.198 5.347,2.801 5.347,5.926 v 11.897 h 13.154 13.153 v -11.897 c 0,-3.125 2.35,-5.728 5.348,-5.926 0.13,-0.008 0.258,-0.012 0.385,-0.012 2.139,0 4.085,1.178 5.081,3.074 0.451,0.864 1.338,1.4 2.315,1.4 0.258,0 0.515,-0.037 0.765,-0.11 0.519,-0.154 1.059,-0.232 1.604,-0.232 3.162,0 5.734,2.572 5.734,5.735 v 3.842 c 0,1.206 0.841,2.264 1.998,2.514 2.617,0.566 4.515,2.924 4.515,5.604 v 5.994 c 0,2.712 -1.926,5.075 -4.577,5.618"
             style="fill:#42538d;fill-opacity:1;fill-rule:nonzero;stroke:none"
             id="path890" /></g></g></g></g></svg>
