<?xml version="1.0" encoding="UTF-8" standalone="no"?>
<svg
   xmlns:dc="http://purl.org/dc/elements/1.1/"
   xmlns:cc="http://creativecommons.org/ns#"
   xmlns:rdf="http://www.w3.org/1999/02/22-rdf-syntax-ns#"
   xmlns:svg="http://www.w3.org/2000/svg"
   xmlns="http://www.w3.org/2000/svg"
   version="1.1"
   id="svg602"
   xml:space="preserve"
   width="200"
   height="200"
   viewBox="0 0 200 200"><metadata
     id="metadata608"><rdf:RDF><cc:Work
         rdf:about=""><dc:format>image/svg+xml</dc:format><dc:type
           rdf:resource="http://purl.org/dc/dcmitype/StillImage" /><dc:title></dc:title></cc:Work></rdf:RDF></metadata><defs
     id="defs606"><clipPath
       clipPathUnits="userSpaceOnUse"
       id="clipPath618"><path
         d="M 0,150 H 150 V 0 H 0 Z"
         id="path616" /></clipPath></defs><g
     id="g610"
     transform="matrix(1.3333333,0,0,-1.3333333,0,200)"><g
       id="g612"><g
         id="g614"
         clip-path="url(#clipPath618)"><g
           id="g620"
           transform="translate(117.2002,54.3555)"><path
             d="m 0,0 c 8.344,8.714 14.1,16.604 18.114,24.83 3.916,8.024 5.353,15.416 4.393,22.602 -2.007,15.025 -14.406,27.041 -29.485,28.57 -1.326,0.135 -2.644,0.203 -3.918,0.203 -8.825,0 -16.471,-3.216 -23.373,-9.829 -0.249,-0.238 -9.075,-8.563 -9.075,-8.563 l -6.786,8.402 c -0.154,0.191 -0.295,0.372 -0.426,0.542 -6.808,6.372 -14.349,9.471 -23.038,9.471 -1.58,0 -3.221,-0.106 -4.88,-0.312 -13.293,-1.657 -24.725,-12.028 -27.8,-25.219 -0.266,-1.139 -0.485,-2.396 -0.717,-3.727 -0.07,-0.398 -0.139,-0.795 -0.209,-1.192 v -5.316 c 0.013,-0.059 0.028,-0.118 0.041,-0.178 0.258,-1.144 0.485,-2.3 0.713,-3.455 0.4,-2.034 0.778,-3.955 1.305,-5.565 2.669,-8.153 7.445,-16.066 15.028,-24.902 12.441,-14.498 28.151,-27.744 47.972,-40.444 C -25.447,-23.33 -11.645,-12.165 0,0 m -117.2,46.682 c 0.391,2.096 0.703,4.211 1.186,6.285 4.02,17.24 18.722,30.681 36.303,32.872 14.009,1.746 26.19,-2.411 36.416,-12.185 0.315,-0.301 0.558,-0.678 0.944,-1.156 0.483,0.456 0.823,0.773 1.159,1.095 9.87,9.456 21.599,13.742 35.225,12.359 C 13.831,83.942 29.796,68.39 32.419,48.756 33.758,38.735 31.466,29.387 27.102,20.444 22.083,10.162 15.085,1.295 7.224,-6.916 c -13.746,-14.359 -29.386,-26.37 -46.15,-36.977 -2.184,-1.381 -4.192,-1.402 -6.398,-0.013 -19.431,12.229 -37.363,26.259 -52.378,43.756 -7.254,8.453 -13.441,17.61 -16.943,28.302 -1.054,3.217 -1.526,6.624 -2.271,9.942 -0.074,0.328 -0.188,0.648 -0.284,0.972 z"
             style="fill:#42538d;fill-opacity:1;fill-rule:nonzero;stroke:none"
             id="path622" /></g></g></g></g></svg>
