<?xml version="1.0" encoding="UTF-8" standalone="no"?>
<svg
   xmlns:dc="http://purl.org/dc/elements/1.1/"
   xmlns:cc="http://creativecommons.org/ns#"
   xmlns:rdf="http://www.w3.org/1999/02/22-rdf-syntax-ns#"
   xmlns:svg="http://www.w3.org/2000/svg"
   xmlns="http://www.w3.org/2000/svg"
   version="1.1"
   id="svg2660"
   xml:space="preserve"
   width="200"
   height="200"
   viewBox="0 0 200 200"><metadata
     id="metadata2666"><rdf:RDF><cc:Work
         rdf:about=""><dc:format>image/svg+xml</dc:format><dc:type
           rdf:resource="http://purl.org/dc/dcmitype/StillImage" /><dc:title></dc:title></cc:Work></rdf:RDF></metadata><defs
     id="defs2664"><clipPath
       clipPathUnits="userSpaceOnUse"
       id="clipPath2676"><path
         d="M 0,150 H 150 V 0 H 0 Z"
         id="path2674" /></clipPath></defs><g
     id="g2668"
     transform="matrix(1.3333333,0,0,-1.3333333,0,200)"><g
       id="g2670"><g
         id="g2672"
         clip-path="url(#clipPath2676)"><g
           id="g2678"
           transform="translate(0,101.0371)"><path
             d="m 0,0 c 0.392,2.096 0.703,4.211 1.187,6.286 4.019,17.239 18.721,30.68 36.302,32.871 14.01,1.746 26.19,-2.41 36.416,-12.184 0.315,-0.302 0.558,-0.679 0.945,-1.157 0.483,0.456 0.822,0.773 1.158,1.095 9.87,9.456 21.599,13.742 35.225,12.359 19.798,-2.009 35.763,-17.562 38.386,-37.196 1.339,-10.021 -0.953,-19.369 -5.317,-28.311 -5.019,-10.283 -12.017,-19.15 -19.878,-27.361 -13.746,-14.359 -29.386,-26.37 -46.15,-36.976 -2.184,-1.382 -4.192,-1.403 -6.398,-0.014 -19.431,12.23 -37.363,26.259 -52.378,43.756 -7.253,8.453 -13.441,17.61 -16.943,28.303 -1.054,3.216 -1.526,6.623 -2.271,9.941 C 0.21,-8.259 0.096,-7.939 0,-7.616 Z"
             style="fill:#42538d;fill-opacity:1;fill-rule:nonzero;stroke:none"
             id="path2680" /></g><g
           id="g2682"
           transform="translate(114.1523,75.4937)"><path
             d="m 0,0 c 0,-1.327 -1.078,-2.406 -2.404,-2.406 -1.327,0 -2.407,1.079 -2.407,2.406 v 5.475 c 0,1.326 1.08,2.405 2.407,2.405 C -1.078,7.88 0,6.801 0,5.475 Z m -7.702,-12.377 c 0,-1.568 -1.276,-2.842 -2.843,-2.842 -1.567,0 -2.843,1.274 -2.843,2.842 v 30.466 c 0,1.567 1.276,2.843 2.843,2.843 1.567,0 2.843,-1.276 2.843,-2.843 z m -9.764,-4.131 c 0,-1.568 -1.275,-2.843 -2.843,-2.843 -1.567,0 -2.841,1.275 -2.841,2.843 v 38.53 c 0,1.567 1.274,2.842 2.841,2.842 1.568,0 2.843,-1.275 2.843,-2.842 z m -8.577,17.496 c 0,-1.349 -1.097,-2.446 -2.446,-2.446 h -10.707 v 0 h -10.707 c -1.349,0 -2.447,1.097 -2.447,2.446 V 4.84 c 0,1.35 1.098,2.447 2.447,2.447 h 10.707 v 0 h 10.707 c 1.349,0 2.446,-1.097 2.446,-2.447 z m -29.199,-17.496 c 0,-1.568 -1.275,-2.843 -2.842,-2.843 -1.567,0 -2.843,1.275 -2.843,2.843 v 38.53 c 0,1.567 1.276,2.842 2.843,2.842 1.567,0 2.842,-1.275 2.842,-2.842 z m -9.762,4.131 c 0,-1.568 -1.276,-2.842 -2.843,-2.842 -1.568,0 -2.843,1.274 -2.843,2.842 v 30.466 c 0,1.567 1.275,2.843 2.843,2.843 1.567,0 2.843,-1.276 2.843,-2.843 z M -73.582,0 c 0,-1.327 -1.079,-2.406 -2.406,-2.406 -1.326,0 -2.405,1.079 -2.405,2.406 v 5.475 c 0,1.326 1.079,2.405 2.405,2.405 1.327,0 2.406,-1.079 2.406,-2.405 z m 70.707,11.195 c -1.121,0.229 -1.936,1.249 -1.936,2.426 v 4.468 c 0,3.162 -2.572,5.735 -5.734,5.735 -0.596,0 -1.184,-0.092 -1.749,-0.275 -0.251,-0.081 -0.513,-0.123 -0.774,-0.123 -0.919,0 -1.76,0.503 -2.195,1.311 -1.003,1.862 -2.936,3.019 -5.045,3.019 -0.147,0 -0.296,-0.006 -0.447,-0.017 -2.966,-0.224 -5.288,-2.822 -5.288,-5.914 V 10.12 h -13.153 v 0 H -52.35 v 11.705 c 0,3.092 -2.322,5.69 -5.287,5.914 -0.151,0.011 -0.3,0.017 -0.448,0.017 -2.108,0 -4.041,-1.157 -5.044,-3.019 -0.435,-0.808 -1.276,-1.311 -2.195,-1.311 -0.262,0 -0.524,0.042 -0.775,0.123 -0.565,0.183 -1.152,0.275 -1.748,0.275 -3.162,0 -5.735,-2.573 -5.735,-5.735 v -4.468 c 0,-1.177 -0.814,-2.197 -1.936,-2.426 -2.651,-0.543 -4.577,-2.906 -4.577,-5.618 v -5.994 c 0,-2.68 1.899,-5.038 4.515,-5.604 1.158,-0.25 1.998,-1.308 1.998,-2.514 v -3.842 c 0,-3.163 2.573,-5.735 5.735,-5.735 0.545,0 1.085,0.078 1.604,0.232 0.25,0.073 0.507,0.11 0.764,0.11 0.977,0 1.864,-0.536 2.316,-1.4 0.995,-1.896 2.941,-3.074 5.08,-3.074 0.127,0 0.256,0.004 0.386,0.012 2.998,0.198 5.347,2.801 5.347,5.926 v 11.897 h 13.154 v 0 h 13.153 v -11.897 c 0,-3.125 2.35,-5.728 5.348,-5.926 0.13,-0.008 0.258,-0.012 0.385,-0.012 2.139,0 4.085,1.178 5.081,3.074 0.452,0.864 1.338,1.4 2.315,1.4 0.258,0 0.515,-0.037 0.765,-0.11 0.519,-0.154 1.059,-0.232 1.604,-0.232 3.162,0 5.734,2.572 5.734,5.735 v 3.842 c 0,1.206 0.841,2.264 1.998,2.514 2.617,0.566 4.515,2.924 4.515,5.604 v 5.994 c 0,2.712 -1.926,5.075 -4.577,5.618"
             style="fill:#ffffff;fill-opacity:1;fill-rule:nonzero;stroke:none"
             id="path2684" /></g></g></g></g></svg>
