<?xml version="1.0" encoding="UTF-8" standalone="no"?>
<svg
   xmlns:dc="http://purl.org/dc/elements/1.1/"
   xmlns:cc="http://creativecommons.org/ns#"
   xmlns:rdf="http://www.w3.org/1999/02/22-rdf-syntax-ns#"
   xmlns:svg="http://www.w3.org/2000/svg"
   xmlns="http://www.w3.org/2000/svg"
   version="1.1"
   id="svg446"
   xml:space="preserve"
   width="200"
   height="200"
   viewBox="0 0 200 200"><metadata
     id="metadata452"><rdf:RDF><cc:Work
         rdf:about=""><dc:format>image/svg+xml</dc:format><dc:type
           rdf:resource="http://purl.org/dc/dcmitype/StillImage" /><dc:title></dc:title></cc:Work></rdf:RDF></metadata><defs
     id="defs450"><clipPath
       clipPathUnits="userSpaceOnUse"
       id="clipPath462"><path
         d="M 0,150 H 150 V 0 H 0 Z"
         id="path460" /></clipPath></defs><g
     id="g454"
     transform="matrix(1.3333333,0,0,-1.3333333,0,200)"><g
       id="g456"><g
         id="g458"
         clip-path="url(#clipPath462)"><g
           id="g464"
           transform="translate(95.7168,92.3501)"><path
             d="m 0,0 c -0.84,1.297 -2.634,2.367 -4.016,2.976 0.069,-0.031 0.148,-0.326 0.174,-0.389 0.146,-0.351 0.269,-0.711 0.375,-1.075 0.336,-1.153 0.494,-2.366 0.415,-3.567 -0.104,-1.584 -0.649,-3.107 -1.592,-4.383 -0.572,-0.776 -1.269,-1.454 -2.027,-2.046 -0.69,-0.54 -1.557,-1.276 -2.495,-1.163 -0.73,0.088 0.212,1.134 0.402,1.331 0.745,0.769 1.6,1.402 2.264,2.247 0.631,0.802 1.152,1.698 1.487,2.667 0.43,1.245 0.521,2.582 0.249,3.872 -0.383,1.826 -1.268,3.676 -2.863,4.711 -0.928,0.603 -1.94,1.086 -2.999,1.409 -3.52,1.076 -6.968,-0.061 -9.49,-2.693 -0.487,-0.508 -0.796,-0.967 -1.032,-1.592 0.031,0.083 0,0 0.07,-0.003 0.268,-0.011 0.535,-0.037 0.802,-0.064 0.494,-0.049 0.99,-0.128 1.486,-0.157 1.06,-0.063 2.125,0.064 3.169,0.244 0.85,0.146 1.707,0.728 2.596,0.527 0.024,-0.005 0.047,-0.012 0.071,-0.018 0.158,-0.045 0.492,-0.137 0.452,-0.362 -0.033,-0.184 -0.306,-0.316 -0.448,-0.394 -0.888,-0.486 -1.862,-0.83 -2.86,-0.999 -0.846,-0.143 -1.71,-0.189 -2.567,-0.183 -2.867,0.019 -5.696,0.594 -8.467,1.29 -2.381,0.597 -4.656,1.319 -7.137,1.26 -2.518,-0.059 -5.457,-0.989 -6.79,-3.259 -1.136,-1.937 -1.707,-4.254 -0.931,-6.43 0.548,-1.535 1.746,-2.664 2.877,-3.777 1.008,-0.991 1.987,-2.012 2.977,-3.021 0.948,-0.966 2.368,-1.903 3.316,-2.869 0.095,-0.097 1.134,-1.315 1.247,-1.272 0,0 1.06,0.401 2.837,0.837 -0.091,0.21 -0.285,0.554 -0.379,0.697 -0.656,1.006 -1.401,2.002 -2.141,2.968 -0.696,0.907 -1.39,1.818 -1.832,2.884 -0.263,0.633 -0.954,2.355 -0.466,2.995 0.139,0.182 0.331,0.181 0.511,0.07 0.325,-0.202 0.488,-0.523 0.588,-0.882 1.112,-3.251 4.211,-7.025 5.373,-8.366 4.31,0.853 11.134,1.437 17.814,-1.174 -0.152,0.059 0.788,2.061 0.845,2.17 1.569,2.953 4.846,4.549 6.787,7.215 C 0.238,-5.589 1.644,-2.542 0,0 m -31.566,-21.513 v -6.538 -2.789 -0.101 c 3.847,2.149 8.263,2.442 11.725,2.457 h 0.054 c 3.779,-0.017 7.512,-0.833 10.956,-2.395 v 7.813 c 0,2.596 0,2.596 -2.501,3.415 -0.147,0.047 -0.295,0.086 -0.446,0.116 -2.644,0.612 -5.349,0.918 -8.063,0.912 -2.099,-0.007 -4.194,-0.168 -6.27,-0.479 -1.308,-0.236 -2.595,-0.58 -3.847,-1.027 l -1.031,-0.333 c -0.285,-0.093 -0.577,-0.255 -0.57,-1.051 z m 11.097,-9.783 c -0.691,0.007 -1.382,-0.025 -2.069,-0.099 l -0.722,-0.085 c -1.168,-0.082 -2.32,-0.326 -3.422,-0.725 -0.978,-0.226 -1.893,-0.672 -2.673,-1.307 -0.278,-0.164 -0.463,-0.449 -0.501,-0.771 0.068,-0.373 0.31,-0.691 0.65,-0.856 0.537,-0.353 1.122,-0.626 1.737,-0.81 3.933,-1.195 8.1,-1.39 12.126,-0.568 1.414,0.282 2.786,0.75 4.079,1.392 0.333,0.135 0.577,0.429 0.651,0.784 -0.009,0.407 -0.218,0.784 -0.56,1.006 -0.592,0.47 -3.356,1.306 -4.228,1.47 l -0.423,0.078 c -0.693,0.143 -1.392,0.25 -2.095,0.321 l -0.481,0.058 c -0.687,0.078 -1.378,0.116 -2.069,0.112 m 0.105,-8.537 c -3.119,0.003 -6.223,0.442 -9.223,1.301 -0.713,0.212 -1.408,0.483 -2.077,0.809 -1.646,0.686 -2.661,2.363 -2.511,4.146 0.049,1.302 0.041,2.636 0,3.921 v 1.334 0.388 2.118 0.073 c 0,1.884 0,3.816 -0.056,5.707 -0.095,0.662 -0.396,1.277 -0.861,1.755 -0.765,0.808 -1.61,1.616 -2.415,2.336 -0.805,0.719 -1.65,1.552 -2.414,2.353 l -0.483,0.509 c -1.385,1.354 -2.64,2.834 -3.751,4.422 -1.783,2.581 -2.06,5.922 -0.724,8.763 1.439,3.194 4.377,5.45 7.823,6.006 3.01,0.413 6.129,0.273 8.962,-0.479 l 2.318,-0.59 2.535,-0.639 c 0.322,-0.088 0.346,-0.097 0.523,0.21 3.412,5.899 10.763,6.886 16.487,3.976 1.081,-0.55 2,-1.376 2.826,-2.267 0.202,-0.203 0.46,-0.34 0.74,-0.397 2.624,-0.459 4.877,-2.138 6.076,-4.526 1.163,-2.285 1.163,-4.992 0,-7.276 -0.807,-1.453 -1.776,-2.809 -2.889,-4.042 -0.37,-0.437 -0.724,-0.849 -1.062,-1.278 -0.628,-0.808 -1.28,-1.552 -1.916,-2.303 -0.805,-0.955 -1.609,-1.941 -2.414,-2.951 -0.921,-1.258 -1.382,-2.797 -1.304,-4.358 0.056,-4.794 0.072,-9.7 0.08,-13.395 0.027,-1.455 -0.884,-2.76 -2.254,-3.234 -1.967,-0.802 -4.005,-1.424 -6.084,-1.859 -1.958,-0.355 -3.943,-0.533 -5.932,-0.533"
             style="fill:#42538d;fill-opacity:1;fill-rule:nonzero;stroke:none"
             id="path466" /></g><g
           id="g468"
           transform="translate(117.2002,54.3555)"><path
             d="m 0,0 c 8.344,8.714 14.1,16.604 18.114,24.83 3.916,8.024 5.353,15.416 4.393,22.602 -2.007,15.025 -14.406,27.041 -29.485,28.57 -1.326,0.135 -2.644,0.203 -3.918,0.203 -8.825,0 -16.471,-3.216 -23.373,-9.829 -0.249,-0.238 -9.075,-8.563 -9.075,-8.563 l -6.786,8.402 c -0.154,0.191 -0.295,0.372 -0.426,0.542 -6.808,6.372 -14.349,9.471 -23.038,9.471 -1.58,0 -3.221,-0.106 -4.88,-0.312 -13.293,-1.657 -24.725,-12.028 -27.8,-25.219 -0.266,-1.139 -0.485,-2.396 -0.717,-3.727 -0.07,-0.398 -0.139,-0.795 -0.209,-1.192 v -5.316 c 0.013,-0.059 0.028,-0.118 0.041,-0.178 0.258,-1.144 0.485,-2.3 0.713,-3.455 0.4,-2.034 0.778,-3.955 1.305,-5.565 2.669,-8.153 7.445,-16.066 15.028,-24.902 12.441,-14.498 28.151,-27.744 47.972,-40.444 C -25.447,-23.33 -11.645,-12.165 0,0 m -117.2,46.682 c 0.391,2.096 0.703,4.211 1.186,6.285 4.02,17.24 18.722,30.681 36.303,32.872 14.009,1.746 26.19,-2.411 36.416,-12.185 0.315,-0.301 0.558,-0.678 0.944,-1.156 0.483,0.456 0.823,0.773 1.159,1.095 9.87,9.456 21.599,13.742 35.225,12.359 C 13.831,83.942 29.796,68.39 32.419,48.756 33.758,38.735 31.466,29.387 27.102,20.444 22.083,10.162 15.085,1.295 7.224,-6.916 c -13.746,-14.359 -29.386,-26.37 -46.15,-36.977 -2.184,-1.381 -4.192,-1.402 -6.398,-0.013 -19.431,12.229 -37.363,26.259 -52.378,43.756 -7.254,8.453 -13.441,17.61 -16.943,28.302 -1.054,3.217 -1.526,6.624 -2.271,9.942 -0.074,0.328 -0.188,0.648 -0.284,0.972 z"
             style="fill:#42538d;fill-opacity:1;fill-rule:nonzero;stroke:none"
             id="path470" /></g></g></g></g></svg>
