<?xml version="1.0" encoding="UTF-8" standalone="no"?>
<svg
   xmlns:dc="http://purl.org/dc/elements/1.1/"
   xmlns:cc="http://creativecommons.org/ns#"
   xmlns:rdf="http://www.w3.org/1999/02/22-rdf-syntax-ns#"
   xmlns:svg="http://www.w3.org/2000/svg"
   xmlns="http://www.w3.org/2000/svg"
   version="1.1"
   id="svg364"
   xml:space="preserve"
   width="200"
   height="200"
   viewBox="0 0 200 200"><metadata
     id="metadata370"><rdf:RDF><cc:Work
         rdf:about=""><dc:format>image/svg+xml</dc:format><dc:type
           rdf:resource="http://purl.org/dc/dcmitype/StillImage" /><dc:title></dc:title></cc:Work></rdf:RDF></metadata><defs
     id="defs368"><clipPath
       clipPathUnits="userSpaceOnUse"
       id="clipPath380"><path
         d="M 0,150 H 150 V 0 H 0 Z"
         id="path378" /></clipPath></defs><g
     id="g372"
     transform="matrix(1.3333333,0,0,-1.3333333,0,200)"><g
       id="g374"><g
         id="g376"
         clip-path="url(#clipPath380)"><g
           id="g382"
           transform="translate(70.2939,104.4814)"><path
             d="m 0,0 c -1.953,-1.953 -1.953,-5.119 0,-7.071 l 17.41,-17.41 -82.704,-0.056 c -2.761,0 -5,-2.239 -5,-5 0,-2.762 2.239,-5 5,-5 L 17.41,-34.481 0,-51.892 c -1.953,-1.953 -1.953,-5.119 0,-7.071 1.953,-1.952 5.118,-1.952 7.071,0 l 25.716,25.716 c 1.035,1.035 1.505,2.41 1.442,3.766 0.063,1.355 -0.407,2.73 -1.442,3.765 L 7.071,0 C 5.118,1.953 1.953,1.953 0,0"
             style="fill:#42538d;fill-opacity:1;fill-rule:nonzero;stroke:none"
             id="path384" /></g><g
           id="g386"
           transform="translate(132.3496,150)"><path
             d="m 0,0 h -114.699 c -9.748,0 -17.651,-7.902 -17.651,-17.65 v -11.824 c 0,-2.761 2.239,-5 5,-5 2.762,0 5,2.239 5,5 v 9.566 c 0,5.472 4.436,9.908 9.908,9.908 H -2.258 c 5.473,0 9.908,-4.436 9.908,-9.908 v -110.184 c 0,-5.472 -4.435,-9.908 -9.908,-9.908 h -110.184 c -5.472,0 -9.908,4.436 -9.908,9.908 v 9.588 c 0,2.762 -2.238,5 -5,5 -2.761,0 -5,-2.238 -5,-5 v -11.846 c 0,-9.748 7.903,-17.65 17.651,-17.65 H 0 c 9.748,0 17.65,7.902 17.65,17.65 v 114.7 C 17.65,-7.902 9.748,0 0,0"
             style="fill:#42538d;fill-opacity:1;fill-rule:nonzero;stroke:none"
             id="path388" /></g></g></g></g></svg>
