<?xml version="1.0" encoding="UTF-8" standalone="no"?>
<svg
   xmlns:dc="http://purl.org/dc/elements/1.1/"
   xmlns:cc="http://creativecommons.org/ns#"
   xmlns:rdf="http://www.w3.org/1999/02/22-rdf-syntax-ns#"
   xmlns:svg="http://www.w3.org/2000/svg"
   xmlns="http://www.w3.org/2000/svg"
   version="1.1"
   id="svg1008"
   xml:space="preserve"
   width="200"
   height="200"
   viewBox="0 0 200 200"><metadata
     id="metadata1014"><rdf:RDF><cc:Work
         rdf:about=""><dc:format>image/svg+xml</dc:format><dc:type
           rdf:resource="http://purl.org/dc/dcmitype/StillImage" /><dc:title></dc:title></cc:Work></rdf:RDF></metadata><defs
     id="defs1012"><clipPath
       clipPathUnits="userSpaceOnUse"
       id="clipPath1024"><path
         d="M 0,150 H 150 V 0 H 0 Z"
         id="path1022" /></clipPath></defs><g
     id="g1016"
     transform="matrix(1.3333333,0,0,-1.3333333,0,200)"><g
       id="g1018"><g
         id="g1020"
         clip-path="url(#clipPath1024)"><g
           id="g1026"
           transform="translate(121.1094,76.0967)"><path
             d="m 0,0 v 13.561 c 0,2.761 -2.239,5 -5,5 -2.762,0 -5,-2.239 -5,-5 V 0 c 0,-20.153 -16.198,-39.062 -36.109,-39.062 -19.911,0 -36.109,18.909 -36.109,39.062 v 13.561 c 0,2.761 -2.239,5 -5,5 -2.761,0 -5,-2.239 -5,-5 V 0 c 0,-23.961 18.027,-46.554 41.108,-49.078 l 10e-4,-17.019 h -25.912 c -2.761,0 -5,-2.238 -5,-5 0,-2.761 2.239,-5 5,-5 h 61.823 c 2.76,0 5,2.239 5,5 0,2.762 -2.24,5 -5,5 h -25.911 l -10e-4,17.019 C -18.029,-46.554 0,-23.961 0,0"
             style="fill:#42538d;fill-opacity:1;fill-rule:nonzero;stroke:none"
             id="path1028" /></g><g
           id="g1030"
           transform="translate(91.1084,78.1641)"><path
             d="m 0,0 v -4.774 c 0,-8.882 -7.227,-16.109 -16.108,-16.109 -8.883,0 -16.11,7.227 -16.11,16.109 V 0 7.938 h 0.001 v 8.555 12.122 12.338 4.775 c 0,8.881 7.226,16.108 16.108,16.108 8.883,0 16.11,-7.227 16.11,-16.108 V 40.953 28.615 16.493 7.938 L 0.001,0 Z m 10,7.938 v 8.555 12.122 12.338 4.774 c 0,14.419 -11.688,26.109 -26.108,26.109 -14.42,0 -26.11,-11.69 -26.11,-26.109 V 40.953 28.615 16.493 7.938 0 h 0.001 v -4.774 c 0,-14.42 11.689,-26.109 26.109,-26.109 14.42,0 26.109,11.689 26.109,26.109 V 0 7.938 Z"
             style="fill:#42538d;fill-opacity:1;fill-rule:nonzero;stroke:none"
             id="path1032" /></g></g></g></g></svg>
