<?xml version="1.0" encoding="UTF-8" standalone="no"?>
<svg
   xmlns:dc="http://purl.org/dc/elements/1.1/"
   xmlns:cc="http://creativecommons.org/ns#"
   xmlns:rdf="http://www.w3.org/1999/02/22-rdf-syntax-ns#"
   xmlns:svg="http://www.w3.org/2000/svg"
   xmlns="http://www.w3.org/2000/svg"
   version="1.1"
   id="svg1070"
   xml:space="preserve"
   width="200"
   height="200"
   viewBox="0 0 200 200"><metadata
     id="metadata1076"><rdf:RDF><cc:Work
         rdf:about=""><dc:format>image/svg+xml</dc:format><dc:type
           rdf:resource="http://purl.org/dc/dcmitype/StillImage" /><dc:title></dc:title></cc:Work></rdf:RDF></metadata><defs
     id="defs1074"><clipPath
       clipPathUnits="userSpaceOnUse"
       id="clipPath1086"><path
         d="M 0,150 H 150 V 0 H 0 Z"
         id="path1084" /></clipPath></defs><g
     id="g1078"
     transform="matrix(1.3333333,0,0,-1.3333333,0,200)"><g
       id="g1080"><g
         id="g1082"
         clip-path="url(#clipPath1086)"><g
           id="g1088"
           transform="translate(60.0112,104.9111)"><path
             d="m 0,0 21.94,32.083 c 0.542,0.793 1.783,0.387 1.752,-0.572 l -1.475,-46.116 c -0.106,-3.32 2.285,-6.196 5.569,-6.696 l 25.438,-3.879 0.353,-0.028 c 0.041,-0.003 0.151,-0.023 0.151,-0.023 0.399,-0.093 0.583,-0.499 0.63,-0.623 0.157,-0.412 0.024,-0.654 -0.126,-0.867 l -11.367,-16.143 7.177,-7.177 12.367,17.563 c 4.608,6.545 0.845,15.302 -6.421,16.988 v 0.005 l -0.057,0.008 c -0.501,0.114 -1.017,0.193 -1.55,0.237 l -22.072,3.365 1.473,46.04 c 1.011,10.097 -12.006,15.005 -17.914,6.755 0,0 -11.331,-16.569 -23.063,-33.725 z"
             style="fill:#42538d;fill-opacity:1;fill-rule:nonzero;stroke:none"
             id="path1090" /></g><g
           id="g1092"
           transform="translate(91.1895,45.4512)"><path
             d="m 0,0 -13.476,-19.138 -9.532,-12.708 c -0.553,-0.737 -1.725,-0.347 -1.728,0.574 l -0.142,44.763 c -0.01,3.146 -2.25,5.841 -5.34,6.426 l -23.348,4.421 c -0.68,0.129 -1.005,0.914 -0.614,1.485 l 11.516,16.841 -7.194,7.195 c -7.971,-11.656 -14.166,-20.715 -14.166,-20.715 -3.719,-5.439 -0.588,-12.627 5.443,-14.011 l 0.001,-0.024 0.552,-0.104 c 0.027,-0.004 0.052,-0.011 0.079,-0.015 l 23.08,-4.37 0.145,-45.764 c -0.907,-9.436 11.158,-14.111 16.847,-6.527 l 12.49,16.652 12.564,17.842 z"
             style="fill:#42538d;fill-opacity:1;fill-rule:nonzero;stroke:none"
             id="path1094" /></g><g
           id="g1096"
           transform="translate(127.8105,22.9717)"><path
             d="m 0,0 v 0 c -1.953,-1.953 -5.118,-1.953 -7.071,0 l -98.55,98.549 c -1.953,1.953 -1.953,5.119 0,7.072 1.953,1.952 5.119,1.952 7.071,0 L 0,7.07 C 1.952,5.118 1.952,1.952 0,0"
             style="fill:#42538d;fill-opacity:1;fill-rule:nonzero;stroke:none"
             id="path1098" /></g></g></g></g></svg>
