<?xml version="1.0" encoding="UTF-8" standalone="no"?>
<svg
   xmlns:dc="http://purl.org/dc/elements/1.1/"
   xmlns:cc="http://creativecommons.org/ns#"
   xmlns:rdf="http://www.w3.org/1999/02/22-rdf-syntax-ns#"
   xmlns:svg="http://www.w3.org/2000/svg"
   xmlns="http://www.w3.org/2000/svg"
   version="1.1"
   id="svg1244"
   xml:space="preserve"
   width="200"
   height="200"
   viewBox="0 0 200 200"><metadata
     id="metadata1250"><rdf:RDF><cc:Work
         rdf:about=""><dc:format>image/svg+xml</dc:format><dc:type
           rdf:resource="http://purl.org/dc/dcmitype/StillImage" /><dc:title></dc:title></cc:Work></rdf:RDF></metadata><defs
     id="defs1248"><clipPath
       clipPathUnits="userSpaceOnUse"
       id="clipPath1260"><path
         d="M 0,150 H 150 V 0 H 0 Z"
         id="path1258" /></clipPath></defs><g
     id="g1252"
     transform="matrix(1.3333333,0,0,-1.3333333,0,200)"><g
       id="g1254"><g
         id="g1256"
         clip-path="url(#clipPath1260)"><g
           id="g1262"
           transform="translate(74.936,140.6465)"><path
             d="m 0,0 c -1.455,0 -3.051,-0.748 -4.137,-1.951 -0.921,-1.02 -1.361,-2.245 -1.237,-3.45 0.086,-0.86 0.806,-1.511 1.675,-1.511 1.514,0.08 2.917,0.12 4.263,0.12 0.964,0 2.003,-0.027 3.176,-0.083 h 0.008 c 0.539,0 0.985,0.195 1.301,0.533 0.318,0.339 0.482,0.799 0.451,1.26 -0.172,2.706 -2.338,4.888 -5.038,5.07 -0.121,0.009 -0.244,0.013 -0.366,0.013 z m -36.811,-60.713 c -0.289,-3.935 -2.417,-23.975 -16.12,-36.135 -1.459,-1.381 -8.522,-8.349 -7.796,-13.157 0.219,-1.448 1.085,-2.584 2.504,-3.285 l 0.292,-0.145 0.394,-0.03 c 2.947,-0.074 18.133,-0.435 33.487,-0.435 2.539,0 5.08,0.009 7.562,0.033 l 1.049,-0.032 25.908,0.121 c 3.968,-0.08 8.595,-0.121 13.714,-0.121 15.341,0 30.531,0.36 33.42,0.433 0.313,0.012 0.561,0.077 0.778,0.193 1.388,0.684 2.253,1.82 2.473,3.268 0.726,4.808 -6.336,11.776 -7.759,13.123 -13.762,12.213 -15.873,32.283 -16.157,36.183 -0.001,0.008 -0.001,0.017 -0.002,0.025 l -0.008,0.121 c -0.032,0.458 -0.041,0.712 -0.042,0.727 -0.436,7.458 -0.974,14.125 -1.602,19.856 -1.173,10.726 -9.385,19.55 -19.97,21.458 -1.791,0.323 -3.71,0.603 -5.699,0.835 -2.727,0.507 -5.772,0.765 -9.051,0.765 -5.591,0 -9.901,-0.74 -10.083,-0.772 -1.922,-0.219 -3.86,-0.503 -5.669,-0.828 -10.583,-1.908 -18.795,-10.732 -19.968,-21.458 -0.629,-5.744 -1.168,-12.411 -1.601,-19.817 -0.003,-0.055 -0.012,-0.305 -0.041,-0.746 z m 27.36,-63.279 c -0.578,0 -1.112,-0.298 -1.423,-0.796 -0.31,-0.499 -0.338,-1.11 -0.078,-1.636 1.86,-3.78 5.635,-6.163 9.848,-6.214 4.295,0.051 8.088,2.47 9.935,6.31 0.252,0.53 0.214,1.138 -0.096,1.629 -0.312,0.492 -0.844,0.786 -1.424,0.786 z m 9.199,-16.654 c -14.834,0.155 -17.817,6.751 -20.176,15.36 -0.201,0.729 -0.866,1.235 -1.617,1.235 l -2.534,-0.012 -1.057,0.045 c -16.141,0.025 -32.031,0.433 -32.172,0.438 l -2.513,0.065 -2.257,1.09 c -4.438,2.144 -7.407,6.098 -8.145,10.847 -1.322,8.515 5.142,16.687 10.797,22.044 l 0.279,0.256 c 10.946,9.713 12.586,27.258 12.736,29.227 0.002,0.015 0.052,0.871 0.052,0.871 0.442,7.556 0.996,14.394 1.643,20.31 1.657,15.154 13.269,27.62 28.235,30.317 0.444,0.08 0.908,0.153 1.369,0.226 l 0.286,0.045 c 0.909,0.147 1.532,1.002 1.395,1.907 -0.515,3.488 0.389,7.013 2.545,9.918 2.674,3.604 6.906,5.776 11.321,5.81 L 0.082,9.354 C 0.401,9.354 0.725,9.343 1.046,9.321 4.927,9.058 8.44,7.262 10.938,4.265 13.27,1.467 14.406,-2.268 14.134,-6.252 l -0.124,-1.797 1.865,-0.3 c 0.417,-0.066 0.835,-0.131 1.238,-0.206 14.965,-2.695 26.573,-15.161 28.23,-30.315 0.648,-5.901 1.2,-12.74 1.645,-20.326 l 0.014,-0.326 v 0.005 c 0.002,0 0.036,-0.52 0.036,-0.52 0.15,-1.979 1.783,-19.521 12.738,-29.242 l 0.159,-0.142 0.123,-0.116 c 5.651,-5.354 12.115,-13.526 10.793,-22.041 -0.738,-4.75 -3.708,-8.703 -8.145,-10.847 l -2.259,-1.091 -2.506,-0.064 c -0.158,-0.005 -17.024,-0.439 -33.775,-0.439 -1.424,0 -2.802,0.003 -4.145,0.009 -0.831,0 -1.526,-0.586 -1.66,-1.393 -0.434,-2.541 -3.373,-15.239 -18.613,-15.243"
             style="fill:#42538d;fill-opacity:1;fill-rule:nonzero;stroke:none"
             id="path1264" /></g></g></g></g></svg>
