<?xml version="1.0" encoding="UTF-8" standalone="no"?>
<svg
   xmlns:dc="http://purl.org/dc/elements/1.1/"
   xmlns:cc="http://creativecommons.org/ns#"
   xmlns:rdf="http://www.w3.org/1999/02/22-rdf-syntax-ns#"
   xmlns:svg="http://www.w3.org/2000/svg"
   xmlns="http://www.w3.org/2000/svg"
   version="1.1"
   id="svg1154"
   xml:space="preserve"
   width="200"
   height="200"
   viewBox="0 0 200 200"><metadata
     id="metadata1160"><rdf:RDF><cc:Work
         rdf:about=""><dc:format>image/svg+xml</dc:format><dc:type
           rdf:resource="http://purl.org/dc/dcmitype/StillImage" /><dc:title></dc:title></cc:Work></rdf:RDF></metadata><defs
     id="defs1158"><clipPath
       clipPathUnits="userSpaceOnUse"
       id="clipPath1170"><path
         d="M 0,150 H 150 V 0 H 0 Z"
         id="path1168" /></clipPath></defs><g
     id="g1162"
     transform="matrix(1.3333333,0,0,-1.3333333,0,200)"><g
       id="g1164"><g
         id="g1166"
         clip-path="url(#clipPath1170)"><g
           id="g1172"
           transform="translate(15,90)"><path
             d="m 0,0 c 8.284,0 15,-6.716 15,-15 0,-8.284 -6.716,-15 -15,-15 -8.284,0 -15,6.716 -15,15 0,8.284 6.716,15 15,15"
             style="fill:#42538d;fill-opacity:1;fill-rule:nonzero;stroke:none"
             id="path1174" /></g><g
           id="g1176"
           transform="translate(75,90)"><path
             d="m 0,0 c 8.284,0 15,-6.716 15,-15 0,-8.284 -6.716,-15 -15,-15 -8.284,0 -15,6.716 -15,15 0,8.284 6.716,15 15,15"
             style="fill:#42538d;fill-opacity:1;fill-rule:nonzero;stroke:none"
             id="path1178" /></g><g
           id="g1180"
           transform="translate(135,90)"><path
             d="m 0,0 c 8.284,0 15,-6.716 15,-15 0,-8.284 -6.716,-15 -15,-15 -8.284,0 -15,6.716 -15,15 0,8.284 6.716,15 15,15"
             style="fill:#42538d;fill-opacity:1;fill-rule:nonzero;stroke:none"
             id="path1182" /></g></g></g></g></svg>
