<?xml version="1.0" encoding="UTF-8" standalone="no"?>
<svg
   xmlns:dc="http://purl.org/dc/elements/1.1/"
   xmlns:cc="http://creativecommons.org/ns#"
   xmlns:rdf="http://www.w3.org/1999/02/22-rdf-syntax-ns#"
   xmlns:svg="http://www.w3.org/2000/svg"
   xmlns="http://www.w3.org/2000/svg"
   version="1.1"
   id="svg156"
   xml:space="preserve"
   width="200"
   height="200"
   viewBox="0 0 200 200"><metadata
     id="metadata162"><rdf:RDF><cc:Work
         rdf:about=""><dc:format>image/svg+xml</dc:format><dc:type
           rdf:resource="http://purl.org/dc/dcmitype/StillImage" /><dc:title></dc:title></cc:Work></rdf:RDF></metadata><defs
     id="defs160"><clipPath
       clipPathUnits="userSpaceOnUse"
       id="clipPath172"><path
         d="M 0,150 H 150 V 0 H 0 Z"
         id="path170" /></clipPath></defs><g
     id="g164"
     transform="matrix(1.3333333,0,0,-1.3333333,0,200)"><g
       id="g166"><g
         id="g168"
         clip-path="url(#clipPath172)"><g
           id="g174"
           transform="translate(72.0884,71.1895)"><path
             d="m 0,0 c -1.392,-3.073 -0.735,-6.687 1.649,-9.075 l 4.798,-4.798 -4.798,-4.798 c -3.183,-3.175 -3.19,-8.329 -0.015,-11.512 0.005,-0.004 0.01,-0.009 0.015,-0.015 l 4.827,-4.842 -4.604,-4.605 c -3.271,-3.286 -3.271,-8.597 0,-11.883 l 4.545,-4.545 -3.58,-3.58 c -3.609,3.594 -7.337,7.323 -10.977,11.021 -0.074,16.785 -0.133,34.685 0,53.148 -0.004,3.707 -1.867,7.166 -4.961,9.209 -11.261,7.204 -16.368,21.009 -12.507,33.807 2.41,8.614 8.715,15.601 17.037,18.88 C -0.22,70.088 9.383,69.57 17.29,65.015 25.931,60.585 31.688,52.022 32.53,42.348 33.629,32.411 29.946,24.271 20.929,16.74 18.834,15.255 17.512,14.156 16.22,13.146 l -0.297,-0.238 -2.97,-2.273 C 11.155,9.551 6.758,6.447 4.041,4.441 m 38.352,39.006 v 0 C 41.195,56.333 33.544,67.731 22.073,73.72 11.544,79.779 -1.239,80.469 -12.358,75.576 -23.463,71.224 -31.882,61.914 -35.1,50.429 c -2.845,-9.148 -2.233,-19.022 1.724,-27.747 3.114,-7.065 8.239,-13.057 14.734,-17.231 0.314,-0.201 0.504,-0.548 0.505,-0.921 0,-18.433 0,-36.778 0.075,-53.978 0.027,-2.089 0.844,-4.09 2.287,-5.6 3.758,-3.848 7.665,-7.739 11.438,-11.497 l 2.866,-2.852 c 2.374,-2.383 6.23,-2.391 8.613,-0.017 0.006,0.006 0.012,0.012 0.018,0.017 l 8.912,8.913 c 2.396,2.4 2.396,6.288 0,8.689 l -6.15,6.164 6.209,6.224 c 2.4,2.38 2.415,6.255 0.036,8.654 l -0.036,0.035 -6.254,6.254 6.224,6.224 c 2.398,2.4 2.398,6.289 0,8.689 l -6.016,6.016 0.981,0.727 c 2.57,1.932 6.12,4.412 7.189,5.037 l 0.416,0.282 c 1.486,1.114 2.57,1.96 3.713,2.851 1.145,0.891 2.526,1.991 4.695,3.58 l 0.088,0.074 c 5.149,4.058 9.325,9.214 12.225,15.092 2.821,6.029 3.862,12.739 3.001,19.339"
             style="fill:#42538d;fill-opacity:1;fill-rule:nonzero;stroke:none"
             id="path176" /></g><g
           id="g178"
           transform="translate(71.4438,123.167)"><path
             d="M 0,0 C 0.965,0.953 2.268,1.486 3.624,1.485 4.916,1.505 6.162,1.007 7.085,0.104 8.015,-0.826 8.511,-2.103 8.452,-3.417 8.463,-4.784 7.929,-6.1 6.966,-7.071 5.977,-8.024 4.657,-8.557 3.283,-8.556 2.022,-8.578 0.807,-8.09 -0.089,-7.204 -2.026,-5.19 -1.986,-1.995 0,-0.03 Z m 13.977,6.981 c -5.796,5.641 -15.039,5.608 -20.795,-0.074 -5.645,-5.757 -5.717,-14.95 -0.163,-20.796 2.667,-2.774 6.341,-4.354 10.189,-4.382 3.95,0.002 7.739,1.561 10.546,4.338 2.84,2.769 4.446,6.565 4.456,10.531 0.052,3.892 -1.475,7.638 -4.233,10.383"
             style="fill:#42538d;fill-opacity:1;fill-rule:nonzero;stroke:none"
             id="path180" /></g></g></g></g></svg>
