<?xml version="1.0" encoding="UTF-8" standalone="no"?>
<svg
   xmlns:dc="http://purl.org/dc/elements/1.1/"
   xmlns:cc="http://creativecommons.org/ns#"
   xmlns:rdf="http://www.w3.org/1999/02/22-rdf-syntax-ns#"
   xmlns:svg="http://www.w3.org/2000/svg"
   xmlns="http://www.w3.org/2000/svg"
   version="1.1"
   id="svg758"
   xml:space="preserve"
   width="200"
   height="200"
   viewBox="0 0 200 200"><metadata
     id="metadata764"><rdf:RDF><cc:Work
         rdf:about=""><dc:format>image/svg+xml</dc:format><dc:type
           rdf:resource="http://purl.org/dc/dcmitype/StillImage" /><dc:title></dc:title></cc:Work></rdf:RDF></metadata><defs
     id="defs762"><clipPath
       clipPathUnits="userSpaceOnUse"
       id="clipPath774"><path
         d="M 0,150 H 150 V 0 H 0 Z"
         id="path772" /></clipPath></defs><g
     id="g766"
     transform="matrix(1.3333333,0,0,-1.3333333,0,200)"><g
       id="g768"><g
         id="g770"
         clip-path="url(#clipPath774)"><g
           id="g776"
           transform="translate(140,75)"><path
             d="m 0,0 c 0,35.841 -29.158,65 -65,65 -35.841,0 -65,-29.159 -65,-65 0,-35.841 29.159,-65 65,-65 35.842,0 65,29.159 65,65 m 10,0 c 0,-41.421 -33.579,-75 -75,-75 -41.421,0 -75,33.579 -75,75 0,41.421 33.579,75 75,75 41.421,0 75,-33.579 75,-75"
             style="fill:#42538d;fill-opacity:1;fill-rule:nonzero;stroke:none"
             id="path778" /></g><g
           id="g780"
           transform="translate(60,50)"><path
             d="m 0,0 v 0 c -2.761,0 -5,2.238 -5,5 v 40 c 0,2.761 2.239,5 5,5 2.761,0 5,-2.239 5,-5 V 5 C 5,2.238 2.761,0 0,0"
             style="fill:#42538d;fill-opacity:1;fill-rule:nonzero;stroke:none"
             id="path782" /></g><g
           id="g784"
           transform="translate(90,50)"><path
             d="m 0,0 v 0 c -2.762,0 -5,2.238 -5,5 v 40 c 0,2.761 2.238,5 5,5 2.762,0 5,-2.239 5,-5 V 5 C 5,2.238 2.762,0 0,0"
             style="fill:#42538d;fill-opacity:1;fill-rule:nonzero;stroke:none"
             id="path786" /></g></g></g></g></svg>
