<?xml version="1.0" encoding="UTF-8" standalone="no"?>
<svg
   xmlns:dc="http://purl.org/dc/elements/1.1/"
   xmlns:cc="http://creativecommons.org/ns#"
   xmlns:rdf="http://www.w3.org/1999/02/22-rdf-syntax-ns#"
   xmlns:svg="http://www.w3.org/2000/svg"
   xmlns="http://www.w3.org/2000/svg"
   version="1.1"
   id="svg1566"
   xml:space="preserve"
   width="200"
   height="200"
   viewBox="0 0 200 200"><metadata
     id="metadata1572"><rdf:RDF><cc:Work
         rdf:about=""><dc:format>image/svg+xml</dc:format><dc:type
           rdf:resource="http://purl.org/dc/dcmitype/StillImage" /><dc:title></dc:title></cc:Work></rdf:RDF></metadata><defs
     id="defs1570"><clipPath
       clipPathUnits="userSpaceOnUse"
       id="clipPath1582"><path
         d="M 0,150 H 150 V 0 H 0 Z"
         id="path1580" /></clipPath></defs><g
     id="g1574"
     transform="matrix(1.3333333,0,0,-1.3333333,0,200)"><g
       id="g1576"><g
         id="g1578"
         clip-path="url(#clipPath1582)"><g
           id="g1584"
           transform="translate(99.7539,72.7793)"><path
             d="m 0,0 c -3.443,4.142 -6.87,8.106 -10.398,12.069 -1.077,1.143 -1.653,2.788 -1.569,4.479 v 45.94 c 0,4.617 0,4.617 4.006,4.617 2.25,0 3.188,0.496 3.239,2.141 0.051,1.645 -0.921,2.358 -3.221,2.358 h -33.737 -1.245 c -0.059,0 -0.119,-0.003 -0.179,-0.01 -0.937,-0.109 -1.62,-1.081 -1.525,-2.17 -0.002,-0.041 -0.003,-0.082 -0.003,-0.122 10e-4,-1.095 0.766,-1.981 1.707,-1.979 1.023,-0.118 2.08,-0.118 3.12,-0.118 1.807,-0.06 2.302,-0.615 2.302,-2.736 0,-16.35 0.368,-32.973 0.368,-49.303 -0.04,-0.939 -0.366,-1.832 -0.92,-2.517 -1.756,-2.24 -3.785,-4.479 -5.489,-6.461 -1.705,-1.982 -3.779,-3.691 -5.483,-5.672 -1.367,-1.13 -1.918,-3.181 -1.347,-5.015 0.658,-1.793 2.28,-2.838 3.937,-2.536 14.747,0.119 29.543,0.119 44.324,0.119 0.822,0.032 1.616,0.365 2.266,0.951 C 1.858,-4.38 1.756,-1.883 0,0 m -22.852,-50.248 v 36.08 1.389 h -0.87 -2.812 v -1.163 c 0,-12.365 -0.102,-24.748 0,-37.113 0.129,-2.456 0.437,-4.896 0.92,-7.298 0.243,-0.913 0.562,-1.798 0.955,-2.645 1.239,3.417 1.853,7.071 1.807,10.75 M 9.965,-4.907 C 9.963,-5.062 9.956,-5.217 9.945,-5.372 9.633,-9.815 5.777,-13.165 1.333,-12.854 h -6.062 l 0.005,-0.031 h -12.002 v -2.167 -39.727 c -0.045,-5.168 -1.436,-10.235 -4.033,-14.702 -0.464,-0.726 -3.076,-3.298 -3.721,-3.298 -0.93,0.173 -3.443,2.443 -3.923,3.258 -2.977,5.143 -4.452,11.019 -4.256,16.959 v 37.712 c 0,0.686 0.162,1.352 0.162,1.896 -2.184,0.019 -2.616,0.044 -4.736,0.069 h -0.001 c -4.655,0.055 -9.194,0.113 -13.725,0.113 -0.041,-0.002 -0.081,-0.004 -0.121,-0.006 -4.451,-0.183 -8.207,3.278 -8.39,7.729 -0.155,2.442 0.828,4.817 2.662,6.434 3.933,4.033 7.966,8.066 12,12.1 0.532,0.47 0.882,1.113 0.988,1.815 v 47.811 h -0.776 c -0.757,-0.069 -1.624,-0.117 -1.624,-0.117 -1.259,0.043 -2.418,0.471 -3.387,1.153 -2.042,1.237 -3.42,3.457 -3.42,6.019 0,3.449 2.478,6.31 5.749,6.923 0.195,0.051 0.393,0.091 0.594,0.113 h 0.527 c 0.062,0.002 0.121,0.019 0.184,0.019 h 42.725 c 3.895,0 7.055,-3.159 7.055,-7.055 0,-2.96 -1.828,-5.485 -4.411,-6.532 -0.798,-0.38 -1.679,-0.611 -2.621,-0.62 -0.772,-0.039 -1.546,-0.039 -2.319,0 v -1.875 -44.73 c -0.049,-1.28 0.477,-2.515 1.432,-3.368 C -0.28,9.31 3.491,5.499 7.282,1.687 9.121,0.003 10.105,-2.418 9.965,-4.907"
             style="fill:#42538d;fill-opacity:1;fill-rule:nonzero;stroke:none"
             id="path1586" /></g></g></g></g></svg>
