<?xml version="1.0" encoding="UTF-8" standalone="no"?>
<svg
   xmlns:dc="http://purl.org/dc/elements/1.1/"
   xmlns:cc="http://creativecommons.org/ns#"
   xmlns:rdf="http://www.w3.org/1999/02/22-rdf-syntax-ns#"
   xmlns:svg="http://www.w3.org/2000/svg"
   xmlns="http://www.w3.org/2000/svg"
   version="1.1"
   id="svg1428"
   xml:space="preserve"
   width="200"
   height="200"
   viewBox="0 0 200 200"><metadata
     id="metadata1434"><rdf:RDF><cc:Work
         rdf:about=""><dc:format>image/svg+xml</dc:format><dc:type
           rdf:resource="http://purl.org/dc/dcmitype/StillImage" /><dc:title></dc:title></cc:Work></rdf:RDF></metadata><defs
     id="defs1432"><clipPath
       clipPathUnits="userSpaceOnUse"
       id="clipPath1444"><path
         d="M 0,150 H 150 V 0 H 0 Z"
         id="path1442" /></clipPath></defs><g
     id="g1436"
     transform="matrix(1.3333333,0,0,-1.3333333,0,200)"><g
       id="g1438"><g
         id="g1440"
         clip-path="url(#clipPath1444)"><g
           id="g1446"
           transform="translate(109.7188,67.8721)"><path
             d="m 0,0 c -0.002,-0.155 -0.009,-0.31 -0.02,-0.465 -0.312,-4.443 -4.167,-7.793 -8.612,-7.481 h -6.062 l 0.006,-0.032 H -26.69 v -2.167 -39.727 c -0.046,-5.168 -1.437,-10.234 -4.034,-14.702 -0.463,-0.726 -3.076,-3.298 -3.721,-3.298 -0.93,0.173 -3.443,2.443 -3.923,3.258 -2.977,5.143 -4.452,11.019 -4.256,16.96 v 37.712 c 0,0.685 0.162,1.351 0.162,1.895 -2.184,0.02 -2.616,0.044 -4.736,0.069 h -10e-4 c -4.655,0.055 -9.194,0.113 -13.725,0.113 -0.04,-0.002 -0.08,-0.004 -0.12,-0.006 -4.452,-0.183 -8.208,3.278 -8.391,7.729 -0.155,2.442 0.828,4.817 2.663,6.434 3.932,4.033 7.965,8.066 11.999,12.1 0.532,0.47 0.882,1.113 0.988,1.815 v 47.811 h -0.776 c -0.757,-0.069 -1.624,-0.117 -1.624,-0.117 -1.259,0.043 -2.418,0.471 -3.387,1.154 -2.042,1.236 -3.42,3.457 -3.42,6.018 0,3.449 2.478,6.31 5.749,6.923 0.195,0.051 0.393,0.091 0.595,0.113 h 0.526 c 0.062,0.002 0.121,0.019 0.184,0.019 h 42.725 c 3.896,0 7.055,-3.159 7.055,-7.055 0,-2.96 -1.827,-5.485 -4.411,-6.532 -0.798,-0.379 -1.679,-0.61 -2.62,-0.62 -0.773,-0.039 -1.547,-0.039 -2.32,0 v -1.875 -44.73 c -0.049,-1.28 0.477,-2.515 1.432,-3.368 3.832,-3.731 7.603,-7.542 11.394,-11.354 C -0.844,4.91 0.141,2.489 0,0"
             style="fill:#42538d;fill-opacity:1;fill-rule:nonzero;stroke:none"
             id="path1448" /></g></g></g></g></svg>
