<?xml version="1.0" encoding="UTF-8" standalone="no"?>
<svg
   xmlns:dc="http://purl.org/dc/elements/1.1/"
   xmlns:cc="http://creativecommons.org/ns#"
   xmlns:rdf="http://www.w3.org/1999/02/22-rdf-syntax-ns#"
   xmlns:svg="http://www.w3.org/2000/svg"
   xmlns="http://www.w3.org/2000/svg"
   version="1.1"
   id="svg824"
   xml:space="preserve"
   width="200"
   height="200"
   viewBox="0 0 200 200"><metadata
     id="metadata830"><rdf:RDF><cc:Work
         rdf:about=""><dc:format>image/svg+xml</dc:format><dc:type
           rdf:resource="http://purl.org/dc/dcmitype/StillImage" /><dc:title></dc:title></cc:Work></rdf:RDF></metadata><defs
     id="defs828"><clipPath
       clipPathUnits="userSpaceOnUse"
       id="clipPath840"><path
         d="M 0,150 H 150 V 0 H 0 Z"
         id="path838" /></clipPath></defs><g
     id="g832"
     transform="matrix(1.3333333,0,0,-1.3333333,0,200)"><g
       id="g834"><g
         id="g836"
         clip-path="url(#clipPath840)"><g
           id="g842"
           transform="translate(140,75)"><path
             d="m 0,0 c 0,35.841 -29.159,65 -65,65 -35.84,0 -65,-29.159 -65,-65 0,-35.841 29.16,-65 65,-65 35.841,0 65,29.159 65,65 m 10,0 c 0,-41.421 -33.579,-75 -75,-75 -41.421,0 -75,33.579 -75,75 0,41.421 33.579,75 75,75 41.421,0 75,-33.579 75,-75"
             style="fill:#42538d;fill-opacity:1;fill-rule:nonzero;stroke:none"
             id="path844" /></g><g
           id="g846"
           transform="translate(102.1572,77.2979)"><path
             d="m 0,0 -38.677,22.33 c -1.769,1.022 -3.98,-0.255 -3.98,-2.298 v -44.66 c 0,-2.043 2.211,-3.319 3.98,-2.298 L 0,-4.596 C 1.769,-3.574 1.769,-1.021 0,0"
             style="fill:#42538d;fill-opacity:1;fill-rule:nonzero;stroke:none"
             id="path848" /></g></g></g></g></svg>
