<?xml version="1.0" encoding="UTF-8" standalone="no"?>
<svg
   xmlns:dc="http://purl.org/dc/elements/1.1/"
   xmlns:cc="http://creativecommons.org/ns#"
   xmlns:rdf="http://www.w3.org/1999/02/22-rdf-syntax-ns#"
   xmlns:svg="http://www.w3.org/2000/svg"
   xmlns="http://www.w3.org/2000/svg"
   version="1.1"
   id="svg262"
   xml:space="preserve"
   width="200"
   height="200"
   viewBox="0 0 200 200"><metadata
     id="metadata268"><rdf:RDF><cc:Work
         rdf:about=""><dc:format>image/svg+xml</dc:format><dc:type
           rdf:resource="http://purl.org/dc/dcmitype/StillImage" /><dc:title></dc:title></cc:Work></rdf:RDF></metadata><defs
     id="defs266"><clipPath
       clipPathUnits="userSpaceOnUse"
       id="clipPath280"><path
         d="M 0,150 H 150 V 0 H 0 Z"
         id="path278" /></clipPath></defs><g
     id="g270"
     transform="matrix(1.3333333,0,0,-1.3333333,0,200)"><path
       d="M 0,0 H 150 V 150 H 0 Z"
       style="fill:#231f20;fill-opacity:1;fill-rule:nonzero;stroke:none"
       id="path272" /><g
       id="g274"><g
         id="g276"
         clip-path="url(#clipPath280)"><g
           id="g282"
           transform="translate(150,75)"><path
             d="m 0,0 c 0,-41.421 -33.579,-75 -75,-75 -41.421,0 -75,33.579 -75,75 0,41.421 33.579,75 75,75 C -33.579,75 0,41.421 0,0"
             style="fill:#ffffff;fill-opacity:1;fill-rule:nonzero;stroke:none"
             id="path284" /></g><g
           id="g286"
           transform="translate(103.8145,43.667)"><path
             d="m 0,0 c -0.204,-0.363 -0.589,-0.588 -1.003,-0.588 h -55.773 c -0.414,0 -0.798,0.225 -1.002,0.587 -0.205,0.363 -0.201,0.791 0.014,1.146 2.985,4.926 7.473,8.796 13.72,11.833 4.562,2.212 9.761,3.381 15.037,3.381 10.693,0 20.802,-4.625 27.042,-12.373 0.698,-0.9 1.354,-1.855 1.948,-2.838 C 0.198,0.793 0.204,0.364 0,0 m 12.339,-1.88 c -1.479,4.405 -3.65,8.466 -6.453,12.069 -8.115,10.128 -21.159,16.175 -34.893,16.175 -6.78,0 -13.492,-1.518 -19.409,-4.39 -10.496,-5.099 -17.397,-12.382 -21.099,-22.264 -1.025,-2.717 -1.887,-5.788 -0.501,-7.968 1.356,-2.128 3.96,-2.321 6.296,-2.335 H 6.74 c 1.996,0 4.444,0.24 5.661,2.111 0.963,1.48 0.943,3.639 -0.062,6.602"
             style="fill:#42538d;fill-opacity:1;fill-rule:nonzero;stroke:none"
             id="path288" /></g><g
           id="g290"
           transform="translate(75.002,106.9209)"><path
             d="m 0,0 c 4.838,0 8.925,-5.118 8.925,-11.177 0,-6.058 -4.087,-11.176 -8.925,-11.176 -4.837,0 -8.923,5.118 -8.923,11.176 C -8.923,-5.118 -4.837,0 0,0 m 0,-32.357 c 10.438,0 18.929,9.502 18.929,21.181 0,11.679 -8.491,21.181 -18.929,21.181 -10.438,0 -18.929,-9.502 -18.929,-21.181 0,-11.679 8.491,-21.181 18.929,-21.181"
             style="fill:#42538d;fill-opacity:1;fill-rule:nonzero;stroke:none"
             id="path292" /></g></g></g></g></svg>
