<?xml version="1.0" encoding="UTF-8" standalone="no"?>
<svg
   xmlns:dc="http://purl.org/dc/elements/1.1/"
   xmlns:cc="http://creativecommons.org/ns#"
   xmlns:rdf="http://www.w3.org/1999/02/22-rdf-syntax-ns#"
   xmlns:svg="http://www.w3.org/2000/svg"
   xmlns="http://www.w3.org/2000/svg"
   version="1.1"
   id="svg550"
   xml:space="preserve"
   width="200"
   height="200"
   viewBox="0 0 200 200"><metadata
     id="metadata556"><rdf:RDF><cc:Work
         rdf:about=""><dc:format>image/svg+xml</dc:format><dc:type
           rdf:resource="http://purl.org/dc/dcmitype/StillImage" /><dc:title></dc:title></cc:Work></rdf:RDF></metadata><defs
     id="defs554"><clipPath
       clipPathUnits="userSpaceOnUse"
       id="clipPath566"><path
         d="M 0,150 H 150 V 0 H 0 Z"
         id="path564" /></clipPath></defs><g
     id="g558"
     transform="matrix(1.3333333,0,0,-1.3333333,0,200)"><g
       id="g560"><g
         id="g562"
         clip-path="url(#clipPath566)"><g
           id="g568"
           transform="translate(64.6885,83.9375)"><path
             d="m 0,0 h -21.063 c -0.379,0 -0.723,0.153 -0.978,0.398 -0.244,0.254 -0.396,0.598 -0.396,0.976 v 21.063 c 0,0.667 0.468,1.227 1.091,1.375 H 0 c 0.667,0 1.226,-0.469 1.374,-1.091 V 1.374 C 1.374,0.996 1.222,0.652 0.977,0.397 0.723,0.153 0.379,0 0,0 M 3.044,29.535 C 2.453,29.73 1.823,29.842 1.167,29.853 h -23.398 c -2.789,0 -5.147,-1.839 -5.93,-4.371 -0.195,-0.592 -0.307,-1.222 -0.318,-1.877 V 0.207 c 0,-1.725 0.705,-3.284 1.84,-4.409 1.124,-1.135 2.683,-1.839 4.408,-1.839 H 1.167 c 1.725,0 3.284,0.704 4.409,1.839 1.135,1.125 1.839,2.684 1.839,4.409 v 23.398 c 0,2.789 -1.839,5.147 -4.371,5.93"
             style="fill:#42538d;fill-opacity:1;fill-rule:nonzero;stroke:none"
             id="path570" /></g><g
           id="g572"
           transform="translate(85.3105,83.8555)"><path
             d="m 0,0 c -0.666,0 -1.226,0.469 -1.373,1.092 v 21.345 c 10e-4,0.668 0.471,1.229 1.096,1.375 h 21.34 c 0.669,0 1.231,-0.472 1.376,-1.097 V 1.374 c 0,-0.667 -0.469,-1.228 -1.093,-1.375 z m 24.103,29.536 c -0.59,0.194 -1.218,0.306 -1.871,0.316 H -1.166 c -2.789,0 -5.148,-1.84 -5.931,-4.372 -0.195,-0.591 -0.306,-1.221 -0.317,-1.876 V 0.206 c 0,-1.678 0.668,-3.197 1.75,-4.314 0.02,-0.021 0.039,-0.044 0.06,-0.066 0.019,-0.019 0.041,-0.037 0.061,-0.057 1.103,-1.098 2.614,-1.788 4.293,-1.811 0.028,0 0.056,0 0.084,0 h 23.398 c 1.69,0 3.219,0.677 4.338,1.772 0.013,0.012 0.026,0.022 0.037,0.034 0.031,0.03 0.058,0.062 0.087,0.092 1.083,1.101 1.763,2.601 1.785,4.267 v 0.083 23.398 c 0,2.792 -1.841,5.151 -4.376,5.932"
             style="fill:#42538d;fill-opacity:1;fill-rule:nonzero;stroke:none"
             id="path574" /></g><g
           id="g576"
           transform="translate(64.0923,42.251)"><path
             d="m 0,0 h -19.87 c -0.548,0 -1.046,0.223 -1.41,0.582 -0.346,0.361 -0.561,0.849 -0.561,1.388 v 19.871 c 0,0.968 0.693,1.782 1.607,1.971 H 0 c 0.967,0 1.781,-0.693 1.97,-1.607 V 1.971 C 1.97,1.423 1.748,0.926 1.39,0.562 1.028,0.216 0.54,0 0,0 M 3.641,29.535 C 3.049,29.73 2.419,29.842 1.764,29.853 h -23.399 c -2.788,0 -5.147,-1.839 -5.93,-4.372 -0.195,-0.591 -0.307,-1.221 -0.318,-1.877 V 0.206 c 0,-1.724 0.705,-3.283 1.84,-4.408 1.125,-1.135 2.684,-1.839 4.408,-1.839 H 1.764 c 1.724,0 3.283,0.704 4.408,1.839 1.135,1.125 1.839,2.684 1.839,4.408 v 23.398 c 0,2.79 -1.839,5.148 -4.37,5.931"
             style="fill:#42538d;fill-opacity:1;fill-rule:nonzero;stroke:none"
             id="path578" /></g><g
           id="g580"
           transform="translate(51.9121,99.8877)"><path
             d="m 0,0 h 4.489 c 1.017,0 1.842,-0.824 1.842,-1.841 v -4.49 c 0,-1.016 -0.825,-1.84 -1.842,-1.84 H 0 c -1.017,0 -1.841,0.824 -1.841,1.84 v 4.49 C -1.841,-0.824 -1.017,0 0,0"
             style="fill:#42538d;fill-opacity:1;fill-rule:nonzero;stroke:none"
             id="path582" /></g><g
           id="g584"
           transform="translate(51.9121,58.2012)"><path
             d="m 0,0 h 4.489 c 1.017,0 1.842,-0.824 1.842,-1.841 v -4.49 c 0,-1.017 -0.825,-1.841 -1.842,-1.841 H 0 c -1.017,0 -1.841,0.824 -1.841,1.841 v 4.49 C -1.841,-0.824 -1.017,0 0,0"
             style="fill:#42538d;fill-opacity:1;fill-rule:nonzero;stroke:none"
             id="path586" /></g><g
           id="g588"
           transform="translate(81.3311,70.4697)"><path
             d="M 0,0 H 4.489 C 5.506,0 6.33,-0.825 6.33,-1.842 v -4.489 c 0,-1.017 -0.824,-1.841 -1.841,-1.841 H 0 c -1.018,0 -1.842,0.824 -1.842,1.841 v 4.489 C -1.842,-0.825 -1.018,0 0,0"
             style="fill:#42538d;fill-opacity:1;fill-rule:nonzero;stroke:none"
             id="path590" /></g><g
           id="g592"
           transform="translate(105.0391,70.4697)"><path
             d="m 0,0 h 4.489 c 1.018,0 1.842,-0.825 1.842,-1.842 v -4.489 c 0,-1.017 -0.824,-1.841 -1.842,-1.841 H 0 c -1.017,0 -1.841,0.824 -1.841,1.841 v 4.489 C -1.841,-0.825 -1.017,0 0,0"
             style="fill:#42538d;fill-opacity:1;fill-rule:nonzero;stroke:none"
             id="path594" /></g><g
           id="g596"
           transform="translate(81.3311,46.7607)"><path
             d="M 0,0 H 4.489 C 5.506,0 6.33,-0.824 6.33,-1.842 v -4.489 c 0,-1.017 -0.824,-1.841 -1.841,-1.841 H 0 c -1.018,0 -1.842,0.824 -1.842,1.841 v 4.489 C -1.842,-0.824 -1.018,0 0,0"
             style="fill:#42538d;fill-opacity:1;fill-rule:nonzero;stroke:none"
             id="path598" /></g><g
           id="g600"
           transform="translate(105.0391,46.7607)"><path
             d="m 0,0 h 4.489 c 1.018,0 1.842,-0.824 1.842,-1.842 v -4.489 c 0,-1.017 -0.824,-1.841 -1.842,-1.841 H 0 c -1.017,0 -1.841,0.824 -1.841,1.841 v 4.489 C -1.841,-0.824 -1.017,0 0,0"
             style="fill:#42538d;fill-opacity:1;fill-rule:nonzero;stroke:none"
             id="path602" /></g><g
           id="g604"
           transform="translate(93.5986,99.8877)"><path
             d="m 0,0 h 4.489 c 1.018,0 1.842,-0.824 1.842,-1.841 v -4.49 c 0,-1.016 -0.824,-1.84 -1.842,-1.84 H 0 c -1.017,0 -1.841,0.824 -1.841,1.84 v 4.49 C -1.841,-0.824 -1.017,0 0,0"
             style="fill:#42538d;fill-opacity:1;fill-rule:nonzero;stroke:none"
             id="path606" /></g><g
           id="g608"
           transform="translate(92.7715,58.2012)"><path
             d="M 0,0 H 4.489 C 5.506,0 6.33,-0.824 6.33,-1.841 v -4.49 c 0,-1.017 -0.824,-1.841 -1.841,-1.841 H 0 c -1.017,0 -1.842,0.824 -1.842,1.841 v 4.49 C -1.842,-0.824 -1.017,0 0,0"
             style="fill:#42538d;fill-opacity:1;fill-rule:nonzero;stroke:none"
             id="path610" /></g><g
           id="g612"
           transform="translate(10,105)"><path
             d="M 0,0 V 26.64 C 0,31.257 3.743,35 8.36,35 H 35 c 2.762,0 5,2.238 5,5 v 0 c 0,2.762 -2.238,5 -5,5 H 6.143 C -2.772,45 -10,37.772 -10,28.857 V 0 c 0,-2.761 2.239,-5 5,-5 2.761,0 5,2.239 5,5"
             style="fill:#42538d;fill-opacity:1;fill-rule:nonzero;stroke:none"
             id="path614" /></g><g
           id="g616"
           transform="translate(105,140)"><path
             d="M 0,0 H 26.641 C 31.257,0 35,-3.743 35,-8.36 V -35 c 0,-2.762 2.238,-5 5,-5 2.762,0 5,2.238 5,5 V -6.143 C 45,2.772 37.772,10 28.857,10 H 0 C -2.762,10 -5,7.762 -5,5 V 5 C -5,2.238 -2.762,0 0,0"
             style="fill:#42538d;fill-opacity:1;fill-rule:nonzero;stroke:none"
             id="path618" /></g><g
           id="g620"
           transform="translate(45,10)"><path
             d="M 0,0 H -26.639 C -31.257,0 -35,3.743 -35,8.36 V 35 c 0,2.762 -2.238,5 -5,5 -2.762,0 -5,-2.238 -5,-5 V 6.143 C -45,-2.772 -37.772,-10 -28.857,-10 H 0 c 2.762,0 5,2.238 5,5 0,2.762 -2.238,5 -5,5"
             style="fill:#42538d;fill-opacity:1;fill-rule:nonzero;stroke:none"
             id="path622" /></g><g
           id="g624"
           transform="translate(140,45)"><path
             d="M 0,0 V -26.64 C 0,-31.257 -3.743,-35 -8.36,-35 H -35 c -2.762,0 -5,-2.238 -5,-5 0,-2.762 2.238,-5 5,-5 H -6.143 C 2.772,-45 10,-37.772 10,-28.857 V 0 C 10,2.762 7.762,5 5,5 2.238,5 0,2.762 0,0"
             style="fill:#42538d;fill-opacity:1;fill-rule:nonzero;stroke:none"
             id="path626" /></g></g></g></g></svg>
