<?xml version="1.0" encoding="UTF-8" standalone="no"?>
<svg
   xmlns:dc="http://purl.org/dc/elements/1.1/"
   xmlns:cc="http://creativecommons.org/ns#"
   xmlns:rdf="http://www.w3.org/1999/02/22-rdf-syntax-ns#"
   xmlns:svg="http://www.w3.org/2000/svg"
   xmlns="http://www.w3.org/2000/svg"
   version="1.1"
   id="svg2842"
   xml:space="preserve"
   width="200"
   height="200"
   viewBox="0 0 200 200"><metadata
     id="metadata2848"><rdf:RDF><cc:Work
         rdf:about=""><dc:format>image/svg+xml</dc:format><dc:type
           rdf:resource="http://purl.org/dc/dcmitype/StillImage" /><dc:title></dc:title></cc:Work></rdf:RDF></metadata><defs
     id="defs2846"><clipPath
       clipPathUnits="userSpaceOnUse"
       id="clipPath2858"><path
         d="M 0,150 H 150 V 0 H 0 Z"
         id="path2856" /></clipPath></defs><g
     id="g2850"
     transform="matrix(1.3333333,0,0,-1.3333333,0,200)"><g
       id="g2852"><g
         id="g2854"
         clip-path="url(#clipPath2858)"><g
           id="g2860"
           transform="translate(139.9268,70.4092)"><path
             d="m 0,0 v -50.827 c 0,-5.299 -4.295,-9.594 -9.594,-9.594 h -110.665 c -5.299,0 -9.594,4.295 -9.594,9.594 V 0 c 0,2.758 -2.235,4.994 -4.994,4.994 h -0.001 c -2.757,0 -4.994,-2.236 -4.994,-4.994 v -50.826 c 0,-10.816 8.768,-19.583 19.583,-19.583 H -9.595 c 10.816,0 19.583,8.767 19.583,19.583 L 9.988,0 C 9.988,2.758 7.752,4.994 4.994,4.994 2.235,4.994 0,2.758 0,0"
             style="fill:#42538d;fill-opacity:1;fill-rule:nonzero;stroke:none"
             id="path2862" /></g><g
           id="g2864"
           transform="translate(104.6182,61.3477)"><path
             d="M 0,0 C -1.95,1.95 -5.112,1.95 -7.062,0 L -24.454,-17.391 V 83.658 c 0,2.759 -2.235,4.994 -4.994,4.994 -2.758,0 -4.994,-2.235 -4.994,-4.994 V -17.391 L -51.833,0 c -1.95,1.95 -5.112,1.95 -7.063,0 -1.95,-1.95 -1.95,-5.112 0,-7.063 l 25.687,-25.687 c 1.034,-1.034 2.407,-1.503 3.761,-1.44 1.354,-0.063 2.727,0.406 3.761,1.44 L 0,-7.063 C 1.95,-5.112 1.95,-1.95 0,0"
             style="fill:#42538d;fill-opacity:1;fill-rule:nonzero;stroke:none"
             id="path2866" /></g></g></g></g></svg>
