<?xml version="1.0" encoding="UTF-8" standalone="no"?>
<svg
   xmlns:dc="http://purl.org/dc/elements/1.1/"
   xmlns:cc="http://creativecommons.org/ns#"
   xmlns:rdf="http://www.w3.org/1999/02/22-rdf-syntax-ns#"
   xmlns:svg="http://www.w3.org/2000/svg"
   xmlns="http://www.w3.org/2000/svg"
   version="1.1"
   id="svg2486"
   xml:space="preserve"
   width="200"
   height="200"
   viewBox="0 0 200 200"><metadata
     id="metadata2492"><rdf:RDF><cc:Work
         rdf:about=""><dc:format>image/svg+xml</dc:format><dc:type
           rdf:resource="http://purl.org/dc/dcmitype/StillImage" /><dc:title></dc:title></cc:Work></rdf:RDF></metadata><defs
     id="defs2490"><clipPath
       clipPathUnits="userSpaceOnUse"
       id="clipPath2502"><path
         d="M 0,150 H 150 V 0 H 0 Z"
         id="path2500" /></clipPath></defs><g
     id="g2494"
     transform="matrix(1.3333333,0,0,-1.3333333,0,200)"><g
       id="g2496"><g
         id="g2498"
         clip-path="url(#clipPath2502)"><g
           id="g2504"
           transform="translate(123.8564,137.7256)"><path
             d="m 0,0 c -0.22,6.75 -5.688,12.144 -12.44,12.27 -24.346,-0.122 -48.691,0 -73.036,0 -0.214,0.006 -0.428,0.006 -0.642,0 -6.546,-0.177 -11.708,-5.627 -11.531,-12.172 v -33.281 -99.815 c -0.231,-1.273 0.173,-2.579 1.083,-3.499 1.541,-1.558 4.054,-1.572 5.612,-0.031 l 40.754,27.34 c 0.689,0.631 1.746,0.631 2.434,0 5.357,-3.627 10.737,-7.182 16.117,-10.761 l 25.733,-16.992 c 0.015,-0.013 0.03,-0.026 0.046,-0.038 1.112,-0.885 2.604,-0.968 3.78,-0.329 0.802,0.437 1.317,1.242 1.637,2.096 0.302,0.806 0.456,1.663 0.453,2.53 v 66.414 C 0,-44.162 -0.195,-22.081 0,0"
             style="fill:#42538d;fill-opacity:1;fill-rule:nonzero;stroke:none"
             id="path2506" /></g></g></g></g></svg>
