<?xml version="1.0" encoding="UTF-8" standalone="no"?>
<svg
   xmlns:dc="http://purl.org/dc/elements/1.1/"
   xmlns:cc="http://creativecommons.org/ns#"
   xmlns:rdf="http://www.w3.org/1999/02/22-rdf-syntax-ns#"
   xmlns:svg="http://www.w3.org/2000/svg"
   xmlns="http://www.w3.org/2000/svg"
   version="1.1"
   id="svg2428"
   xml:space="preserve"
   width="200"
   height="200"
   viewBox="0 0 200 200"><metadata
     id="metadata2434"><rdf:RDF><cc:Work
         rdf:about=""><dc:format>image/svg+xml</dc:format><dc:type
           rdf:resource="http://purl.org/dc/dcmitype/StillImage" /><dc:title></dc:title></cc:Work></rdf:RDF></metadata><defs
     id="defs2432"><clipPath
       clipPathUnits="userSpaceOnUse"
       id="clipPath2444"><path
         d="M 0,150 H 150 V 0 H 0 Z"
         id="path2442" /></clipPath></defs><g
     id="g2436"
     transform="matrix(1.3333333,0,0,-1.3333333,0,200)"><g
       id="g2438"><g
         id="g2440"
         clip-path="url(#clipPath2444)"><g
           id="g2446"
           transform="translate(36.208,137.9595)"><path
             d="M 0,0 -0.004,0.136 C -0.021,0.771 0.263,1.207 0.504,1.461 0.745,1.716 1.166,2.022 1.8,2.04 L 2.172,2.036 c 8.109,0 16.219,-0.014 24.328,-0.027 8.121,-0.013 16.241,-0.027 24.362,-0.027 8.078,0 16.157,0.014 24.235,0.053 1.35,-0.061 2.441,-1.12 2.549,-2.463 -0.127,-14.686 -0.083,-29.587 -0.041,-43.999 0.022,-7.356 0.043,-14.714 0.043,-22.074 v -55.995 l -16.137,10.658 -3.419,2.271 c -4.028,2.676 -8.189,5.44 -12.257,8.192 -2.053,1.571 -4.562,2.425 -7.169,2.425 -2.598,0 -5.097,-0.847 -7.145,-2.407 L 0,-122.502 Z m 87.648,-0.234 c -0.219,6.75 -5.688,12.144 -12.44,12.27 -24.346,-0.121 -48.69,0 -73.036,0 -0.214,0.006 -0.428,0.006 -0.642,0 C -5.015,11.859 -10.178,6.409 -10,-0.136 v -33.281 -99.815 c -0.231,-1.272 0.173,-2.579 1.083,-3.499 1.541,-1.558 4.053,-1.572 5.611,-0.031 l 40.754,27.34 c 0.689,0.631 1.746,0.631 2.435,0 5.356,-3.627 10.736,-7.182 16.116,-10.761 l 25.733,-16.992 c 0.015,-0.013 0.031,-0.026 0.046,-0.037 1.113,-0.886 2.605,-0.969 3.781,-0.33 0.801,0.437 1.316,1.242 1.636,2.096 0.302,0.806 0.456,1.663 0.453,2.53 v 66.415 c 0,22.105 -0.195,44.186 0,66.267"
             style="fill:#42538d;fill-opacity:1;fill-rule:nonzero;stroke:none"
             id="path2448" /></g></g></g></g></svg>
