<?xml version="1.0" encoding="UTF-8" standalone="no"?>
<svg
   xmlns:dc="http://purl.org/dc/elements/1.1/"
   xmlns:cc="http://creativecommons.org/ns#"
   xmlns:rdf="http://www.w3.org/1999/02/22-rdf-syntax-ns#"
   xmlns:svg="http://www.w3.org/2000/svg"
   xmlns="http://www.w3.org/2000/svg"
   version="1.1"
   id="svg28"
   xml:space="preserve"
   width="200"
   height="200"
   viewBox="0 0 200 200"><metadata
     id="metadata34"><rdf:RDF><cc:Work
         rdf:about=""><dc:format>image/svg+xml</dc:format><dc:type
           rdf:resource="http://purl.org/dc/dcmitype/StillImage" /><dc:title></dc:title></cc:Work></rdf:RDF></metadata><defs
     id="defs32"><clipPath
       clipPathUnits="userSpaceOnUse"
       id="clipPath44"><path
         d="M 0,150 H 150 V 0 H 0 Z"
         id="path42" /></clipPath></defs><g
     id="g36"
     transform="matrix(1.3333333,0,0,-1.3333333,0,200)"><g
       id="g38"><g
         id="g40"
         clip-path="url(#clipPath44)"><g
           id="g46"
           transform="translate(10,105)"><path
             d="M 0,0 V 28.423 C 0,32.056 2.944,35 6.577,35 H 35 c 2.762,0 5,2.239 5,5 0,2.762 -2.238,5 -5,5 H 4.789 C -3.378,45 -10,38.378 -10,30.211 V 0 c 0,-2.762 2.238,-5 5,-5 2.761,0 5,2.238 5,5"
             style="fill:#42538d;fill-opacity:1;fill-rule:nonzero;stroke:none"
             id="path48" /></g><g
           id="g50"
           transform="translate(140,45)"><path
             d="M 0,0 V -28.423 C 0,-32.056 -2.944,-35 -6.577,-35 H -35 c -2.762,0 -5,-2.238 -5,-5 0,-2.762 2.238,-5 5,-5 H -4.789 C 3.379,-45 10,-38.379 10,-30.211 V 0 C 10,2.762 7.762,5 5,5 2.238,5 0,2.762 0,0"
             style="fill:#42538d;fill-opacity:1;fill-rule:nonzero;stroke:none"
             id="path52" /></g><g
           id="g54"
           transform="translate(45,10)"><path
             d="M 0,0 H -28.423 C -32.056,0 -35,2.945 -35,6.577 V 35 c 0,2.762 -2.239,5 -5,5 -2.762,0 -5,-2.238 -5,-5 V 4.789 C -45,-3.379 -38.378,-10 -30.21,-10 H 0 c 2.762,0 5,2.238 5,5 0,2.762 -2.238,5 -5,5"
             style="fill:#42538d;fill-opacity:1;fill-rule:nonzero;stroke:none"
             id="path56" /></g><g
           id="g58"
           transform="translate(105,140)"><path
             d="M 0,0 H 28.423 C 32.056,0 35,-2.945 35,-6.577 V -35 c 0,-2.762 2.238,-5 5,-5 2.762,0 5,2.238 5,5 V -4.79 C 45,3.378 38.379,10 30.211,10 H 0 C -2.762,10 -5,7.762 -5,5 V 5 C -5,2.238 -2.762,0 0,0"
             style="fill:#42538d;fill-opacity:1;fill-rule:nonzero;stroke:none"
             id="path60" /></g></g></g></g></svg>
