<?xml version="1.0" encoding="UTF-8" standalone="no"?>
<svg
   xmlns:dc="http://purl.org/dc/elements/1.1/"
   xmlns:cc="http://creativecommons.org/ns#"
   xmlns:rdf="http://www.w3.org/1999/02/22-rdf-syntax-ns#"
   xmlns:svg="http://www.w3.org/2000/svg"
   xmlns="http://www.w3.org/2000/svg"
   version="1.1"
   id="svg2544"
   xml:space="preserve"
   width="200"
   height="200"
   viewBox="0 0 200 200"><metadata
     id="metadata2550"><rdf:RDF><cc:Work
         rdf:about=""><dc:format>image/svg+xml</dc:format><dc:type
           rdf:resource="http://purl.org/dc/dcmitype/StillImage" /><dc:title></dc:title></cc:Work></rdf:RDF></metadata><defs
     id="defs2548"><clipPath
       clipPathUnits="userSpaceOnUse"
       id="clipPath2560"><path
         d="M 0,150 H 150 V 0 H 0 Z"
         id="path2558" /></clipPath></defs><g
     id="g2552"
     transform="matrix(1.3333333,0,0,-1.3333333,0,200)"><g
       id="g2554"><g
         id="g2556"
         clip-path="url(#clipPath2560)"><g
           id="g2562"
           transform="translate(55.7334,48.5332)"><path
             d="m 0,0 c -25.218,0 -45.733,20.516 -45.733,45.733 0,25.218 20.515,45.734 45.733,45.734 25.218,0 45.733,-20.516 45.733,-45.734 C 45.733,20.516 25.218,0 0,0 m 92.802,-39.998 -50.021,50.02 c 8.082,9.672 12.952,22.122 12.952,35.711 0,30.781 -24.953,55.734 -55.733,55.734 -30.781,0 -55.733,-24.953 -55.733,-55.734 C -55.733,14.953 -30.781,-10 0,-10 c 13.59,0 26.039,4.87 35.711,12.952 l 50.02,-50.02 c 1.953,-1.953 5.119,-1.953 7.071,0 1.953,1.952 1.953,5.118 0,7.07"
             style="fill:#42538d;fill-opacity:1;fill-rule:nonzero;stroke:none"
             id="path2564" /></g></g></g></g></svg>
