<?xml version="1.0" encoding="UTF-8" standalone="no"?>
<svg
   xmlns:dc="http://purl.org/dc/elements/1.1/"
   xmlns:cc="http://creativecommons.org/ns#"
   xmlns:rdf="http://www.w3.org/1999/02/22-rdf-syntax-ns#"
   xmlns:svg="http://www.w3.org/2000/svg"
   xmlns="http://www.w3.org/2000/svg"
   version="1.1"
   id="svg1716"
   xml:space="preserve"
   width="200"
   height="200"
   viewBox="0 0 200 200"><metadata
     id="metadata1722"><rdf:RDF><cc:Work
         rdf:about=""><dc:format>image/svg+xml</dc:format><dc:type
           rdf:resource="http://purl.org/dc/dcmitype/StillImage" /><dc:title></dc:title></cc:Work></rdf:RDF></metadata><defs
     id="defs1720"><clipPath
       clipPathUnits="userSpaceOnUse"
       id="clipPath1734"><path
         d="M 0,150 H 150 V 0 H 0 Z"
         id="path1732" /></clipPath></defs><g
     id="g1724"
     transform="matrix(1.3333333,0,0,-1.3333333,0,200)"><path
       d="M 0,0 H 150 V 150 H 0 Z"
       style="fill:#231f20;fill-opacity:1;fill-rule:nonzero;stroke:none"
       id="path1726" /><g
       id="g1728"><g
         id="g1730"
         clip-path="url(#clipPath1734)"><g
           id="g1736"
           transform="translate(150,75)"><path
             d="m 0,0 c 0,-41.421 -33.579,-75 -75,-75 -41.421,0 -75,33.579 -75,75 0,41.421 33.579,75 75,75 C -33.579,75 0,41.421 0,0"
             style="fill:#ffffff;fill-opacity:1;fill-rule:nonzero;stroke:none"
             id="path1738" /></g><g
           id="g1740"
           transform="translate(75.0239,83.3623)"><path
             d="m 0,0 c -3.731,0 -6.884,4.003 -6.884,8.741 0,4.738 3.153,8.741 6.884,8.741 3.732,0 6.884,-4.003 6.884,-8.741 C 6.884,4.003 3.732,0 0,0 m 0,-9.195 c 8.862,0 16.08,8.045 16.08,17.936 0,9.892 -7.218,17.937 -16.08,17.937 -8.861,0 -16.08,-8.045 -16.08,-17.937 0,-9.891 7.219,-17.936 16.08,-17.936"
             style="fill:#42538d;fill-opacity:1;fill-rule:nonzero;stroke:none"
             id="path1742" /></g><g
           id="g1744"
           transform="translate(108.2988,80.1792)"><path
             d="m 0,0 c -2.312,0 -4.264,2.479 -4.264,5.414 0,2.934 1.952,5.413 4.264,5.413 2.311,0 4.264,-2.479 4.264,-5.413 C 4.264,2.479 2.311,0 0,0 m 0,-5.695 c 5.488,0 9.958,4.983 9.958,11.109 0,6.126 -4.47,11.108 -9.958,11.108 -5.488,0 -9.959,-4.982 -9.959,-11.108 0,-6.126 4.471,-11.109 9.959,-11.109"
             style="fill:#42538d;fill-opacity:1;fill-rule:nonzero;stroke:none"
             id="path1746" /></g><g
           id="g1748"
           transform="translate(122.499,58.9941)"><path
             d="m 0,0 h -19.447 c -1.552,1.771 -3.281,3.359 -5.143,4.768 0.828,0.577 1.733,1.112 2.74,1.601 2.288,1.11 4.9,1.698 7.55,1.698 5.374,0 10.446,-2.318 13.576,-6.204 C -0.372,1.408 -0.046,0.934 0.253,0.44 0.369,0.248 0.225,0 0,0 m -24.547,-9.839 h -45.984 c -0.363,0 -0.595,0.4 -0.408,0.71 0.752,1.24 1.63,2.383 2.615,3.456 2.173,2.369 4.922,4.359 8.355,6.044 0.049,0.025 0.094,0.051 0.143,0.074 3.695,1.793 7.911,2.743 12.191,2.743 4.436,0 8.74,-0.984 12.569,-2.779 3.195,-1.499 6.059,-3.561 8.378,-6.104 0.335,-0.369 0.661,-0.747 0.973,-1.135 0.569,-0.734 1.095,-1.501 1.576,-2.297 0.189,-0.311 -0.045,-0.712 -0.408,-0.712 m -51.039,9.861 h -19.491 c -0.224,0 -0.369,0.248 -0.253,0.44 1.508,2.489 3.746,4.405 6.883,5.93 2.288,1.11 4.9,1.698 7.55,1.698 3.859,0 7.55,-1.212 10.49,-3.324 -1.937,-1.438 -3.663,-3.015 -5.179,-4.744 M 7.09,-0.859 C 6.327,1.415 5.195,3.53 3.746,5.393 c -6.468,8.072 -18.543,10.729 -28.085,6.098 -2.049,-0.996 -3.833,-2.155 -5.366,-3.487 -10.333,5.397 -23.256,5.994 -34.14,0.712 -0.496,-0.24 -0.979,-0.489 -1.455,-0.741 -6.77,6.019 -17.192,7.637 -25.637,3.539 -5.421,-2.634 -9.001,-6.407 -10.919,-11.529 -0.554,-1.467 -1.004,-3.111 -0.228,-4.33 0.775,-1.217 2.25,-1.32 3.462,-1.328 h 19.069 c -0.726,-1.341 -1.37,-2.747 -1.924,-4.225 -0.894,-2.371 -1.621,-5.025 -0.369,-6.992 1.253,-1.966 3.634,-2.132 5.591,-2.144 h 37.186 20.907 c 1.766,0 3.946,0.236 5.064,1.955 1.119,1.718 0.616,4.04 0,5.853 -0.645,1.923 -1.463,3.77 -2.423,5.531 h 6.526 12.948 c 1.095,0 2.445,0.146 3.137,1.211 0.693,1.063 0.381,2.502 0,3.625"
             style="fill:#42538d;fill-opacity:1;fill-rule:nonzero;stroke:none"
             id="path1750" /></g><g
           id="g1752"
           transform="translate(41.7012,80.2021)"><path
             d="m 0,0 c -2.311,0 -4.263,2.479 -4.263,5.414 0,2.934 1.952,5.413 4.263,5.413 2.311,0 4.264,-2.479 4.264,-5.413 C 4.264,2.479 2.311,0 0,0 m 0,-5.695 c 5.489,0 9.959,4.982 9.959,11.109 0,6.126 -4.47,11.108 -9.959,11.108 -5.488,0 -9.958,-4.982 -9.958,-11.108 0,-6.127 4.47,-11.109 9.958,-11.109"
             style="fill:#42538d;fill-opacity:1;fill-rule:nonzero;stroke:none"
             id="path1754" /></g></g></g></g></svg>
