<?xml version="1.0" encoding="UTF-8" standalone="no"?>
<svg
   xmlns:dc="http://purl.org/dc/elements/1.1/"
   xmlns:cc="http://creativecommons.org/ns#"
   xmlns:rdf="http://www.w3.org/1999/02/22-rdf-syntax-ns#"
   xmlns:svg="http://www.w3.org/2000/svg"
   xmlns="http://www.w3.org/2000/svg"
   version="1.1"
   id="svg2092"
   xml:space="preserve"
   width="200"
   height="200"
   viewBox="0 0 200 200"><metadata
     id="metadata2098"><rdf:RDF><cc:Work
         rdf:about=""><dc:format>image/svg+xml</dc:format><dc:type
           rdf:resource="http://purl.org/dc/dcmitype/StillImage" /><dc:title></dc:title></cc:Work></rdf:RDF></metadata><defs
     id="defs2096"><clipPath
       clipPathUnits="userSpaceOnUse"
       id="clipPath2110"><path
         d="M 0,150 H 150 V 0 H 0 Z"
         id="path2108" /></clipPath></defs><g
     id="g2100"
     transform="matrix(1.3333333,0,0,-1.3333333,0,200)"><path
       d="M 0,0 H 150 V 150 H 0 Z"
       style="fill:#231f20;fill-opacity:1;fill-rule:nonzero;stroke:none"
       id="path2102" /><g
       id="g2104"><g
         id="g2106"
         clip-path="url(#clipPath2110)"><g
           id="g2112"
           transform="translate(150,75)"><path
             d="m 0,0 c 0,-41.421 -33.579,-75 -75,-75 -41.421,0 -75,33.579 -75,75 0,41.421 33.579,75 75,75 C -33.579,75 0,41.421 0,0"
             style="fill:#ffffff;fill-opacity:1;fill-rule:nonzero;stroke:none"
             id="path2114" /></g><g
           id="g2116"
           transform="translate(89.4346,49.667)"><path
             d="m 0,0 -1.987,1.32 c -2.238,1.487 -4.548,3.021 -6.803,4.546 -1.644,1.236 -3.641,1.906 -5.716,1.906 -2.067,0 -4.056,-0.666 -5.695,-1.89 L -33.583,-3.096 V 59.33 c 4.059,-10e-4 8.119,-0.008 12.178,-0.015 4.603,-0.007 9.207,-0.015 13.81,-0.015 4.111,0 8.223,0.006 12.333,0.024 C 4.68,51.462 4.704,43.522 4.727,35.826 4.738,31.661 4.751,27.494 4.751,23.326 V -3.138 Z m 13.251,60.877 c -0.125,3.825 -3.224,6.882 -7.05,6.954 -13.796,-0.069 -27.591,0 -41.387,0 -0.121,0.003 -0.242,0.003 -0.363,0 -3.71,-0.101 -6.635,-3.189 -6.534,-6.898 V 42.074 -14.488 c -0.131,-0.721 0.098,-1.461 0.613,-1.983 0.873,-0.883 2.297,-0.89 3.18,-0.017 l 23.094,15.492 c 0.39,0.358 0.989,0.358 1.38,0 3.035,-2.056 6.084,-4.069 9.132,-6.098 l 14.582,-9.629 c 0.009,-0.006 0.017,-0.013 0.026,-0.021 0.631,-0.501 1.476,-0.549 2.142,-0.187 0.455,0.248 0.747,0.704 0.928,1.189 0.171,0.456 0.259,0.942 0.257,1.433 v 37.635 c 0,12.527 -0.11,25.039 0,37.551"
             style="fill:#42538d;fill-opacity:1;fill-rule:nonzero;stroke:none"
             id="path2118" /></g></g></g></g></svg>
