<?xml version="1.0" encoding="UTF-8" standalone="no"?>
<svg
   xmlns:dc="http://purl.org/dc/elements/1.1/"
   xmlns:cc="http://creativecommons.org/ns#"
   xmlns:rdf="http://www.w3.org/1999/02/22-rdf-syntax-ns#"
   xmlns:svg="http://www.w3.org/2000/svg"
   xmlns="http://www.w3.org/2000/svg"
   version="1.1"
   id="svg2028"
   xml:space="preserve"
   width="200"
   height="200"
   viewBox="0 0 200 200"><metadata
     id="metadata2034"><rdf:RDF><cc:Work
         rdf:about=""><dc:format>image/svg+xml</dc:format><dc:type
           rdf:resource="http://purl.org/dc/dcmitype/StillImage" /><dc:title></dc:title></cc:Work></rdf:RDF></metadata><defs
     id="defs2032"><clipPath
       clipPathUnits="userSpaceOnUse"
       id="clipPath2046"><path
         d="M 0,150 H 150 V 0 H 0 Z"
         id="path2044" /></clipPath></defs><g
     id="g2036"
     transform="matrix(1.3333333,0,0,-1.3333333,0,200)"><path
       d="M 0,0 H 150 V 150 H 0 Z"
       style="fill:#231f20;fill-opacity:1;fill-rule:nonzero;stroke:none"
       id="path2038" /><g
       id="g2040"><g
         id="g2042"
         clip-path="url(#clipPath2046)"><g
           id="g2048"
           transform="translate(150,75)"><path
             d="m 0,0 c 0,-41.421 -33.579,-75 -75,-75 -41.421,0 -75,33.579 -75,75 0,41.421 33.579,75 75,75 C -33.579,75 0,41.421 0,0"
             style="fill:#ffffff;fill-opacity:1;fill-rule:nonzero;stroke:none"
             id="path2050" /></g><g
           id="g2052"
           transform="translate(107.2422,98.0859)"><path
             d="m 0,0 c -1.307,2.019 -4.099,3.684 -6.25,4.631 0.106,-0.047 0.23,-0.507 0.271,-0.605 0.226,-0.546 0.418,-1.106 0.583,-1.672 0.523,-1.795 0.77,-3.683 0.647,-5.552 -0.162,-2.465 -1.011,-4.835 -2.478,-6.823 -0.89,-1.207 -1.976,-2.261 -3.155,-3.183 -1.074,-0.84 -2.424,-1.986 -3.884,-1.81 -1.136,0.137 0.33,1.765 0.626,2.072 1.161,1.196 2.49,2.181 3.524,3.496 0.982,1.249 1.794,2.644 2.314,4.151 0.669,1.938 0.811,4.018 0.389,6.026 -0.598,2.843 -1.976,5.721 -4.456,7.332 -1.444,0.939 -3.022,1.69 -4.668,2.194 -5.478,1.674 -10.844,-0.096 -14.77,-4.192 -0.757,-0.79 -1.238,-1.505 -1.607,-2.478 0.049,0.129 0,0 0.11,-0.005 0.417,-0.018 0.833,-0.058 1.247,-0.099 0.77,-0.075 1.541,-0.198 2.314,-0.245 1.649,-0.098 3.307,0.1 4.931,0.38 1.324,0.228 2.658,1.133 4.041,0.82 0.037,-0.008 0.074,-0.017 0.111,-0.028 0.245,-0.07 0.765,-0.213 0.703,-0.563 -0.051,-0.286 -0.476,-0.492 -0.697,-0.614 -1.383,-0.756 -2.897,-1.292 -4.45,-1.554 -1.319,-0.223 -2.662,-0.294 -3.998,-0.285 -4.46,0.03 -8.864,0.925 -13.175,2.007 -3.706,0.931 -7.246,2.054 -11.109,1.962 -3.918,-0.092 -8.493,-1.54 -10.566,-5.072 -1.77,-3.015 -2.658,-6.622 -1.449,-10.008 0.852,-2.388 2.716,-4.145 4.477,-5.877 1.568,-1.542 3.092,-3.132 4.633,-4.702 1.475,-1.503 3.685,-2.962 5.16,-4.466 0.148,-0.151 1.764,-2.047 1.942,-1.979 0,0 1.648,0.625 4.415,1.303 -0.142,0.327 -0.445,0.862 -0.589,1.084 -1.022,1.566 -2.181,3.117 -3.334,4.619 -1.083,1.412 -2.163,2.83 -2.851,4.488 -0.408,0.987 -1.484,3.666 -0.725,4.663 0.215,0.283 0.516,0.281 0.795,0.107 0.506,-0.314 0.76,-0.813 0.915,-1.372 1.731,-5.06 6.555,-10.932 8.362,-13.02 6.709,1.328 17.329,2.237 27.724,-1.826 -0.235,0.091 1.227,3.206 1.317,3.376 2.44,4.596 7.541,7.081 10.562,11.23 C 0.372,-8.699 2.559,-3.955 0,0 m -49.127,-33.481 v -10.175 -4.342 -0.156 c 5.987,3.342 12.86,3.8 18.248,3.824 h 0.084 c 5.881,-0.027 11.691,-1.298 17.051,-3.729 v 12.16 c 0,4.041 0,4.041 -3.892,5.316 -0.227,0.072 -0.46,0.133 -0.694,0.181 -4.115,0.951 -8.326,1.427 -12.549,1.419 -3.267,-0.012 -6.528,-0.261 -9.759,-0.746 -2.035,-0.369 -4.038,-0.904 -5.987,-1.6 l -1.604,-0.517 c -0.443,-0.144 -0.898,-0.397 -0.886,-1.635 z m 17.271,-15.227 c -1.076,0.013 -2.151,-0.038 -3.22,-0.152 l -1.124,-0.133 c -1.819,-0.127 -3.611,-0.507 -5.326,-1.129 -1.523,-0.352 -2.946,-1.047 -4.161,-2.033 -0.432,-0.257 -0.72,-0.7 -0.78,-1.2 0.107,-0.582 0.483,-1.077 1.013,-1.333 0.835,-0.55 1.746,-0.975 2.703,-1.261 6.121,-1.861 12.606,-2.164 18.873,-0.885 2.201,0.44 4.335,1.169 6.348,2.166 0.519,0.212 0.898,0.67 1.012,1.221 -0.013,0.634 -0.339,1.221 -0.871,1.566 -0.921,0.733 -5.223,2.033 -6.581,2.288 l -0.658,0.122 c -1.077,0.222 -2.165,0.389 -3.26,0.498 l -0.749,0.092 c -1.069,0.121 -2.144,0.179 -3.219,0.173 m 0.214,-16.878 c -5.303,0.007 -10.58,0.752 -15.68,2.213 -1.212,0.36 -2.392,0.82 -3.53,1.374 -2.798,1.167 -4.524,4.018 -4.269,7.05 0.082,2.213 0.069,4.48 0,6.666 v 2.267 0.66 3.6 0.124 c 0,3.202 0,6.486 -0.095,9.702 -0.161,1.125 -0.674,2.17 -1.465,2.983 -1.299,1.374 -2.736,2.749 -4.104,3.971 -1.368,1.224 -2.805,2.639 -4.105,4 l -0.821,0.866 c -2.353,2.301 -4.488,4.818 -6.376,7.517 -3.032,4.387 -3.502,10.068 -1.231,14.897 2.446,5.43 7.441,9.265 13.299,10.211 5.117,0.701 10.419,0.464 15.235,-0.815 l 3.941,-1.003 4.31,-1.086 c 0.547,-0.151 0.588,-0.164 0.889,0.358 5.801,10.028 18.297,11.705 28.026,6.759 1.839,-0.936 3.401,-2.339 4.805,-3.855 0.344,-0.345 0.782,-0.579 1.258,-0.674 4.461,-0.781 8.292,-3.635 10.331,-7.696 1.976,-3.884 1.976,-8.484 0,-12.368 -1.373,-2.471 -3.02,-4.776 -4.912,-6.872 -0.63,-0.742 -1.231,-1.443 -1.806,-2.171 -1.068,-1.375 -2.175,-2.639 -3.256,-3.917 -1.368,-1.622 -2.737,-3.298 -4.105,-5.016 -1.566,-2.139 -2.349,-4.756 -2.217,-7.408 0.096,-8.149 0.124,-16.491 0.137,-22.772 0.045,-2.473 -1.503,-4.693 -3.831,-5.497 -3.347,-1.363 -6.808,-2.421 -10.344,-3.161 -3.328,-0.602 -6.703,-0.906 -10.084,-0.907"
             style="fill:#42538d;fill-opacity:1;fill-rule:nonzero;stroke:none"
             id="path2054" /></g></g></g></g></svg>
