<svg xmlns="http://www.w3.org/2000/svg" viewBox="0 0 200 200" width="200" height="200">
	<defs>
		<clipPath clipPathUnits="userSpaceOnUse" id="cp1">
			<path d="M0 0L200 0L200 200L0 200L0 0Z" />
		</clipPath>
	</defs>
	<style>
		tspan { white-space:pre }
		.shp0 { fill: #ffffff } 
		.shp1 { fill: #42538d } 
	</style>
	<g id="g1724">
		<g id="g1728">
			<g id="Clip-Path: g1730" clip-path="url(#cp1)">
				<g id="g1730">
					<g id="g1736">
						<path id="path1738" class="shp0" d="M200 100C200 155.23 155.23 200 100 200C44.77 200 0 155.23 0 100C0 44.77 44.77 0 100 0C155.23 0 200 44.77 200 100Z" />
					</g>
					<g id="g1740">
						<path id="path1742" fill-rule="evenodd" class="shp1" d="M78.59 77.2C78.59 64.01 88.22 53.28 100.03 53.28C111.85 53.28 121.47 64.01 121.47 77.2C121.47 90.38 111.85 101.11 100.03 101.11C88.22 101.11 78.59 90.38 78.59 77.2ZM109.21 77.2C109.21 70.88 105.01 65.54 100.03 65.54C95.06 65.54 90.85 70.88 90.85 77.2C90.85 83.51 95.06 88.85 100.03 88.85C105.01 88.85 109.21 83.51 109.21 77.2Z" />
					</g>
					<g id="g1744">
						<path id="path1746" fill-rule="evenodd" class="shp1" d="M144.4 100.69C137.08 100.69 131.12 94.04 131.12 85.88C131.12 77.71 137.08 71.07 144.4 71.07C151.72 71.07 157.68 77.71 157.68 85.88C157.68 94.04 151.72 100.69 144.4 100.69ZM150.08 85.88C150.08 81.96 147.48 78.66 144.4 78.66C141.32 78.66 138.71 81.96 138.71 85.88C138.71 89.79 141.32 93.09 144.4 93.09C147.48 93.09 150.08 89.79 150.08 85.88Z" />
					</g>
					<g id="g1748">
						<path id="path1750" fill-rule="evenodd" class="shp1" d="M172.79 122.49C173.29 123.98 173.71 125.9 172.79 127.32C171.86 128.74 170.06 128.93 168.6 128.93L142.64 128.93C143.92 131.28 145.01 133.75 145.87 136.31C146.69 138.73 147.36 141.82 145.87 144.11C144.38 146.41 141.47 146.72 139.12 146.72L61.66 146.72C59.05 146.7 55.87 146.48 54.2 143.86C52.53 141.24 53.5 137.7 54.7 134.54C55.43 132.57 56.29 130.69 57.26 128.91L31.84 128.91C30.22 128.89 28.25 128.76 27.22 127.13C26.19 125.51 26.79 123.32 27.52 121.36C30.08 114.53 34.85 109.5 42.08 105.99C53.34 100.53 67.24 102.68 76.27 110.71C76.9 110.37 77.54 110.04 78.21 109.72C92.72 102.68 109.95 103.47 123.73 110.67C125.77 108.89 128.15 107.35 130.88 106.02C143.6 99.85 159.7 103.39 168.33 114.15C170.26 116.63 171.77 119.45 172.79 122.49ZM130.6 134.46C131.09 134.46 131.4 133.93 131.15 133.51C130.51 132.45 129.8 131.43 129.05 130.45C128.63 129.93 128.19 129.43 127.75 128.93C124.66 125.54 120.84 122.79 116.58 120.8C111.47 118.4 105.73 117.09 99.82 117.09C94.11 117.09 88.49 118.36 83.56 120.75C83.5 120.78 83.44 120.81 83.37 120.85C78.8 123.09 75.13 125.75 72.23 128.91C70.92 130.34 69.75 131.86 68.75 133.51C68.5 133.93 68.81 134.46 69.29 134.46L130.6 134.46ZM62.55 121.31C64.57 119.01 66.87 116.9 69.46 114.99C65.54 112.17 60.61 110.55 55.47 110.55C51.94 110.55 48.45 111.34 45.4 112.82C41.22 114.85 38.24 117.41 36.23 120.73C36.07 120.98 36.26 121.31 36.56 121.31L62.55 121.31ZM163.67 120.75C163.27 120.1 162.84 119.46 162.37 118.86C158.19 113.68 151.43 110.59 144.27 110.59C140.73 110.59 137.25 111.37 134.2 112.85C132.86 113.5 131.65 114.21 130.55 114.98C133.03 116.86 135.33 118.98 137.4 121.34L163.33 121.34C163.63 121.34 163.82 121.01 163.67 120.75Z" />
					</g>
					<g id="g1752">
						<path id="path1754" fill-rule="evenodd" class="shp1" d="M55.6 100.66C48.28 100.66 42.32 94.01 42.32 85.85C42.32 77.68 48.28 71.03 55.6 71.03C62.92 71.03 68.88 77.68 68.88 85.85C68.88 94.01 62.92 100.66 55.6 100.66ZM61.29 85.85C61.29 81.93 58.68 78.63 55.6 78.63C52.52 78.63 49.92 81.93 49.92 85.85C49.92 89.76 52.52 93.06 55.6 93.06C58.68 93.06 61.29 89.76 61.29 85.85Z" />
					</g>
				</g>
			</g>
		</g>
	</g>
</svg>