<?xml version="1.0" encoding="UTF-8" standalone="no"?>
<svg
   xmlns:dc="http://purl.org/dc/elements/1.1/"
   xmlns:cc="http://creativecommons.org/ns#"
   xmlns:rdf="http://www.w3.org/1999/02/22-rdf-syntax-ns#"
   xmlns:svg="http://www.w3.org/2000/svg"
   xmlns="http://www.w3.org/2000/svg"
   version="1.1"
   id="svg1888"
   xml:space="preserve"
   width="200"
   height="200"
   viewBox="0 0 200 200"><metadata
     id="metadata1894"><rdf:RDF><cc:Work
         rdf:about=""><dc:format>image/svg+xml</dc:format><dc:type
           rdf:resource="http://purl.org/dc/dcmitype/StillImage" /><dc:title></dc:title></cc:Work></rdf:RDF></metadata><defs
     id="defs1892"><clipPath
       clipPathUnits="userSpaceOnUse"
       id="clipPath1906"><path
         d="M 0,150 H 150 V 0 H 0 Z"
         id="path1904" /></clipPath></defs><g
     id="g1896"
     transform="matrix(1.3333333,0,0,-1.3333333,0,200)"><path
       d="M 0,0 H 150 V 150 H 0 Z"
       style="fill:#231f20;fill-opacity:1;fill-rule:nonzero;stroke:none"
       id="path1898" /><g
       id="g1900"><g
         id="g1902"
         clip-path="url(#clipPath1906)"><g
           id="g1908"
           transform="translate(150,75)"><path
             d="m 0,0 c 0,-41.421 -33.579,-75 -75,-75 -41.421,0 -75,33.579 -75,75 0,41.421 33.579,75 75,75 C -33.579,75 0,41.421 0,0"
             style="fill:#ffffff;fill-opacity:1;fill-rule:nonzero;stroke:none"
             id="path1910" /></g><g
           id="g1912"
           transform="translate(123.8574,71.2939)"><path
             d="m 0,0 c 0,-1.143 -0.927,-2.069 -2.069,-2.069 -1.144,0 -2.071,0.926 -2.071,2.069 v 6.962 c 0,1.143 0.927,2.07 2.071,2.07 C -0.927,9.032 0,8.105 0,6.962 Z m -9.797,-15.739 c 0,-1.448 -1.178,-2.625 -2.625,-2.625 -1.447,0 -2.625,1.177 -2.625,2.625 v 38.743 c 0,1.448 1.178,2.626 2.625,2.626 1.447,0 2.625,-1.178 2.625,-2.626 z m -12.415,-5.255 c 0,-1.447 -1.178,-2.625 -2.625,-2.625 -1.447,0 -2.625,1.178 -2.625,2.625 v 48.999 c 0,1.448 1.178,2.625 2.625,2.625 1.447,0 2.625,-1.177 2.625,-2.625 z m -13.028,20.13 h -27.003 c -1.172,0 -2.122,0.949 -2.122,2.121 v 4.899 c 0,1.172 0.95,2.122 2.122,2.122 h 27.003 c 1.171,0 2.121,-0.95 2.121,-2.122 V 1.257 c 0,-1.172 -0.95,-2.121 -2.121,-2.121 m -35.012,-19.729 c 0,-1.447 -1.179,-2.626 -2.626,-2.626 -1.447,0 -2.625,1.179 -2.625,2.626 v 48.999 c 0,1.448 1.178,2.625 2.625,2.625 1.447,0 2.626,-1.177 2.626,-2.625 z m -12.415,5.255 c 0,-1.447 -1.179,-2.626 -2.626,-2.626 -1.447,0 -2.625,1.179 -2.625,2.626 v 38.744 c 0,1.448 1.178,2.625 2.625,2.625 1.447,0 2.626,-1.177 2.626,-2.625 z M -93.575,0.401 c 0,-1.143 -0.927,-2.069 -2.07,-2.069 -1.144,0 -2.07,0.926 -2.07,2.069 v 6.963 c 0,1.143 0.926,2.07 2.07,2.07 1.143,0 2.07,-0.927 2.07,-2.07 z m 92.855,15.24 c -1.023,0.209 -1.732,1.151 -1.732,2.195 v 5.897 c 0,4.746 -3.848,8.595 -8.595,8.595 -0.916,0 -1.797,-0.146 -2.623,-0.413 -1.047,-0.339 -2.178,0.108 -2.699,1.078 -1.548,2.874 -4.678,4.767 -8.23,4.498 -4.521,-0.342 -7.926,-4.293 -7.926,-8.828 V 14.243 H -65.19 V 29.08 c 0,4.534 -3.405,8.485 -7.926,8.828 -3.551,0.268 -6.682,-1.625 -8.229,-4.499 -0.522,-0.97 -1.653,-1.417 -2.7,-1.078 -0.827,0.268 -1.707,0.413 -2.623,0.413 -4.747,0 -8.595,-3.848 -8.595,-8.595 v -5.896 c 0,-1.045 -0.709,-1.987 -1.732,-2.196 -3.916,-0.802 -6.862,-4.267 -6.862,-8.42 v -7.909 c 0,-4.121 2.898,-7.563 6.767,-8.401 1.076,-0.232 1.827,-1.211 1.827,-2.312 v -5.072 c 0,-4.747 3.848,-8.594 8.595,-8.594 0.837,0 1.644,0.122 2.408,0.346 1.13,0.333 2.318,-0.148 2.865,-1.192 1.519,-2.897 4.64,-4.82 8.188,-4.589 4.561,0.299 8.017,4.274 8.017,8.845 v 14.257 h 32.665 v -14.674 c 0,-4.571 3.456,-8.545 8.016,-8.844 3.549,-0.232 6.67,1.691 8.189,4.589 0.548,1.044 1.735,1.525 2.866,1.192 0.763,-0.225 1.57,-0.346 2.407,-0.346 4.747,0 8.595,3.847 8.595,8.594 v 5.072 c 0,1.1 0.751,2.079 1.827,2.312 3.869,0.838 6.768,4.28 6.768,8.401 V 7.22 c 0,4.154 -2.947,7.619 -6.863,8.421"
             style="fill:#42538d;fill-opacity:1;fill-rule:nonzero;stroke:none"
             id="path1914" /></g></g></g></g></svg>
