<?xml version="1.0" encoding="UTF-8" standalone="no"?>
<svg
   xmlns:dc="http://purl.org/dc/elements/1.1/"
   xmlns:cc="http://creativecommons.org/ns#"
   xmlns:rdf="http://www.w3.org/1999/02/22-rdf-syntax-ns#"
   xmlns:svg="http://www.w3.org/2000/svg"
   xmlns="http://www.w3.org/2000/svg"
   version="1.1"
   id="svg1366"
   xml:space="preserve"
   width="200"
   height="200"
   viewBox="0 0 200 200"><metadata
     id="metadata1372"><rdf:RDF><cc:Work
         rdf:about=""><dc:format>image/svg+xml</dc:format><dc:type
           rdf:resource="http://purl.org/dc/dcmitype/StillImage" /><dc:title></dc:title></cc:Work></rdf:RDF></metadata><defs
     id="defs1370"><clipPath
       clipPathUnits="userSpaceOnUse"
       id="clipPath1382"><path
         d="M 0,150 H 150 V 0 H 0 Z"
         id="path1380" /></clipPath></defs><g
     id="g1374"
     transform="matrix(1.3333333,0,0,-1.3333333,0,200)"><g
       id="g1376"><g
         id="g1378"
         clip-path="url(#clipPath1382)"><g
           id="g1384"
           transform="translate(133.917,128.1792)"><path
             d="m 0,0 -45.089,-108.312 c -0.133,-0.333 -0.599,-0.351 -0.756,-0.028 l -20.63,41.493 66.269,66.983 C -0.109,0.232 0.051,0.127 0,0 m -111.778,-41.195 c -0.63,0.265 -2.577,1.248 -3.306,1.631 -0.313,0.164 -0.296,0.623 0.032,0.753 L -5.267,5.605 c 0.128,0.051 0.234,-0.109 0.136,-0.206 L -73.96,-60.312 c -11.738,5.777 -26.057,13.432 -37.818,19.117 M 15.844,18.002 C 15.433,20.488 13.085,22.17 10.6,21.759 9.816,21.593 9.057,21.336 8.333,20.994 l -88.305,-35.216 -50.582,-20.205 c -1.422,-0.694 -2.724,-1.653 -3.083,-3.291 -0.323,-1.477 0.146,-3.076 1.098,-4.231 1.571,-1.904 3.947,-2.938 6.172,-3.863 2.624,-1.09 5.197,-2.289 7.736,-3.567 6.545,-3.298 13.194,-6.407 19.79,-9.604 3.319,-1.608 6.638,-3.216 9.958,-4.821 3.29,-1.592 6.548,-3.317 9.896,-4.782 1.938,-0.848 3.498,-2.376 4.385,-4.296 8.338,-17.187 16.687,-34.432 25.045,-51.736 0.942,-1.971 2.061,-3.59 4.533,-3.561 2.279,0.027 3.503,1.437 4.349,3.362 l 10e-4,-0.002 0.024,0.058 c 0.062,0.145 0.129,0.287 0.187,0.437 L 15.161,14.637 c 0.354,0.913 0.735,1.854 0.735,2.355 0.021,0.338 0.002,0.676 -0.052,1.01"
             style="fill:#42538d;fill-opacity:1;fill-rule:nonzero;stroke:none"
             id="path1386" /></g><g
           id="g1388"
           transform="translate(5.2466,94.5366)"><path
             d="m 0,0 c -0.478,-0.174 -0.952,-0.358 -1.417,-0.565 -0.157,-0.07 -0.312,-0.144 -0.466,-0.22 l 50.582,20.206 z"
             style="fill:#42538d;fill-opacity:1;fill-rule:nonzero;stroke:none"
             id="path1390" /></g></g></g></g></svg>
