<?xml version="1.0" encoding="UTF-8" standalone="no"?>
<svg
   xmlns:dc="http://purl.org/dc/elements/1.1/"
   xmlns:cc="http://creativecommons.org/ns#"
   xmlns:rdf="http://www.w3.org/1999/02/22-rdf-syntax-ns#"
   xmlns:svg="http://www.w3.org/2000/svg"
   xmlns="http://www.w3.org/2000/svg"
   version="1.1"
   id="svg3212"
   xml:space="preserve"
   width="200"
   height="200"
   viewBox="0 0 200 200"><metadata
     id="metadata3218"><rdf:RDF><cc:Work
         rdf:about=""><dc:format>image/svg+xml</dc:format><dc:type
           rdf:resource="http://purl.org/dc/dcmitype/StillImage" /><dc:title></dc:title></cc:Work></rdf:RDF></metadata><defs
     id="defs3216"><clipPath
       clipPathUnits="userSpaceOnUse"
       id="clipPath3228"><path
         d="M 0,150 H 150 V 0 H 0 Z"
         id="path3226" /></clipPath></defs><g
     id="g3220"
     transform="matrix(1.3333333,0,0,-1.3333333,0,200)"><g
       id="g3222"><g
         id="g3224"
         clip-path="url(#clipPath3228)"><g
           id="g3230"
           transform="translate(49.5723,32.8594)"><path
             d="m 0,0 c 0.709,-0.222 1.241,-0.354 1.729,-0.555 3.458,-1.418 6.916,-2.881 10.374,-4.256 1.234,-0.398 2.109,-1.5 2.216,-2.793 0.488,-3.989 1.02,-7.957 1.552,-11.947 0.333,-2.549 1.241,-3.391 3.835,-3.414 h 11.438 c 2.77,0 3.702,0.909 4.011,3.636 0.444,3.768 0.953,7.536 1.397,11.327 0.107,1.601 1.221,2.955 2.771,3.369 3.214,1.197 6.362,2.549 9.465,3.946 1.356,0.765 3.045,0.606 4.233,-0.399 3.06,-2.461 6.163,-4.833 9.266,-7.227 1.105,-1.326 3.075,-1.506 4.402,-0.402 0.224,0.188 0.421,0.404 0.585,0.647 l 8.29,8.311 c 1.452,0.936 1.87,2.87 0.934,4.321 -0.16,0.248 -0.355,0.473 -0.578,0.667 -2.372,3.103 -4.766,6.207 -7.204,9.265 -1.085,1.235 -1.237,3.033 -0.377,4.434 1.37,2.925 2.584,5.923 3.635,8.977 0.466,1.836 2.118,3.123 4.012,3.125 3.746,0.356 7.448,0.887 11.083,1.375 2.35,0.311 3.303,1.264 3.326,3.436 v 12.413 c 0.245,1.634 -0.882,3.158 -2.516,3.403 -0.129,0.019 -0.259,0.03 -0.389,0.033 -3.945,0.532 -7.869,1.108 -11.814,1.507 -1.661,0.081 -3.079,1.229 -3.502,2.837 -1.183,3.148 -2.468,6.251 -3.858,9.31 -0.808,1.429 -0.612,3.215 0.489,4.433 2.371,2.971 4.676,6.008 7.004,9.022 1.663,2.217 1.595,3.259 -0.355,5.231 -2.631,2.66 -5.283,5.313 -7.958,7.958 -1.995,1.995 -3.17,2.062 -5.364,0.355 -3.015,-2.328 -6.051,-4.633 -8.999,-7.005 -1.229,-1.092 -3.022,-1.262 -4.434,-0.421 -2.875,1.417 -5.837,2.654 -8.866,3.702 -1.973,0.459 -3.357,2.231 -3.325,4.256 -0.355,3.746 -0.864,7.448 -1.374,11.083 0.023,1.714 -1.348,3.122 -3.061,3.145 -0.185,0.002 -0.37,-0.011 -0.552,-0.042 H 19.44 c -2.217,0 -3.214,-0.909 -3.502,-3.192 C 15.405,99.948 14.829,96.024 14.408,92.079 14.316,90.521 13.235,89.198 11.726,88.798 8.601,87.601 5.453,86.382 2.416,84.941 0.888,84.03 -1.06,84.248 -2.35,85.473 c -2.992,2.439 -6.073,4.766 -9.132,7.115 -1.177,1.23 -3.127,1.272 -4.356,0.096 -0.144,-0.137 -0.273,-0.288 -0.388,-0.45 -2.763,-2.749 -5.534,-5.52 -8.312,-8.313 -1.477,-0.963 -1.893,-2.94 -0.93,-4.417 0.165,-0.254 0.367,-0.483 0.597,-0.681 2.394,-3.103 4.788,-6.206 7.204,-9.265 0.999,-1.128 1.177,-2.763 0.444,-4.079 -1.441,-3.236 -2.771,-6.495 -4.057,-9.775 -0.453,-1.435 -1.754,-2.435 -3.258,-2.505 -3.946,-0.443 -7.869,-0.997 -11.815,-1.53 -2.438,-0.332 -3.236,-1.263 -3.258,-3.79 V 36.796 c 0,-3.236 0.798,-4.057 4.078,-4.434 3.658,-0.398 7.337,-0.908 11.083,-1.351 1.555,-0.133 2.855,-1.237 3.237,-2.749 1.197,-3.192 2.512,-6.34 3.945,-9.443 0.837,-1.42 0.648,-3.218 -0.465,-4.433 -2.461,-3.037 -4.832,-6.162 -7.226,-9.266 -1.272,-1.167 -1.356,-3.144 -0.188,-4.416 0.15,-0.163 0.317,-0.31 0.498,-0.438 2.734,-2.748 5.468,-5.483 8.201,-8.202 1.995,-1.972 3.082,-2.039 5.365,-0.288 3.037,2.35 6.073,4.766 9.154,7.093 C -1.32,-0.697 -0.675,-0.319 0,0 m 86.173,83.648 c -0.03,-2.273 -0.86,-4.464 -2.344,-6.187 -2.016,-2.578 -3.983,-5.203 -6.046,-7.758 -0.62,-0.619 -0.762,-1.57 -0.351,-2.344 0.984,-2.015 1.687,-4.148 2.647,-6.187 0.291,-0.607 0.829,-1.059 1.477,-1.242 3.468,-0.539 7.031,-0.961 10.429,-1.383 4.878,-0.361 8.602,-4.509 8.438,-9.398 V 35.088 c 0.154,-4.642 -3.265,-8.631 -7.875,-9.188 -3.469,-0.539 -7.031,-0.961 -10.43,-1.336 -0.983,-0.019 -1.834,-0.689 -2.085,-1.64 -0.726,-2.039 -1.711,-4.008 -2.344,-6.07 -0.214,-0.701 -0.121,-1.458 0.258,-2.086 1.946,-2.695 4.054,-5.296 6.07,-7.945 3.387,-3.739 3.136,-9.507 -0.563,-12.937 -3.124,-3.312 -6.343,-6.531 -9.655,-9.656 -3.357,-3.578 -8.936,-3.876 -12.656,-0.679 -2.719,2.015 -5.39,4.125 -8.039,6.234 -0.611,0.643 -1.588,0.77 -2.343,0.305 -2.016,-0.961 -4.149,-1.688 -6.164,-2.649 -0.655,-0.343 -1.144,-0.934 -1.36,-1.64 -0.492,-3.047 -0.937,-6.141 -1.172,-9.235 -0.127,-5.318 -4.541,-9.526 -9.859,-9.399 -0.167,0.004 -0.333,0.013 -0.499,0.025 -4.359,0.258 -8.742,0 -13.102,0 -4.841,-0.142 -8.954,3.517 -9.374,8.343 -0.445,3.469 -0.867,7.031 -1.406,10.406 -0.177,0.657 -0.63,1.204 -1.242,1.5 -2.04,0.938 -4.172,1.664 -6.187,2.602 -0.739,0.483 -1.716,0.386 -2.344,-0.234 -2.531,-2.063 -5.156,-4.055 -7.734,-6.047 -3.852,-3.46 -9.779,-3.142 -13.239,0.711 -0.033,0.036 -0.065,0.072 -0.097,0.109 l -9.163,9.14 c -3.669,3.34 -4.1,8.96 -0.985,12.82 2.032,2.719 4.117,5.398 6.258,8.038 0.627,0.619 0.752,1.585 0.304,2.344 -0.961,1.953 -1.798,3.965 -2.507,6.023 -0.2,0.911 -1.013,1.558 -1.945,1.547 -3.539,0.399 -7.031,0.797 -10.617,1.36 -4.583,0.648 -7.968,4.605 -7.898,9.234 v 14.061 c -0.033,4.776 3.529,8.814 8.273,9.375 3.492,0.445 7.031,0.961 10.453,1.312 0.796,0.03 1.475,0.585 1.663,1.36 0.797,2.086 1.641,4.172 2.578,6.187 0.478,0.744 0.371,1.721 -0.257,2.344 -2.11,2.507 -4.172,5.203 -6.305,7.898 -3.194,3.726 -2.905,9.302 0.657,12.679 3.187,3.328 6.445,6.562 9.773,9.75 3.331,3.523 8.834,3.831 12.538,0.703 2.766,-2.063 5.461,-4.195 8.156,-6.352 0.55,-0.592 1.439,-0.719 2.133,-0.304 2.062,0.984 4.219,1.851 6.351,2.625 0.782,0.195 1.326,0.904 1.312,1.711 0.375,3.444 0.891,6.843 1.313,10.265 0.493,4.78 4.521,8.415 9.328,8.413 h 14.062 c 4.567,0.088 8.494,-3.218 9.187,-7.734 0.562,-3.351 0.984,-6.726 1.312,-10.077 0.164,-1.477 0.539,-2.344 2.133,-2.836 1.969,-0.563 3.797,-1.617 5.742,-2.344 0.643,-0.192 1.336,-0.116 1.922,0.211 2.672,1.969 5.272,4.078 7.921,6.094 3.836,3.477 9.764,3.186 13.242,-0.65 0.071,-0.079 0.142,-0.16 0.211,-0.241 l 9.163,-9.141 c 1.839,-1.764 2.88,-4.201 2.883,-6.749"
             style="fill:#42538d;fill-opacity:1;fill-rule:nonzero;stroke:none"
             id="path3232" /></g><g
           id="g3234"
           transform="translate(75.0156,53.7119)"><path
             d="M 0,0 C 11.738,0.009 21.281,9.565 21.272,21.304 21.264,33.033 11.715,42.576 -0.017,42.576 -11.481,42.551 -20.825,33.558 -21.288,22.118 -21.298,21.837 -21.304,21.557 -21.303,21.272 -21.294,9.543 -11.745,0 -0.016,0 Z M -0.039,52.576 C 17.241,52.588 31.26,38.591 31.272,21.311 31.285,4.031 17.287,-9.987 0.007,-10 c -17.279,-0.013 -31.298,13.985 -31.31,31.265 -10e-4,0.414 0.007,0.828 0.023,1.242 0.678,16.773 14.454,30.033 31.241,30.069"
             style="fill:#42538d;fill-opacity:1;fill-rule:nonzero;stroke:none"
             id="path3236" /></g></g></g></g></svg>
