<?xml version="1.0" encoding="UTF-8" standalone="no"?>
<svg
   xmlns:dc="http://purl.org/dc/elements/1.1/"
   xmlns:cc="http://creativecommons.org/ns#"
   xmlns:rdf="http://www.w3.org/1999/02/22-rdf-syntax-ns#"
   xmlns:svg="http://www.w3.org/2000/svg"
   xmlns="http://www.w3.org/2000/svg"
   version="1.1"
   id="svg3154"
   xml:space="preserve"
   width="200"
   height="200"
   viewBox="0 0 200 200"><metadata
     id="metadata3160"><rdf:RDF><cc:Work
         rdf:about=""><dc:format>image/svg+xml</dc:format><dc:type
           rdf:resource="http://purl.org/dc/dcmitype/StillImage" /><dc:title></dc:title></cc:Work></rdf:RDF></metadata><defs
     id="defs3158"><clipPath
       clipPathUnits="userSpaceOnUse"
       id="clipPath3170"><path
         d="M 0,150 H 150 V 0 H 0 Z"
         id="path3168" /></clipPath></defs><g
     id="g3162"
     transform="matrix(1.3333333,0,0,-1.3333333,0,200)"><g
       id="g3164"><g
         id="g3166"
         clip-path="url(#clipPath3170)"><g
           id="g3172"
           transform="translate(79.1953,11.8223)"><path
             d="m 0,0 45.586,45.992 c 0.808,0.815 0.23,2.198 -0.916,2.198 h -97.731 c -1.146,0 -1.723,-1.383 -0.916,-2.198 L -8.242,-0.149 c 1.198,-1.209 2.839,-1.814 4.561,-1.664 C -2.28,-1.692 -0.99,-0.998 0,0 M -58.134,58.182 H 49.743 c 8.148,0 12.246,-9.833 6.511,-15.62 L 6.958,-7.174 c -6.144,-6.198 -16.163,-6.198 -22.306,0 l -49.297,49.736 c -5.735,5.787 -1.636,15.62 6.511,15.62 M 45.588,80.363 0.001,126.354 c -0.99,0.999 -2.28,1.693 -3.68,1.815 -1.722,0.15 -3.364,-0.455 -4.563,-1.665 L -53.978,80.363 c -0.808,-0.815 -0.23,-2.199 0.916,-2.199 h 97.733 c 1.146,0 1.724,1.384 0.917,2.199 m -110.233,3.431 49.297,49.735 c 6.143,6.199 16.162,6.198 22.306,0 L 56.254,83.794 C 61.99,78.007 57.891,68.173 49.743,68.173 H -58.134 c -8.148,0 -12.246,9.834 -6.511,15.621"
             style="fill:#42538d;fill-opacity:1;fill-rule:nonzero;stroke:none"
             id="path3174" /></g></g></g></g></svg>
