<?xml version="1.0" encoding="UTF-8" standalone="no"?>
<svg
   xmlns:dc="http://purl.org/dc/elements/1.1/"
   xmlns:cc="http://creativecommons.org/ns#"
   xmlns:rdf="http://www.w3.org/1999/02/22-rdf-syntax-ns#"
   xmlns:svg="http://www.w3.org/2000/svg"
   xmlns="http://www.w3.org/2000/svg"
   version="1.1"
   id="svg886"
   xml:space="preserve"
   width="200"
   height="200"
   viewBox="0 0 200 200"><metadata
     id="metadata892"><rdf:RDF><cc:Work
         rdf:about=""><dc:format>image/svg+xml</dc:format><dc:type
           rdf:resource="http://purl.org/dc/dcmitype/StillImage" /><dc:title></dc:title></cc:Work></rdf:RDF></metadata><defs
     id="defs890"><clipPath
       clipPathUnits="userSpaceOnUse"
       id="clipPath902"><path
         d="M 0,150 H 150 V 0 H 0 Z"
         id="path900" /></clipPath></defs><g
     id="g894"
     transform="matrix(1.3333333,0,0,-1.3333333,0,200)"><g
       id="g896"><g
         id="g898"
         clip-path="url(#clipPath902)"><g
           id="g904"
           transform="translate(140,75)"><path
             d="m 0,0 c 0,35.841 -29.159,65 -65,65 -35.841,0 -65,-29.159 -65,-65 0,-35.841 29.159,-65 65,-65 35.841,0 65,29.159 65,65 m 10,0 c 0,-41.421 -33.579,-75 -75,-75 -41.421,0 -75,33.579 -75,75 0,41.421 33.579,75 75,75 41.421,0 75,-33.579 75,-75"
             style="fill:#42538d;fill-opacity:1;fill-rule:nonzero;stroke:none"
             id="path906" /></g><g
           id="g908"
           transform="translate(90.0391,50)"><path
             d="m 0,0 h -30.079 c -5.501,0 -9.96,4.46 -9.96,9.961 V 40.04 c 0,5.501 4.459,9.96 9.96,9.96 H 0 c 5.501,0 9.961,-4.459 9.961,-9.96 V 9.961 C 9.961,4.46 5.501,0 0,0"
             style="fill:#42538d;fill-opacity:1;fill-rule:nonzero;stroke:none"
             id="path910" /></g></g></g></g></svg>
