<?xml version="1.0" encoding="UTF-8" standalone="no"?>
<svg
   xmlns:dc="http://purl.org/dc/elements/1.1/"
   xmlns:cc="http://creativecommons.org/ns#"
   xmlns:rdf="http://www.w3.org/1999/02/22-rdf-syntax-ns#"
   xmlns:svg="http://www.w3.org/2000/svg"
   xmlns="http://www.w3.org/2000/svg"
   version="1.1"
   id="svg454"
   xml:space="preserve"
   width="200"
   height="200"
   viewBox="0 0 200 200"><metadata
     id="metadata460"><rdf:RDF><cc:Work
         rdf:about=""><dc:format>image/svg+xml</dc:format><dc:type
           rdf:resource="http://purl.org/dc/dcmitype/StillImage" /><dc:title></dc:title></cc:Work></rdf:RDF></metadata><defs
     id="defs458"><clipPath
       clipPathUnits="userSpaceOnUse"
       id="clipPath470"><path
         d="M 0,150 H 150 V 0 H 0 Z"
         id="path468" /></clipPath></defs><g
     id="g462"
     transform="matrix(1.3333333,0,0,-1.3333333,0,200)"><g
       id="g464"><g
         id="g466"
         clip-path="url(#clipPath470)"><g
           id="g472"
           transform="translate(10.4023,22.0586)"><path
             d="m 0,0 c 0.075,0.254 0.164,0.534 0.269,0.844 1.854,5.521 4.568,10.608 8.068,15.119 10.301,12.819 26.928,20.471 44.491,20.471 8.666,0 17.226,-1.931 24.746,-5.58 C 91.094,24.283 99.57,15.402 104.26,2.878 104.73,1.632 105.022,0.704 105.203,0.02 104.924,0.01 104.604,0.002 104.237,0 Z M -9.211,-6.488 C -7.203,-9.574 -3.287,-10 -0.114,-10 h 37.555 66.796 c 3.514,0.021 7.792,0.319 10.041,3.853 2.249,3.532 0.944,8.3 -0.663,12.557 C 108.053,21.266 97.67,32.206 81.944,39.847 54.271,53.277 19.246,45.572 0.489,22.16 -3.714,16.759 -6.997,10.622 -9.211,4.026 c -1.105,-3.256 -2.009,-7.428 0,-10.514"
             style="fill:#42538d;fill-opacity:1;fill-rule:nonzero;stroke:none"
             id="path474" /></g><g
           id="g476"
           transform="translate(44.0581,105.7227)"><path
             d="m 0,0 c 0,12.252 8.471,22.219 18.883,22.219 10.413,0 18.884,-9.967 18.884,-22.219 0,-12.251 -8.471,-22.219 -18.884,-22.219 C 8.471,-22.219 0,-12.251 0,0 m 47.767,0 c 0,17.768 -12.965,32.219 -28.883,32.219 C 2.965,32.219 -10,17.768 -10,0 c 0,-17.768 12.965,-32.219 28.884,-32.219 15.918,0 28.883,14.451 28.883,32.219"
             style="fill:#42538d;fill-opacity:1;fill-rule:nonzero;stroke:none"
             id="path478" /></g><g
           id="g480"
           transform="translate(101.9609,80.9326)"><path
             d="m 0,0 h 16.52 v 16.52 c 0,2.761 2.238,5 5,5 2.76,0 5,-2.239 5,-5 V 0 h 16.519 c 2.762,0 5,-2.239 5,-5 0,-2.762 -2.238,-5 -5,-5 H 26.52 v -16.52 c 0,-2.761 -2.24,-5 -5,-5 -2.762,0 -5,2.239 -5,5 l 0,16.52 H 0 c -2.762,0 -5,2.238 -5,5 0,2.761 2.238,5 5,5"
             style="fill:#42538d;fill-opacity:1;fill-rule:nonzero;stroke:none"
             id="path482" /></g></g></g></g></svg>
