<?xml version="1.0" encoding="UTF-8" standalone="no"?>
<svg
   xmlns:dc="http://purl.org/dc/elements/1.1/"
   xmlns:cc="http://creativecommons.org/ns#"
   xmlns:rdf="http://www.w3.org/1999/02/22-rdf-syntax-ns#"
   xmlns:svg="http://www.w3.org/2000/svg"
   xmlns="http://www.w3.org/2000/svg"
   version="1.1"
   id="svg520"
   xml:space="preserve"
   width="200"
   height="200"
   viewBox="0 0 200 200"><metadata
     id="metadata526"><rdf:RDF><cc:Work
         rdf:about=""><dc:format>image/svg+xml</dc:format><dc:type
           rdf:resource="http://purl.org/dc/dcmitype/StillImage" /><dc:title></dc:title></cc:Work></rdf:RDF></metadata><defs
     id="defs524"><clipPath
       clipPathUnits="userSpaceOnUse"
       id="clipPath536"><path
         d="M 0,150 H 150 V 0 H 0 Z"
         id="path534" /></clipPath></defs><g
     id="g528"
     transform="matrix(1.3333333,0,0,-1.3333333,0,200)"><g
       id="g530"><g
         id="g532"
         clip-path="url(#clipPath536)"><g
           id="g538"
           transform="translate(126.9092,99.8247)"><path
             d="m 0,0 2.253,1.1 c 2.184,1.064 4.229,2.632 6.438,4.931 6.307,6.568 9.265,14.35 7.913,20.819 -0.757,3.622 -3.265,8.608 -10.916,11.784 -1.551,0.645 -3.272,0.972 -5.116,0.972 -6.762,0 -13.744,-4.32 -16.601,-10.271 -0.353,-0.732 -0.682,-1.555 -1.034,-2.588 l -0.334,-0.98 3.366,-3.267 10.988,-10.988 C -1.63,10.094 -0.684,8.269 -0.309,6.238 L -0.26,6.034 c 0.01,-0.06 0.02,-0.109 0.031,-0.152 z m -33.28,4.49 c -1.355,0 -2.644,-0.363 -3.73,-1.051 -1.786,-1.128 -2.991,-2.964 -3.302,-5.035 -0.312,-2.072 0.291,-4.173 1.654,-5.765 1.364,-1.593 3.35,-2.507 5.451,-2.507 1.596,0 3.171,0.541 4.433,1.522 l 2.561,1.991 -3.123,0.876 c -0.804,0.224 -1.526,0.448 -2.158,0.657 -0.813,0.267 -1.253,1.125 -1.005,1.953 0.199,0.665 0.82,1.13 1.51,1.13 0.116,0 0.234,-0.012 0.348,-0.039 0.802,-0.184 1.578,-0.35 2.33,-0.5 l 2.915,-0.582 -1.068,2.772 c -0.956,2.485 -3.062,4.128 -5.78,4.506 -0.343,0.048 -0.692,0.072 -1.036,0.072 m -83.785,-47.383 43.342,-43.343 63.709,63.706 v 13.389 l -1.618,0.016 c -0.241,0.003 -0.483,0.012 -0.723,0.02 l -0.444,0.015 c -2.952,0.041 -6.025,0.342 -9.154,0.895 l -1.072,0.19 -0.588,-0.915 c -2.119,-3.298 -5.721,-5.267 -9.633,-5.267 -3.134,0.02 -6.004,1.231 -8.153,3.408 -2.15,2.178 -3.324,5.063 -3.305,8.124 0.041,6.277 5.181,11.384 11.456,11.384 5.805,-0.038 10.656,-4.354 11.359,-10.039 l 0.157,-1.259 1.257,-0.161 c 3.082,-0.396 6.029,-0.597 8.758,-0.597 h 1.635 l 0.068,1.634 v 2.472 l -0.144,3.744 -10.87,10.872 -5.591,5.419 h -26.737 z m 43.343,-53.216 c -2.736,0 -5.307,1.067 -7.238,3.006 l -42.97,42.97 c -3.973,3.99 -3.973,10.488 0.002,14.481 l 63.437,63.438 c 1.899,1.91 4.528,3.004 7.214,3.004 h 26.745 c 0.908,0 1.833,-0.133 2.75,-0.393 l 1.472,-0.418 0.513,1.442 c 1.075,3.019 2.498,5.64 4.007,7.384 4.424,4.836 10.763,7.628 17.359,7.628 0.266,0 0.533,-0.004 0.8,-0.014 l 0.076,-0.002 0.078,0.005 c 0.421,0.025 0.843,0.037 1.263,0.037 3.493,0 6.957,-0.893 10.016,-2.582 C 22.532,37.566 26.187,22.931 20.266,9.855 16.571,1.777 9.586,-4.398 1.103,-7.08 l -1.142,-0.36 v -14.982 c 0.006,-2.699 -1.088,-5.335 -3,-7.237 l -63.444,-63.442 c -1.955,-1.95 -4.517,-3.008 -7.239,-3.008"
             style="fill:#42538d;fill-opacity:1;fill-rule:nonzero;stroke:none"
             id="path540" /></g></g></g></g></svg>
