<?xml version="1.0" encoding="UTF-8" standalone="no"?>
<svg
   xmlns:dc="http://purl.org/dc/elements/1.1/"
   xmlns:cc="http://creativecommons.org/ns#"
   xmlns:rdf="http://www.w3.org/1999/02/22-rdf-syntax-ns#"
   xmlns:svg="http://www.w3.org/2000/svg"
   xmlns="http://www.w3.org/2000/svg"
   version="1.1"
   id="svg3394"
   xml:space="preserve"
   width="200"
   height="200"
   viewBox="0 0 200 200"><metadata
     id="metadata3400"><rdf:RDF><cc:Work
         rdf:about=""><dc:format>image/svg+xml</dc:format><dc:type
           rdf:resource="http://purl.org/dc/dcmitype/StillImage" /><dc:title></dc:title></cc:Work></rdf:RDF></metadata><defs
     id="defs3398"><clipPath
       clipPathUnits="userSpaceOnUse"
       id="clipPath3410"><path
         d="M 0,150 H 150 V 0 H 0 Z"
         id="path3408" /></clipPath></defs><g
     id="g3402"
     transform="matrix(1.3333333,0,0,-1.3333333,0,200)"><g
       id="g3404"><g
         id="g3406"
         clip-path="url(#clipPath3410)"><g
           id="g3412"
           transform="translate(21.9668,120.9619)"><path
             d="M 0,0 45.962,-45.962 0,-91.924 c -1.953,-1.952 -1.953,-5.118 0,-7.071 1.953,-1.952 5.119,-1.952 7.071,0 l 45.962,45.962 45.962,-45.962 c 1.953,-1.952 5.118,-1.952 7.071,0 1.953,1.953 1.953,5.118 0,7.071 L 60.104,-45.962 106.066,0 c 1.953,1.953 1.953,5.119 0,7.071 -1.953,1.953 -5.119,1.953 -7.071,0 L 53.033,-38.891 7.071,7.071 C 5.119,9.024 1.953,9.024 0,7.071 -1.953,5.119 -1.953,1.953 0,0"
             style="fill:#42538d;fill-opacity:1;fill-rule:nonzero;stroke:none"
             id="path3414" /></g></g></g></g></svg>
